<?xml version="1.0" encoding="UTF-8" standalone="no"?>
<!-- Created with Inkscape (http://www.inkscape.org/) -->

<svg
   xmlns:dc="http://purl.org/dc/elements/1.1/"
   xmlns:cc="http://creativecommons.org/ns#"
   xmlns:rdf="http://www.w3.org/1999/02/22-rdf-syntax-ns#"
   xmlns:svg="http://www.w3.org/2000/svg"
   xmlns="http://www.w3.org/2000/svg"
   xmlns:sodipodi="http://sodipodi.sourceforge.net/DTD/sodipodi-0.dtd"
   xmlns:inkscape="http://www.inkscape.org/namespaces/inkscape"
   width="320"
   height="320"
   id="svg3109"
   version="1.1"
   inkscape:version="0.48.4 r9939"
   sodipodi:docname="C:\Users\tai\Documents\Lionel personnel\Github\camptocamp.org\web\static\images\svg\bus.svg"
   inkscape:export-filename="C:\Users\tai\Desktop\boat_mini@2x.png"
   inkscape:export-xdpi="9"
   inkscape:export-ydpi="9">
  <defs
     id="defs3111" />
  <sodipodi:namedview
     id="base"
     pagecolor="#ffffff"
     bordercolor="#666666"
     borderopacity="1.0"
     inkscape:pageopacity="0.0"
     inkscape:pageshadow="2"
     inkscape:zoom="0.49497475"
     inkscape:cx="172.56139"
     inkscape:cy="261.28497"
     inkscape:document-units="px"
     inkscape:current-layer="layer1"
     showgrid="false"
     inkscape:showpageshadow="false"
     fit-margin-top="0"
     fit-margin-left="0"
     fit-margin-right="0"
     fit-margin-bottom="0"
     inkscape:window-width="1157"
     inkscape:window-height="732"
     inkscape:window-x="801"
     inkscape:window-y="68"
     inkscape:window-maximized="0"
     showguides="true"
     inkscape:guide-bbox="true" />
  <metadata
     id="metadata3114">
    <rdf:RDF>
      <cc:Work
         rdf:about="">
        <dc:format>image/svg+xml</dc:format>
        <dc:type
           rdf:resource="http://purl.org/dc/dcmitype/StillImage" />
        <dc:title></dc:title>
      </cc:Work>
    </rdf:RDF>
  </metadata>
  <g
     inkscape:label="Calque 1"
     inkscape:groupmode="layer"
     id="layer1"
     transform="translate(-342.38565,-248.18833)">
    <path
       style="font-size:medium;font-style:normal;font-variant:normal;font-weight:normal;font-stretch:normal;text-indent:0;text-align:start;text-decoration:none;line-height:normal;letter-spacing:normal;word-spacing:normal;text-transform:none;direction:ltr;block-progression:tb;writing-mode:lr-tb;text-anchor:start;baseline-shift:baseline;color:#000000;fill:#545455;fill-opacity:1;fill-rule:nonzero;stroke:none;stroke-width:25.14973831000000000;marker:none;visibility:visible;display:inline;overflow:visible;enable-background:accumulate;font-family:Sans;-inkscape-font-specification:Sans"
       d="M 86.71875 0 C 58.70197 0 34.75 21.33878 34.75 48.71875 L 34.75 117.78125 C 27.428965 121.42197 20.396998 125.56283 13.96875 130.5625 C 7.84259 135.32722 3.68455 139.35047 1.34375 146.75 C -1.30894 155.13545 0.39831 166.27276 2.625 174.78125 C 4.6288 182.43804 7.41723 189.13007 10.9375 196.21875 C 20.915349 216.31088 31.015138 236.48356 43.0625 255.40625 C 58.397134 275.07737 71.512454 277.78506 84.5625 278 C 101.15438 278 115.48627 261.18617 122.28125 250.65625 C 129.0765 261.18563 143.40863 278 160 278 C 176.58076 278 190.91822 261.20597 197.71875 250.6875 C 204.51401 261.21688 219.34613 278 235.9375 278 C 252.97939 280.57952 260.1651 276.14199 276.9375 255.40625 C 288.98486 236.48356 299.08465 216.31088 309.0625 196.21875 C 312.58277 189.13007 315.3712 182.43804 317.375 174.78125 C 319.60169 166.27276 321.30894 155.13545 318.65625 146.75 C 316.31545 139.35047 312.15741 135.32722 306.03125 130.5625 C 299.603 125.56283 292.57103 121.42197 285.25 117.78125 L 285.25 48.71875 C 285.25 21.33878 261.29803 0 233.28125 0 L 86.71875 0 z M 86.71875 25.15625 L 146.25 25.15625 L 146.25 67.46875 L 173.75 67.46875 L 173.75 25.15625 L 233.28125 25.15625 C 248.91355 25.15625 260.09375 36.05027 260.09375 48.71875 L 260.09375 106.96875 C 257.3845 105.91034 254.66019 104.86378 251.96875 103.8125 C 222.39244 92.25994 160 77.03125 160 77.03125 C 160 77.03125 97.60756 92.25994 68.03125 103.8125 C 65.339812 104.86378 62.615495 105.91034 59.90625 106.96875 L 59.90625 48.71875 C 59.90625 36.05027 71.08645 25.15625 86.71875 25.15625 z M 73.90625 294.90625 C 74.020789 295.03677 74.59375 295.71875 74.59375 295.71875 L 79.28125 295.6875 C 77.444368 295.51312 75.66139 295.25361 73.90625 294.90625 z M 246.0625 294.96875 C 244.44756 295.28641 242.80986 295.51599 241.125 295.6875 L 245.40625 295.71875 C 245.40625 295.71875 245.96177 295.08351 246.0625 294.96875 z "
       transform="translate(342.38565,248.18833)"
       id="rect2994" />
    <path
       style="fill:#545455;fill-opacity:1;stroke:none"
       d="m 315.47505,522.84458 c -2.6784,4.15841 -4.21875,8.81801 -4.21875,13.75 0,17.43412 18.78499,31.5625 41.9375,31.5625 16.58066,0 30.92255,-7.23302 37.71875,-17.75 6.80966,10.50798 21.14684,17.75 37.71875,17.75 16.57191,0 30.88694,-7.24202 37.6875,-17.75 6.8053,10.51698 21.16934,17.75 37.75,17.75 16.57301,0 30.88749,-7.24089 37.6875,-17.75 6.80009,10.52775 21.15888,17.78125 37.75,17.78125 16.57192,0 30.88695,-7.24202 37.6875,-17.75 6.80573,10.5161 21.17019,17.75 37.75,17.75 23.15252,0 41.90625,-14.12838 41.90625,-31.5625 0,-4.93178 -1.5093,-9.59172 -4.1875,-13.75 -6.79498,10.52992 -21.12687,17.78125 -37.71875,17.78125 -16.59136,0 -30.92349,-7.25187 -37.71875,-17.78125 -6.79498,10.52992 -21.12687,17.78125 -37.71875,17.78125 -16.59137,0 -30.92349,-7.25187 -37.71875,-17.78125 -6.80053,10.51847 -21.13799,17.75 -37.71875,17.75 -16.59137,0 -30.9235,-7.25187 -37.71875,-17.78125 -6.79498,10.52992 -21.12687,17.78125 -37.71875,17.78125 -16.59136,0 -30.9235,-7.25187 -37.71875,-17.78125 -6.79498,10.52992 -21.12687,17.78125 -37.71875,17.78125 -16.59136,0 -30.9235,-7.25187 -37.71875,-17.78125 z"
       id="path3807-4-8"
       inkscape:connector-curvature="0" />
  </g>
</svg>
