<?xml version="1.0" encoding="UTF-8" standalone="no"?>
<svg
   xmlns:dc="http://purl.org/dc/elements/1.1/"
   xmlns:cc="http://creativecommons.org/ns#"
   xmlns:rdf="http://www.w3.org/1999/02/22-rdf-syntax-ns#"
   xmlns:svg="http://www.w3.org/2000/svg"
   xmlns="http://www.w3.org/2000/svg"
   xmlns:xlink="http://www.w3.org/1999/xlink"
   xmlns:sodipodi="http://sodipodi.sourceforge.net/DTD/sodipodi-0.dtd"
   xmlns:inkscape="http://www.inkscape.org/namespaces/inkscape"
   width="48"
   height="48"
   id="svg2"
   version="1.1"
   inkscape:version="0.48.2 r9819"
   sodipodi:docname="bulb_on.svg"
   inkscape:export-filename="/home/tai/bulb_on.png"
   inkscape:export-xdpi="30"
   inkscape:export-ydpi="30">
  <metadata
     id="metadata203">
    <rdf:RDF>
      <cc:Work
         rdf:about="">
        <dc:format>image/svg+xml</dc:format>
        <dc:type
           rdf:resource="http://purl.org/dc/dcmitype/StillImage" />
        <dc:title></dc:title>
      </cc:Work>
    </rdf:RDF>
  </metadata>
  <sodipodi:namedview
     pagecolor="#ffffff"
     bordercolor="#666666"
     borderopacity="1"
     objecttolerance="10"
     gridtolerance="10"
     guidetolerance="10"
     inkscape:pageopacity="0"
     inkscape:pageshadow="2"
     inkscape:window-width="1280"
     inkscape:window-height="776"
     id="namedview201"
     showgrid="false"
     inkscape:zoom="4.9166667"
     inkscape:cx="-8.6440678"
     inkscape:cy="24"
     inkscape:window-x="0"
     inkscape:window-y="24"
     inkscape:window-maximized="1"
     inkscape:current-layer="svg2" />
  <defs
     id="defs4">
    <linearGradient
       id="lG3531">
      <stop
         style="stop-color:#ab8104"
         id="stop7" />
      <stop
         style="stop-color:#ab8104"
         offset=".73602742"
         id="stop9" />
      <stop
         style="stop-color:#616471"
         offset="1"
         id="stop11" />
    </linearGradient>
    <linearGradient
       id="lG3584">
      <stop
         style="stop-color:#ffd800;stop-opacity:0"
         id="stop14" />
      <stop
         style="stop-color:#ffd800;stop-opacity:0.32743362"
         offset=".5"
         id="stop16" />
      <stop
         style="stop-color:#ffd800;stop-opacity:0"
         offset="1"
         id="stop18" />
    </linearGradient>
    <linearGradient
       id="lG3300">
      <stop
         style="stop-color:#4c4428"
         id="stop21" />
      <stop
         style="stop-color:#e7b600;stop-opacity:0"
         offset="1"
         id="stop23" />
    </linearGradient>
    <linearGradient
       id="lG3311">
      <stop
         style="stop-color:#d6d87b"
         id="stop26" />
      <stop
         style="stop-color:#fbe843"
         offset="1"
         id="stop28" />
    </linearGradient>
    <linearGradient
       id="lG3265">
      <stop
         style="stop-color:#dcd763"
         id="stop31" />
      <stop
         style="stop-color:#d9bb05"
         offset=".2647059"
         id="stop33" />
      <stop
         style="stop-color:#dcd763"
         offset=".63235295"
         id="stop35" />
      <stop
         style="stop-color:#c7a107"
         offset="1"
         id="stop37" />
    </linearGradient>
    <linearGradient
       id="lG3175">
      <stop
         style="stop-color:#fffff1"
         id="stop40" />
      <stop
         style="stop-color:#f1f3ff;stop-opacity:0"
         offset="1"
         id="stop42" />
    </linearGradient>
    <linearGradient
       id="lG2399">
      <stop
         style="stop-color:#929470"
         id="stop45" />
      <stop
         style="stop-color:#fcffc1"
         offset=".2647059"
         id="stop47" />
      <stop
         style="stop-color:#f3f5ba"
         offset=".63235295"
         id="stop49" />
      <stop
         style="stop-color:#929470"
         offset="1"
         id="stop51" />
    </linearGradient>
    <linearGradient
       id="lG6339">
      <stop
         style="stop-color:#fff"
         id="stop54" />
      <stop
         style="stop-color:#fff;stop-opacity:0"
         offset="1"
         id="stop56" />
    </linearGradient>
    <linearGradient
       id="lG20428">
      <stop
         style="stop-color:#ffb812"
         id="stop59" />
      <stop
         style="stop-color:#ffb812;stop-opacity:0"
         offset="1"
         id="stop61" />
    </linearGradient>
    <linearGradient
       id="lG20393">
      <stop
         style="stop-color:#ffe708"
         id="stop64" />
      <stop
         style="stop-color:#ffd604;stop-opacity:0.43921569"
         offset=".41176471"
         id="stop66" />
      <stop
         style="stop-color:#4c3e1c;stop-opacity:0.47843137"
         offset="1"
         id="stop68" />
    </linearGradient>
    <linearGradient
       id="lG20210">
      <stop
         style="stop-color:#000;stop-opacity:0.51546389"
         id="stop71" />
      <stop
         style="stop-color:#000;stop-opacity:0.14432989"
         offset=".55172414"
         id="stop73" />
      <stop
         style="stop-color:#000;stop-opacity:0"
         offset="1"
         id="stop75" />
    </linearGradient>
    <radialGradient
       cx="17.8335"
       cy="11.4873"
       r="22.709299"
       fx="17.8335"
       fy="11.4873"
       id="aigrd7"
       gradientUnits="userSpaceOnUse">
      <stop
         style="stop-color:#fff;stop-opacity:0.17525773"
         id="stop78" />
      <stop
         style="stop-color:#ffe300"
         offset=".882"
         id="stop80" />
      <stop
         style="stop-color:#ffb900"
         offset="1"
         id="stop82" />
    </radialGradient>
    <linearGradient
       x1="23.124001"
       y1="43.165001"
       x2="26.4785"
       y2="43.165001"
       id="aigrd1"
       gradientUnits="userSpaceOnUse">
      <stop
         style="stop-color:#686868"
         offset=".005618"
         id="stop85" />
      <stop
         style="stop-color:#777"
         offset=".03012137"
         id="stop87" />
      <stop
         style="stop-color:#929292"
         offset=".08366583"
         id="stop89" />
      <stop
         style="stop-color:#a7a7a7"
         offset=".1422"
         id="stop91" />
      <stop
         style="stop-color:#b6b6b6"
         offset=".2074"
         id="stop93" />
      <stop
         style="stop-color:#bebebe"
         offset=".2846"
         id="stop95" />
      <stop
         style="stop-color:#c1c1c1"
         offset=".4045"
         id="stop97" />
      <stop
         style="stop-color:#bcbcbc"
         offset=".4962"
         id="stop99" />
      <stop
         style="stop-color:#adadad"
         offset=".6057"
         id="stop101" />
      <stop
         style="stop-color:#959595"
         offset=".7245"
         id="stop103" />
      <stop
         style="stop-color:#747474"
         offset=".8497"
         id="stop105" />
      <stop
         style="stop-color:#494949"
         offset=".9789"
         id="stop107" />
      <stop
         style="stop-color:#414141"
         offset="1"
         id="stop109" />
    </linearGradient>
    <linearGradient
       x1="18.9951"
       y1="37.226601"
       x2="30.169901"
       y2="37.226601"
       id="lG19894"
       gradientUnits="userSpaceOnUse">
      <stop
         style="stop-color:#a3a349"
         offset=".005618"
         id="stop112" />
      <stop
         style="stop-color:#acac54"
         offset=".02078677"
         id="stop114" />
      <stop
         style="stop-color:#c1c172"
         offset=".066"
         id="stop116" />
      <stop
         style="stop-color:#d4d68e"
         offset=".1148"
         id="stop118" />
      <stop
         style="stop-color:#e2e4a6"
         offset=".1677"
         id="stop120" />
      <stop
         style="stop-color:#edf0b8"
         offset=".2265"
         id="stop122" />
      <stop
         style="stop-color:#f3f6c3"
         offset=".2963"
         id="stop124" />
      <stop
         style="stop-color:#f5f8c7"
         offset=".4045"
         id="stop126" />
      <stop
         style="stop-color:#eef0be"
         offset=".5239"
         id="stop128" />
      <stop
         style="stop-color:#dbdda9"
         offset=".6666"
         id="stop130" />
      <stop
         style="stop-color:#bebd88"
         offset=".8211"
         id="stop132" />
      <stop
         style="stop-color:#989564"
         offset=".9832"
         id="stop134" />
      <stop
         style="stop-color:#949160"
         offset="1"
         id="stop136" />
    </linearGradient>
    <radialGradient
       cx="14.772334"
       cy="74.20993"
       r="7.8289828"
       fx="14.772334"
       fy="74.20993"
       id="rG20216"
       xlink:href="#lG20210"
       gradientUnits="userSpaceOnUse"
       gradientTransform="scale(1.76428, 0.566804)"
       href="#lG20210" />
    <linearGradient
       x1="-22.87417"
       y1="38.675991"
       x2="-4.3908315"
       y2="38.675991"
       id="lG4108"
       xlink:href="#lG19894"
       gradientUnits="userSpaceOnUse"
       gradientTransform="scale(1.02645, 0.974232)"
       href="#lG19894" />
    <linearGradient
       x1="-10.480865"
       y1="39.033951"
       x2="-23.851389"
       y2="39.142845"
       id="lG4110"
       xlink:href="#lG2399"
       gradientUnits="userSpaceOnUse"
       gradientTransform="scale(1.02645, 0.974232)"
       href="#lG2399" />
    <linearGradient
       x1="-22.87417"
       y1="38.675991"
       x2="-4.3908315"
       y2="38.675991"
       id="lG4112"
       xlink:href="#lG19894"
       gradientUnits="userSpaceOnUse"
       gradientTransform="scale(1.02645, 0.974232)"
       href="#lG19894" />
    <linearGradient
       x1="-10.480865"
       y1="39.033951"
       x2="-23.851389"
       y2="39.142845"
       id="lG4114"
       xlink:href="#lG2399"
       gradientUnits="userSpaceOnUse"
       gradientTransform="scale(1.02645, 0.974232)"
       href="#lG2399" />
    <linearGradient
       x1="23.124001"
       y1="43.165001"
       x2="26.4785"
       y2="43.165001"
       id="lG2755"
       xlink:href="#aigrd1"
       gradientUnits="userSpaceOnUse"
       gradientTransform="matrix(1.76341, 0, 0, 1.53667, -19.7326, -23.884)"
       href="#aigrd1" />
    <linearGradient
       x1="16.998856"
       y1="10.061084"
       x2="32.096882"
       y2="36.726292"
       id="lG2774"
       xlink:href="#lG6339"
       gradientUnits="userSpaceOnUse"
       gradientTransform="matrix(1.08853, 0, 0, 0.916621, 0.704347, -1.57439)"
       href="#lG6339" />
    <linearGradient
       x1="37.940434"
       y1="16.651863"
       x2="-5.2517161"
       y2="3.8557322"
       id="lG2793"
       xlink:href="#lG3175"
       gradientUnits="userSpaceOnUse"
       gradientTransform="matrix(0.853392, 0, 0, 0.975249, 1.89134, 1.66413)"
       href="#lG3175" />
    <radialGradient
       cx="68.137589"
       cy="29.869318"
       r="33.93409"
       fx="68.137589"
       fy="29.869318"
       id="rG2796"
       xlink:href="#aigrd7"
       gradientUnits="userSpaceOnUse"
       gradientTransform="matrix(0.526173, 0, 0, 0.758273, -9.56479, 5.11859)"
       href="#aigrd7" />
    <linearGradient
       x1="17.879995"
       y1="55.362793"
       x2="11.906206"
       y2="54.863026"
       id="lG2799"
       xlink:href="#lG3311"
       gradientUnits="userSpaceOnUse"
       gradientTransform="matrix(1.53039, 0, 0, 0.54383, 1.03061, 1.66413)"
       href="#lG3311" />
    <linearGradient
       x1="-29.007195"
       y1="-29.799353"
       x2="-37.641232"
       y2="-29.598314"
       id="lG2801"
       xlink:href="#lG3265"
       gradientUnits="userSpaceOnUse"
       gradientTransform="matrix(-0.864462, -0.0434172, 0.180876, -0.953676, 1.03061, 1.66413)"
       href="#lG3265" />
    <linearGradient
       x1="14.637301"
       y1="31.504122"
       x2="9.3648205"
       y2="32.25098"
       id="lG3574"
       xlink:href="#lG20428"
       gradientUnits="userSpaceOnUse"
       gradientTransform="matrix(1.86102, 0, 0, 0.466951, 1.25537, 5.47339)"
       href="#lG20428" />
    <linearGradient
       x1="30.620375"
       y1="10.313651"
       x2="32.16608"
       y2="18.162935"
       id="lG3577"
       xlink:href="#lG20393"
       gradientUnits="userSpaceOnUse"
       gradientTransform="matrix(0.589969, 0, 0, 1.47297, 0.90381, 4.89405)"
       href="#lG20393" />
    <linearGradient
       x1="30.620375"
       y1="10.313651"
       x2="32.16608"
       y2="18.162935"
       id="lG3580"
       xlink:href="#lG20393"
       gradientUnits="userSpaceOnUse"
       gradientTransform="matrix(-0.589969, 0, 0, 1.47297, 47.1005, 4.77818)"
       href="#lG20393" />
    <radialGradient
       cx="27.75"
       cy="18.625"
       r="15.0625"
       fx="27.75"
       fy="18.625"
       id="rG3590"
       xlink:href="#lG3584"
       gradientUnits="userSpaceOnUse"
       href="#lG3584" />
    <linearGradient
       x1="-22.87417"
       y1="38.675991"
       x2="-4.3908315"
       y2="38.675991"
       id="lG3833"
       xlink:href="#lG19894"
       gradientUnits="userSpaceOnUse"
       gradientTransform="matrix(0.611922, -0.131176, 0.0619429, 0.736408, 30.3714, 9.25484)"
       href="#lG19894" />
    <linearGradient
       x1="-10.480865"
       y1="39.033951"
       x2="-23.851389"
       y2="39.142845"
       id="lG3835"
       xlink:href="#lG2399"
       gradientUnits="userSpaceOnUse"
       gradientTransform="matrix(0.611922, -0.131176, 0.0619429, 0.736408, 30.3714, 9.25484)"
       href="#lG2399" />
    <linearGradient
       x1="-22.87417"
       y1="38.675991"
       x2="-4.3908315"
       y2="38.675991"
       id="lG3840"
       xlink:href="#lG19894"
       gradientUnits="userSpaceOnUse"
       gradientTransform="matrix(0.56043, 0.0296972, -0.117261, 0.65231, 35.3813, 20.9616)"
       href="#lG19894" />
    <linearGradient
       x1="-10.480865"
       y1="39.033951"
       x2="-23.851389"
       y2="39.142845"
       id="lG3842"
       xlink:href="#lG2399"
       gradientUnits="userSpaceOnUse"
       gradientTransform="matrix(0.56043, 0.0296972, -0.117261, 0.65231, 35.3813, 20.9616)"
       href="#lG2399" />
    <linearGradient
       x1="24.613028"
       y1="31.146202"
       x2="24.613028"
       y2="26.739624"
       id="lG3845"
       xlink:href="#lG3300"
       gradientUnits="userSpaceOnUse"
       gradientTransform="matrix(0.9917, 0, 0, 0.990925, -0.408739, 1.00792)"
       href="#lG3300" />
    <linearGradient
       x1="23.413288"
       y1="1.9996886"
       x2="23.413288"
       y2="34.005379"
       id="lG3537"
       xlink:href="#lG3531"
       gradientUnits="userSpaceOnUse"
       href="#lG3531" />
    <radialGradient
       inkscape:collect="always"
       xlink:href="#lG3584"
       id="radialGradient3202"
       gradientUnits="userSpaceOnUse"
       cx="27.75"
       cy="18.625"
       fx="27.75"
       fy="18.625"
       r="15.0625" />
    <linearGradient
       inkscape:collect="always"
       xlink:href="#aigrd1"
       id="linearGradient3204"
       gradientUnits="userSpaceOnUse"
       gradientTransform="matrix(1.76341,0,0,1.53667,-19.7326,-23.884)"
       x1="23.124001"
       y1="43.165001"
       x2="26.4785"
       y2="43.165001" />
    <linearGradient
       inkscape:collect="always"
       xlink:href="#lG3300"
       id="linearGradient3206"
       gradientUnits="userSpaceOnUse"
       gradientTransform="matrix(0.9917,0,0,0.990925,-0.408739,1.00792)"
       x1="24.613028"
       y1="31.146202"
       x2="24.613028"
       y2="26.739624" />
    <linearGradient
       inkscape:collect="always"
       xlink:href="#lG19894"
       id="linearGradient3208"
       gradientUnits="userSpaceOnUse"
       gradientTransform="matrix(0.56043,0.0296972,-0.117261,0.65231,35.3813,20.9616)"
       x1="-22.87417"
       y1="38.675991"
       x2="-4.3908315"
       y2="38.675991" />
    <linearGradient
       inkscape:collect="always"
       xlink:href="#lG2399"
       id="linearGradient3210"
       gradientUnits="userSpaceOnUse"
       gradientTransform="matrix(0.56043,0.0296972,-0.117261,0.65231,35.3813,20.9616)"
       x1="-10.480865"
       y1="39.033951"
       x2="-23.851389"
       y2="39.142845" />
    <linearGradient
       inkscape:collect="always"
       xlink:href="#lG19894"
       id="linearGradient3212"
       gradientUnits="userSpaceOnUse"
       gradientTransform="scale(1.02645,0.974232)"
       x1="-22.87417"
       y1="38.675991"
       x2="-4.3908315"
       y2="38.675991" />
    <linearGradient
       inkscape:collect="always"
       xlink:href="#lG2399"
       id="linearGradient3214"
       gradientUnits="userSpaceOnUse"
       gradientTransform="scale(1.02645,0.974232)"
       x1="-10.480865"
       y1="39.033951"
       x2="-23.851389"
       y2="39.142845" />
    <linearGradient
       inkscape:collect="always"
       xlink:href="#lG19894"
       id="linearGradient3216"
       gradientUnits="userSpaceOnUse"
       gradientTransform="scale(1.02645,0.974232)"
       x1="-22.87417"
       y1="38.675991"
       x2="-4.3908315"
       y2="38.675991" />
    <linearGradient
       inkscape:collect="always"
       xlink:href="#lG2399"
       id="linearGradient3218"
       gradientUnits="userSpaceOnUse"
       gradientTransform="scale(1.02645,0.974232)"
       x1="-10.480865"
       y1="39.033951"
       x2="-23.851389"
       y2="39.142845" />
    <linearGradient
       inkscape:collect="always"
       xlink:href="#lG19894"
       id="linearGradient3220"
       gradientUnits="userSpaceOnUse"
       gradientTransform="matrix(0.611922,-0.131176,0.0619429,0.736408,30.3714,9.25484)"
       x1="-22.87417"
       y1="38.675991"
       x2="-4.3908315"
       y2="38.675991" />
    <linearGradient
       inkscape:collect="always"
       xlink:href="#lG2399"
       id="linearGradient3222"
       gradientUnits="userSpaceOnUse"
       gradientTransform="matrix(0.611922,-0.131176,0.0619429,0.736408,30.3714,9.25484)"
       x1="-10.480865"
       y1="39.033951"
       x2="-23.851389"
       y2="39.142845" />
    <linearGradient
       inkscape:collect="always"
       xlink:href="#lG3311"
       id="linearGradient3224"
       gradientUnits="userSpaceOnUse"
       gradientTransform="matrix(1.53039,0,0,0.54383,1.03061,1.66413)"
       x1="17.879995"
       y1="55.362793"
       x2="11.906206"
       y2="54.863026" />
    <linearGradient
       inkscape:collect="always"
       xlink:href="#lG3265"
       id="linearGradient3226"
       gradientUnits="userSpaceOnUse"
       gradientTransform="matrix(-0.864462,-0.0434172,0.180876,-0.953676,1.03061,1.66413)"
       x1="-29.007195"
       y1="-29.799353"
       x2="-37.641232"
       y2="-29.598314" />
    <radialGradient
       inkscape:collect="always"
       xlink:href="#aigrd7"
       id="radialGradient3228"
       gradientUnits="userSpaceOnUse"
       gradientTransform="matrix(0.526173,0,0,0.758273,-9.56479,5.11859)"
       cx="68.137589"
       cy="29.869318"
       fx="68.137589"
       fy="29.869318"
       r="33.93409" />
    <linearGradient
       inkscape:collect="always"
       xlink:href="#lG3531"
       id="linearGradient3230"
       gradientUnits="userSpaceOnUse"
       x1="23.413288"
       y1="1.9996886"
       x2="23.413288"
       y2="34.005379" />
    <linearGradient
       inkscape:collect="always"
       xlink:href="#lG3175"
       id="linearGradient3232"
       gradientUnits="userSpaceOnUse"
       gradientTransform="matrix(0.853392,0,0,0.975249,1.89134,1.66413)"
       x1="37.940434"
       y1="16.651863"
       x2="-5.2517161"
       y2="3.8557322" />
    <linearGradient
       inkscape:collect="always"
       xlink:href="#lG20393"
       id="linearGradient3234"
       gradientUnits="userSpaceOnUse"
       gradientTransform="matrix(-0.589969,0,0,1.47297,47.1005,4.77818)"
       x1="30.620375"
       y1="10.313651"
       x2="32.16608"
       y2="18.162935" />
    <linearGradient
       inkscape:collect="always"
       xlink:href="#lG20393"
       id="linearGradient3236"
       gradientUnits="userSpaceOnUse"
       gradientTransform="matrix(0.589969,0,0,1.47297,0.90381,4.89405)"
       x1="30.620375"
       y1="10.313651"
       x2="32.16608"
       y2="18.162935" />
    <linearGradient
       inkscape:collect="always"
       xlink:href="#lG20428"
       id="linearGradient3238"
       gradientUnits="userSpaceOnUse"
       gradientTransform="matrix(1.86102,0,0,0.466951,1.25537,5.47339)"
       x1="14.637301"
       y1="31.504122"
       x2="9.3648205"
       y2="32.25098" />
    <linearGradient
       inkscape:collect="always"
       xlink:href="#lG6339"
       id="linearGradient3240"
       gradientUnits="userSpaceOnUse"
       gradientTransform="matrix(1.08853,0,0,0.916621,0.704347,-1.57439)"
       x1="16.998856"
       y1="10.061084"
       x2="32.096882"
       y2="36.726292" />
  </defs>
  <g
     id="g3180"
     transform="matrix(1.0374011,0,0,1.0374011,-0.89754081,1.3169516)">
    <path
       id="path159"
       style="fill:#ffffff"
       d="m 24,2.5 c -7.5,0 -13.5,5.9 -13.5,13.2 0,7.5 5.5,8.3 5.5,11 0,3.3 3.2,6.9 8.4,6.8 5.7,-0.1 8,-3.3 8,-6.8 0,-2.9 5.1,-3 5.1,-11 C 37.5,8.4 31.5,2.5 24,2.5 z"
       inkscape:connector-curvature="0" />
    <path
       id="path161"
       style="fill:url(#radialGradient3202)"
       transform="matrix(1.34177,0,0,1.08945,-13.2342,-3.74543)"
       d="m 42.8,18.6 a 15.1,15.1 0 1 1 -30.1,0 15.1,15.1 0 1 1 30.1,0 z"
       inkscape:connector-curvature="0" />
    <path
       id="path165"
       style="fill:url(#linearGradient3204);stroke:#565656;stroke-width:1"
       d="m 21,40.5 0,1.4 c 0,1.4 1.4,2.6 3,2.6 1.6,0 3,-1.2 3,-2.6 l 0,-1.4 -6,0 z"
       inkscape:connector-curvature="0" />
    <path
       id="path167"
       style="fill:#aeae57;stroke:url(#linearGradient3206);stroke-width:2"
       d="m 23.8,28.5 c -3.2,0 -6.9,1 -4.9,2.8 -0.5,0.2 -1.2,0.6 -1.2,1.7 0.1,0.5 0.7,0.9 1.5,1.1 -0.9,0.7 -1.5,1.3 -1.5,1.9 0.1,0.6 0.7,1 1.4,1.2 -0.8,0.6 -1.4,1.3 -1.4,1.9 0.1,1 2.1,2 6.5,1.9 3.1,-0.1 5.8,-0.7 6,-1.9 0.1,-0.4 -0.3,-0.9 -0.9,-1.3 0.5,-0.4 0.8,-0.9 0.8,-1.3 -0.1,-0.6 -0.6,-0.9 -1.4,-1.2 0.9,-0.6 1.4,-1.3 1.4,-1.9 -0.1,-0.6 -0.6,-0.9 -1.4,-1.1 0.9,-0.7 1.4,-1.4 1.4,-2 -0.1,-0.6 -3.2,-1.8 -6.3,-1.8 z"
       inkscape:connector-curvature="0" />
    <path
       id="path169"
       style="fill:url(#linearGradient3208);stroke:url(#linearGradient3210);stroke-width:0.08828904"
       d="M 30.2,39.1 C 30,40.3 26.9,41 22,40.7 c -3.2,-0.1 -3.3,-1 -3.1,-2.2 0.2,-1.2 2.9,-2.1 6,-1.9 3.1,0.2 5.5,1.3 5.3,2.5 z"
       inkscape:connector-curvature="0" />
    <path
       id="path171"
       style="fill:url(#linearGradient3212);stroke:url(#linearGradient3214);stroke-width:0.13035245"
       transform="matrix(0.596154,-0.127796,0.0635813,0.755885,30.3714,15.4059)"
       d="M -3.5,27.2"
       inkscape:connector-curvature="0" />
    <path
       id="path173"
       style="fill:url(#linearGradient3216);stroke:url(#linearGradient3218);stroke-width:0.13035245"
       transform="matrix(0.596154,-0.127796,0.0635813,0.755885,30.3714,12.3304)"
       d="M -3.5,27.2"
       inkscape:connector-curvature="0" />
    <path
       id="path175"
       style="fill:url(#linearGradient3220);stroke:url(#linearGradient3222);stroke-width:0.08828908"
       d="m 30,30.5 c 0,1.3 -2.6,2.9 -6,3.6 -3.4,0.7 -6.2,0.2 -6.3,-1.2 -0.2,-1.3 2.2,-2.9 5.6,-3.1 3.4,-0.2 6.7,-0.1 6.7,0.7 z"
       inkscape:connector-curvature="0" />
    <path
       id="path177"
       style="fill:#ffffff"
       transform="matrix(0.331798,0,0,0.333302,11.2097,28.0586)"
       d="m 31,22.4 a 3.3,3.3 0 1 1 -6.5,0 3.3,3.3 0 1 1 6.5,0 z"
       inkscape:connector-curvature="0" />
    <path
       id="path179"
       style="fill:#000000;fill-opacity:0.23391807"
       d="m 18.7,34.2 c 3.4,0.5 6.9,-0.1 9.8,-1.9 0.8,-0.5 0.9,-1.1 1.3,-1.6 -1.4,1.1 -5,4.1 -11.1,3.5 z"
       inkscape:connector-curvature="0" />
    <path
       id="path181"
       style="fill:#ffffff"
       transform="matrix(0.331798,0,0,0.333302,11.2097,31.0469)"
       d="m 31,22.4 a 3.3,3.3 0 1 1 -6.5,0 3.3,3.3 0 1 1 6.5,0 z"
       inkscape:connector-curvature="0" />
    <path
       id="path183"
       style="fill:#000000;fill-opacity:0.23391807"
       d="m 18.8,40.3 c 3.4,0.5 6.9,-0.1 9.8,-1.9 0.8,-0.5 0.9,-1.1 1.3,-1.6 -1.4,1.1 -5,4.1 -11.1,3.5 z"
       inkscape:connector-curvature="0" />
    <path
       id="path185"
       style="fill:#000000;fill-opacity:0.23391807"
       d="m 18.9,37.2 c 3.3,0.5 6.9,-0.1 9.7,-1.9 0.8,-0.5 1,-1.1 1.3,-1.6 -1.4,1.1 -4.9,4.1 -11,3.5 z"
       inkscape:connector-curvature="0" />
    <path
       id="path187"
       style="fill:url(#linearGradient3224);stroke:url(#linearGradient3226);stroke-width:0.08828903"
       d="m 18.5,31 c 0,-0.8 1.5,-1.8 5.3,-1.7 3.5,0 5.8,0.9 5.8,2.1 0,1.3 -3.1,2.1 -6.4,1.9 C 20,33.2 18.5,32.2 18.5,31 z"
       inkscape:connector-curvature="0" />
    <path
       id="path189"
       style="fill:url(#radialGradient3228);stroke:url(#linearGradient3230);stroke-width:0.98750001"
       d="m 24,2.5 c -7.5,0 -13.5,5.9 -13.5,13.2 0,7.5 5.5,8.3 5.5,11 0,3.3 3.2,6.9 8.4,6.8 5.7,-0.1 8,-3.3 8,-6.8 0,-2.9 5.1,-3 5.1,-11 C 37.5,8.4 31.5,2.5 24,2.5 z"
       inkscape:connector-curvature="0" />
    <path
       id="path191"
       style="fill:none;stroke:url(#linearGradient3232);stroke-width:0.92033798"
       d="m 24,3.5 c -7,0 -12.6,5.6 -12.6,12.3 0,7 5.1,7.8 5.1,10.3 0,3.1 3,6.5 7.9,6.3 5.3,-0.1 7.4,-3.1 7.4,-6.3 0,-2.7 4.8,-2.8 4.8,-10.3 C 36.6,9.1 31,3.5 24,3.5 z"
       inkscape:connector-curvature="0" />
    <path
       id="path193"
       style="fill:url(#linearGradient3234)"
       d="m 29.5,19.1 c 0.3,0.1 0.5,0.4 0.4,0.6 l -3.6,10.8 c -0.1,0.3 -0.4,0.5 -0.7,0.4 -0.3,-0.1 -0.5,-0.4 -0.4,-0.7 l 3.6,-10.7 c 0.1,-0.3 0.4,-0.5 0.7,-0.4 z"
       inkscape:connector-curvature="0" />
    <path
       id="path195"
       style="fill:url(#linearGradient3236)"
       d="m 18.5,19.2 c -0.3,0.1 -0.5,0.4 -0.4,0.7 l 3.6,10.7 c 0.1,0.3 0.4,0.5 0.7,0.4 0.3,-0.1 0.5,-0.4 0.4,-0.7 L 19.2,19.6 c -0.1,-0.3 -0.4,-0.5 -0.7,-0.4 z"
       inkscape:connector-curvature="0" />
    <path
       id="path197"
       style="fill:#ffd800;stroke:url(#linearGradient3238);stroke-width:0.2"
       d="m 18.6,19.1 c -0.3,0.1 -0.4,0.2 -0.5,0.5 0,0.2 0.1,0.4 0.3,0.5 0,0 1.7,1 4,1.5 2.2,0.5 5.1,0.6 7.3,-1.5 0.2,-0.2 0.2,-0.4 0.2,-0.6 0,-0.2 -0.2,-0.3 -0.4,-0.4 -0.2,0 -0.4,0 -0.6,0.2 -1.8,1.8 -4.2,1.8 -6.3,1.3 C 20.5,20.1 19,19.2 19,19.2 18.8,19.1 18.7,19.1 18.6,19.1 z"
       inkscape:connector-curvature="0" />
    <path
       id="path199"
       style="opacity:0.5977654;fill:url(#linearGradient3240)"
       d="m 24.3,5.2 c -6,0 -10.8,4 -10.8,8.9 0,1.9 0.9,3.6 2.2,5.1 1.5,0.6 3.1,1.1 4.9,1.1 6,0 10.8,-4 10.8,-8.9 0,-2 -0.9,-3.7 -2.2,-5.2 -1.5,-0.6 -3.1,-1 -4.9,-1 z"
       inkscape:connector-curvature="0" />
  </g>
</svg>
