<?xml version="1.0" encoding="UTF-8" standalone="no"?>
<svg
   xmlns:dc="http://purl.org/dc/elements/1.1/"
   xmlns:cc="http://creativecommons.org/ns#"
   xmlns:rdf="http://www.w3.org/1999/02/22-rdf-syntax-ns#"
   xmlns:svg="http://www.w3.org/2000/svg"
   xmlns="http://www.w3.org/2000/svg"
   xmlns:xlink="http://www.w3.org/1999/xlink"
   xmlns:sodipodi="http://sodipodi.sourceforge.net/DTD/sodipodi-0.dtd"
   xmlns:inkscape="http://www.inkscape.org/namespaces/inkscape"
   height="48"
   width="48"
   id="svg2"
   version="1.1"
   inkscape:version="0.48.2 r9819"
   sodipodi:docname="bulb_off.svg"
   inkscape:export-filename="/home/tai/svgc2c/bulb_off.png"
   inkscape:export-xdpi="30"
   inkscape:export-ydpi="30">
  <metadata
     id="metadata271">
    <rdf:RDF>
      <cc:Work
         rdf:about="">
        <dc:format>image/svg+xml</dc:format>
        <dc:type
           rdf:resource="http://purl.org/dc/dcmitype/StillImage" />
        <dc:title></dc:title>
      </cc:Work>
    </rdf:RDF>
  </metadata>
  <sodipodi:namedview
     pagecolor="#ffffff"
     bordercolor="#666666"
     borderopacity="1"
     objecttolerance="10"
     gridtolerance="10"
     guidetolerance="10"
     inkscape:pageopacity="0"
     inkscape:pageshadow="2"
     inkscape:window-width="1280"
     inkscape:window-height="776"
     id="namedview269"
     showgrid="false"
     inkscape:zoom="4.9166667"
     inkscape:cx="-8.6440678"
     inkscape:cy="24"
     inkscape:window-x="0"
     inkscape:window-y="24"
     inkscape:window-maximized="1"
     inkscape:current-layer="svg2" />
  <defs
     id="defs4">
    <linearGradient
       id="3300">
      <stop
         style="stop-color:#4c4c28"
         id="stop7" />
      <stop
         style="stop-color:#4c4c28;stop-opacity:0"
         offset="1"
         id="stop9" />
    </linearGradient>
    <linearGradient
       id="3311">
      <stop
         style="stop-color:#d6d7a5"
         id="stop12" />
      <stop
         offset="1"
         style="stop-color:#8e8f6d"
         id="stop14" />
    </linearGradient>
    <linearGradient
       id="3265">
      <stop
         style="stop-color:#929470"
         id="stop17" />
      <stop
         style="stop-color:#60614a"
         offset=".2647059"
         id="stop19" />
      <stop
         offset=".63235295"
         style="stop-color:#f3f5ba"
         id="stop21" />
      <stop
         offset="1"
         style="stop-color:#929470"
         id="stop23" />
    </linearGradient>
    <linearGradient
       id="3175">
      <stop
         style="stop-color:#f1f3ff"
         id="stop26" />
      <stop
         offset="1"
         style="stop-color:#f1f3ff;stop-opacity:0"
         id="stop28" />
    </linearGradient>
    <linearGradient
       id="2399">
      <stop
         style="stop-color:#929470"
         id="stop31" />
      <stop
         offset=".2647059"
         style="stop-color:#fcffc1"
         id="stop33" />
      <stop
         style="stop-color:#f3f5ba"
         offset=".63235295"
         id="stop35" />
      <stop
         style="stop-color:#929470"
         offset="1"
         id="stop37" />
    </linearGradient>
    <linearGradient
       id="6339">
      <stop
         style="stop-color:#fff"
         id="stop40" />
      <stop
         style="stop-color:#fff;stop-opacity:0"
         offset="1"
         id="stop42" />
    </linearGradient>
    <linearGradient
       id="20428">
      <stop
         style="stop-color:#a3a3a3"
         id="stop45" />
      <stop
         offset="1"
         style="stop-color:#b5b5b5;stop-opacity:0"
         id="stop47" />
    </linearGradient>
    <linearGradient
       id="20393">
      <stop
         style="stop-color:#fff"
         id="stop50" />
      <stop
         style="stop-color:#fff;stop-opacity:0.44117647"
         offset=".41176471"
         id="stop52" />
      <stop
         offset="1"
         style="stop-opacity:0.48039216"
         id="stop54" />
    </linearGradient>
    <linearGradient
       id="20210">
      <stop
         style="stop-opacity:0.51546389"
         id="stop57" />
      <stop
         style="stop-opacity:0.14432989"
         offset=".55172414"
         id="stop59" />
      <stop
         offset="1"
         style="stop-opacity:0"
         id="stop61" />
    </linearGradient>
    <radialGradient
       gradientUnits="userSpaceOnUse"
       fy="11.4873"
       fx="17.8335"
       r="22.7093"
       cy="11.4873"
       cx="17.8335"
       id="aigrd7">
      <stop
         style="stop-color:#fff;stop-opacity:0.17525773"
         id="stop64" />
      <stop
         style="stop-color:#709ac8"
         offset=".88200003"
         id="stop66" />
      <stop
         style="stop-color:#6f96dd"
         offset="1"
         id="stop68" />
    </radialGradient>
    <linearGradient
       y2="43.165"
       x2="26.4785"
       y1="43.165"
       x1="23.124"
       gradientUnits="userSpaceOnUse"
       id="aigrd1">
      <stop
         style="stop-color:#686868"
         offset=".005618"
         id="stop71" />
      <stop
         style="stop-color:#777"
         offset=".03012137"
         id="stop73" />
      <stop
         style="stop-color:#929292"
         offset=".08366583"
         id="stop75" />
      <stop
         style="stop-color:#A7A7A7"
         offset=".1422"
         id="stop77" />
      <stop
         style="stop-color:#B6B6B6"
         offset=".2074"
         id="stop79" />
      <stop
         style="stop-color:#BEBEBE"
         offset=".2846"
         id="stop81" />
      <stop
         style="stop-color:#C1C1C1"
         offset=".4045"
         id="stop83" />
      <stop
         style="stop-color:#BCBCBC"
         offset=".4962"
         id="stop85" />
      <stop
         style="stop-color:#ADADAD"
         offset=".6057"
         id="stop87" />
      <stop
         style="stop-color:#959595"
         offset=".7245"
         id="stop89" />
      <stop
         style="stop-color:#747474"
         offset=".8497"
         id="stop91" />
      <stop
         style="stop-color:#494949"
         offset=".9789"
         id="stop93" />
      <stop
         style="stop-color:#414141"
         offset="1"
         id="stop95" />
    </linearGradient>
    <linearGradient
       id="19894"
       gradientUnits="userSpaceOnUse"
       x1="18.9951"
       y1="37.226601"
       x2="30.169901"
       y2="37.226601">
      <stop
         offset=".005618"
         style="stop-color:#A3A349"
         id="stop98" />
      <stop
         offset=".02078677"
         style="stop-color:#ACAC54"
         id="stop100" />
      <stop
         offset=".06600059"
         style="stop-color:#C1C172"
         id="stop102" />
      <stop
         offset=".1148"
         style="stop-color:#D4D68E"
         id="stop104" />
      <stop
         offset=".1677"
         style="stop-color:#E2E4A6"
         id="stop106" />
      <stop
         offset=".2265"
         style="stop-color:#EDF0B8"
         id="stop108" />
      <stop
         offset=".2963"
         style="stop-color:#F3F6C3"
         id="stop110" />
      <stop
         offset=".4045"
         style="stop-color:#F5F8C7"
         id="stop112" />
      <stop
         offset=".5239"
         style="stop-color:#EEF0BE"
         id="stop114" />
      <stop
         offset=".6666"
         style="stop-color:#DBDDA9"
         id="stop116" />
      <stop
         offset=".8211"
         style="stop-color:#BEBD88"
         id="stop118" />
      <stop
         offset=".9832"
         style="stop-color:#989564"
         id="stop120" />
      <stop
         offset="1"
         style="stop-color:#949160"
         id="stop122" />
    </linearGradient>
    <linearGradient
       gradientTransform="matrix(1.63913, 0, 0, 1.63913, -15.9704, -29.7936)"
       y2="43.165"
       x2="26.4785"
       y1="43.165"
       x1="23.124"
       gradientUnits="userSpaceOnUse"
       xlink:href="#aigrd1"
       href="#aigrd1"
       id="linearGradient124" />
    <radialGradient
       gradientUnits="userSpaceOnUse"
       r="7.8289826"
       fy="74.209934"
       fx="14.772334"
       cy="74.209934"
       cx="14.772334"
       gradientTransform="scale(1.76428, 0.566804)"
       id="radialGradient20216"
       xlink:href="#20210"
       href="#20210" />
    <linearGradient
       y2="36.726292"
       x2="32.096882"
       y1="10.061084"
       x1="16.998856"
       gradientTransform="matrix(1.14049, 0, 0, 0.926002, 0.27233, -3.24717)"
       gradientUnits="userSpaceOnUse"
       xlink:href="#6339"
       href="#6339"
       id="linearGradient127" />
    <radialGradient
       r="33.93409"
       fy="29.869318"
       fx="68.137589"
       cy="29.869318"
       cx="68.137589"
       gradientTransform="matrix(0.55129, 1.26559e-16, -1.35572e-16, 0.766034, -10.487, 3.51431)"
       gradientUnits="userSpaceOnUse"
       xlink:href="#aigrd7"
       href="#aigrd7"
       id="radialGradient129" />
    <linearGradient
       gradientUnits="userSpaceOnUse"
       y2="3.8557322"
       x2="-5.2517161"
       y1="16.651863"
       x1="37.940434"
       gradientTransform="matrix(0.894129, 0, 0, 0.98523, 1.51598, 0.024498)"
       xlink:href="#3175"
       href="#3175"
       id="linearGradient131" />
    <linearGradient
       xlink:href="#20393"
       gradientUnits="userSpaceOnUse"
       gradientTransform="matrix(-0.6293, 0, 0, 1.58907, 50.6881, 3.80438)"
       x1="30.620375"
       y1="10.313651"
       x2="32.16608"
       y2="18.162935"
       href="#20393"
       id="linearGradient133" />
    <linearGradient
       xlink:href="#20393"
       gradientUnits="userSpaceOnUse"
       gradientTransform="matrix(0.6293, 0, 0, 1.58907, 1.41161, 3.92938)"
       x1="30.620375"
       y1="10.313651"
       x2="32.16608"
       y2="18.162935"
       href="#20393"
       id="linearGradient135" />
    <linearGradient
       xlink:href="#20428"
       gradientUnits="userSpaceOnUse"
       gradientTransform="matrix(1.98508, 0, 0, 0.503757, 1.78661, 4.55438)"
       x1="14.637301"
       y1="31.504122"
       x2="9.3648205"
       y2="32.25098"
       href="#20428"
       id="linearGradient137" />
    <linearGradient
       xlink:href="#19894"
       gradientUnits="userSpaceOnUse"
       gradientTransform="scale(1.02645, 0.974232)"
       x1="-22.87417"
       y1="38.675991"
       x2="-4.3908315"
       y2="38.675991"
       href="#19894"
       id="linearGradient139" />
    <linearGradient
       xlink:href="#2399"
       gradientUnits="userSpaceOnUse"
       gradientTransform="scale(1.02645, 0.974232)"
       x1="-10.480865"
       y1="39.033951"
       x2="-23.851389"
       y2="39.142845"
       href="#2399"
       id="linearGradient141" />
    <linearGradient
       xlink:href="#19894"
       gradientUnits="userSpaceOnUse"
       gradientTransform="scale(1.02645, 0.974232)"
       x1="-22.87417"
       y1="38.675991"
       x2="-4.3908315"
       y2="38.675991"
       href="#19894"
       id="linearGradient143" />
    <linearGradient
       xlink:href="#2399"
       gradientUnits="userSpaceOnUse"
       gradientTransform="scale(1.02645, 0.974232)"
       x1="-10.480865"
       y1="39.033951"
       x2="-23.851389"
       y2="39.142845"
       href="#2399"
       id="linearGradient145" />
    <linearGradient
       xlink:href="#3311"
       gradientUnits="userSpaceOnUse"
       gradientTransform="matrix(1.60344, 0, 0, 0.549396, 0.614167, 0.024498)"
       x1="17.879995"
       y1="55.362793"
       x2="11.906206"
       y2="54.863026"
       href="#3311"
       id="linearGradient147" />
    <linearGradient
       xlink:href="#3265"
       gradientUnits="userSpaceOnUse"
       gradientTransform="matrix(-0.905728, -0.0438616, 0.18951, -0.963437, 0.614167, 0.024498)"
       x1="-29.007195"
       y1="-29.799353"
       x2="-37.641232"
       y2="-29.598314"
       href="#3265"
       id="linearGradient149" />
    <linearGradient
       xlink:href="#19894"
       gradientUnits="userSpaceOnUse"
       gradientTransform="matrix(0.618682, -0.132027, 0.0626273, 0.741184, 31.1202, 8.30041)"
       x1="-22.87417"
       y1="38.675991"
       x2="-4.3908315"
       y2="38.675991"
       href="#19894"
       id="linearGradient151" />
    <linearGradient
       xlink:href="#2399"
       gradientUnits="userSpaceOnUse"
       gradientTransform="matrix(0.618682, -0.132027, 0.0626273, 0.741184, 31.1202, 8.30041)"
       x1="-10.480865"
       y1="39.033951"
       x2="-23.851389"
       y2="39.142845"
       href="#2399"
       id="linearGradient153" />
    <linearGradient
       xlink:href="#19894"
       gradientUnits="userSpaceOnUse"
       gradientTransform="matrix(0.566621, 0.0298898, -0.118557, 0.656541, 36.1854, 20.0831)"
       x1="-22.87417"
       y1="38.675991"
       x2="-4.3908315"
       y2="38.675991"
       href="#19894"
       id="linearGradient155" />
    <linearGradient
       xlink:href="#2399"
       gradientUnits="userSpaceOnUse"
       gradientTransform="matrix(0.566621, 0.0298898, -0.118557, 0.656541, 36.1854, 20.0831)"
       x1="-10.480865"
       y1="39.033951"
       x2="-23.851389"
       y2="39.142845"
       href="#2399"
       id="linearGradient157" />
    <linearGradient
       xlink:href="#3300"
       gradientTransform="scale(1.00266, 0.997352)"
       x1="24.613028"
       y1="31.146202"
       x2="24.613028"
       y2="26.739624"
       gradientUnits="userSpaceOnUse"
       href="#3300"
       id="linearGradient159" />
    <linearGradient
       xlink:href="#3311"
       gradientUnits="userSpaceOnUse"
       gradientTransform="matrix(1.60344, 0, 0, 0.549396, 0.614167, 0.024498)"
       x1="17.879995"
       y1="55.362793"
       x2="11.906206"
       y2="54.863026"
       href="#3311"
       id="linearGradient161" />
    <linearGradient
       xlink:href="#3265"
       gradientUnits="userSpaceOnUse"
       gradientTransform="matrix(-0.905728, -0.0438616, 0.18951, -0.963437, 0.614167, 0.024498)"
       x1="-29.007195"
       y1="-29.799353"
       x2="-37.641232"
       y2="-29.598314"
       href="#3265"
       id="linearGradient163" />
    <radialGradient
       xlink:href="#aigrd7"
       gradientUnits="userSpaceOnUse"
       gradientTransform="matrix(0.55129, 1.26559e-16, -1.35572e-16, 0.766034, -10.487, 3.51431)"
       cx="68.137589"
       cy="29.869318"
       fx="68.137589"
       fy="29.869318"
       r="33.93409"
       href="#aigrd7"
       id="radialGradient165" />
    <linearGradient
       xlink:href="#6339"
       gradientUnits="userSpaceOnUse"
       gradientTransform="matrix(1.14049, 0, 0, 0.926002, 0.27233, -3.24717)"
       x1="16.998856"
       y1="10.061084"
       x2="32.096882"
       y2="36.726292"
       href="#6339"
       id="linearGradient167" />
    <linearGradient
       xlink:href="#3175"
       gradientUnits="userSpaceOnUse"
       gradientTransform="matrix(0.894129, 0, 0, 0.98523, 1.51598, 0.024498)"
       x1="37.940434"
       y1="16.651863"
       x2="-5.2517161"
       y2="3.8557322"
       href="#3175"
       id="linearGradient169" />
    <linearGradient
       xlink:href="#3311"
       gradientUnits="userSpaceOnUse"
       gradientTransform="matrix(1.60344, 0, 0, 0.549396, 0.614167, 0.024498)"
       x1="17.879995"
       y1="55.362793"
       x2="11.906206"
       y2="54.863026"
       href="#3311"
       id="linearGradient171" />
    <linearGradient
       xlink:href="#3265"
       gradientUnits="userSpaceOnUse"
       gradientTransform="matrix(-0.905728, -0.0438616, 0.18951, -0.963437, 0.614167, 0.024498)"
       x1="-29.007195"
       y1="-29.799353"
       x2="-37.641232"
       y2="-29.598314"
       href="#3265"
       id="linearGradient173" />
    <radialGradient
       xlink:href="#aigrd7"
       gradientUnits="userSpaceOnUse"
       gradientTransform="matrix(0.55129, 1.26559e-16, -1.35572e-16, 0.766034, -10.487, 3.51431)"
       cx="68.137589"
       cy="29.869318"
       fx="68.137589"
       fy="29.869318"
       r="33.93409"
       href="#aigrd7"
       id="radialGradient175" />
    <linearGradient
       xlink:href="#3175"
       gradientUnits="userSpaceOnUse"
       gradientTransform="matrix(0.894129, 0, 0, 0.98523, 1.51598, 0.024498)"
       x1="37.940434"
       y1="16.651863"
       x2="-5.2517161"
       y2="3.8557322"
       href="#3175"
       id="linearGradient177" />
    <linearGradient
       xlink:href="#20393"
       gradientUnits="userSpaceOnUse"
       gradientTransform="matrix(-0.6293, 0, 0, 1.58907, 50.6881, 3.80438)"
       x1="30.620375"
       y1="10.313651"
       x2="32.16608"
       y2="18.162935"
       href="#20393"
       id="linearGradient179" />
    <linearGradient
       xlink:href="#20393"
       gradientUnits="userSpaceOnUse"
       gradientTransform="matrix(0.6293, 0, 0, 1.58907, 1.41161, 3.92938)"
       x1="30.620375"
       y1="10.313651"
       x2="32.16608"
       y2="18.162935"
       href="#20393"
       id="linearGradient181" />
    <linearGradient
       xlink:href="#20428"
       gradientUnits="userSpaceOnUse"
       gradientTransform="matrix(1.98508, 0, 0, 0.503757, 1.78661, 4.55438)"
       x1="14.637301"
       y1="31.504122"
       x2="9.3648205"
       y2="32.25098"
       href="#20428"
       id="linearGradient183" />
    <linearGradient
       xlink:href="#6339"
       gradientUnits="userSpaceOnUse"
       gradientTransform="matrix(1.14049, 0, 0, 0.926002, 0.27233, -3.24717)"
       x1="16.998856"
       y1="10.061084"
       x2="32.096882"
       y2="36.726292"
       href="#6339"
       id="linearGradient185" />
    <linearGradient
       xlink:href="#3300"
       gradientUnits="userSpaceOnUse"
       gradientTransform="scale(1.00266, 0.997352)"
       x1="24.613028"
       y1="31.146202"
       x2="24.613028"
       y2="26.739624"
       href="#3300"
       id="linearGradient187" />
    <linearGradient
       xlink:href="#19894"
       gradientUnits="userSpaceOnUse"
       gradientTransform="matrix(0.566621, 0.0298898, -0.118557, 0.656541, 36.1854, 20.0831)"
       x1="-22.87417"
       y1="38.675991"
       x2="-4.3908315"
       y2="38.675991"
       href="#19894"
       id="linearGradient189" />
    <linearGradient
       xlink:href="#2399"
       gradientUnits="userSpaceOnUse"
       gradientTransform="matrix(0.566621, 0.0298898, -0.118557, 0.656541, 36.1854, 20.0831)"
       x1="-10.480865"
       y1="39.033951"
       x2="-23.851389"
       y2="39.142845"
       href="#2399"
       id="linearGradient191" />
    <linearGradient
       xlink:href="#19894"
       gradientUnits="userSpaceOnUse"
       gradientTransform="scale(1.02645, 0.974232)"
       x1="-22.87417"
       y1="38.675991"
       x2="-4.3908315"
       y2="38.675991"
       href="#19894"
       id="linearGradient193" />
    <linearGradient
       xlink:href="#2399"
       gradientUnits="userSpaceOnUse"
       gradientTransform="scale(1.02645, 0.974232)"
       x1="-10.480865"
       y1="39.033951"
       x2="-23.851389"
       y2="39.142845"
       href="#2399"
       id="linearGradient195" />
    <linearGradient
       xlink:href="#19894"
       gradientUnits="userSpaceOnUse"
       gradientTransform="scale(1.02645, 0.974232)"
       x1="-22.87417"
       y1="38.675991"
       x2="-4.3908315"
       y2="38.675991"
       href="#19894"
       id="linearGradient197" />
    <linearGradient
       xlink:href="#2399"
       gradientUnits="userSpaceOnUse"
       gradientTransform="scale(1.02645, 0.974232)"
       x1="-10.480865"
       y1="39.033951"
       x2="-23.851389"
       y2="39.142845"
       href="#2399"
       id="linearGradient199" />
    <linearGradient
       xlink:href="#19894"
       gradientUnits="userSpaceOnUse"
       gradientTransform="matrix(0.618682, -0.132027, 0.0626273, 0.741184, 31.1202, 8.30041)"
       x1="-22.87417"
       y1="38.675991"
       x2="-4.3908315"
       y2="38.675991"
       href="#19894"
       id="linearGradient201" />
    <linearGradient
       xlink:href="#2399"
       gradientUnits="userSpaceOnUse"
       gradientTransform="matrix(0.618682, -0.132027, 0.0626273, 0.741184, 31.1202, 8.30041)"
       x1="-10.480865"
       y1="39.033951"
       x2="-23.851389"
       y2="39.142845"
       href="#2399"
       id="linearGradient203" />
    <linearGradient
       xlink:href="#aigrd1"
       id="4100"
       gradientUnits="userSpaceOnUse"
       gradientTransform="matrix(1.63913,0,0,1.63913,-15.9704,-29.7936)"
       x1="23.124"
       y1="43.165"
       x2="26.4785"
       y2="43.165"
       href="#aigrd1" />
    <linearGradient
       xlink:href="#3300"
       id="4102"
       gradientUnits="userSpaceOnUse"
       gradientTransform="scale(1.00266,0.997352)"
       x1="24.613028"
       y1="31.146202"
       x2="24.613028"
       y2="26.739624"
       href="#3300" />
    <linearGradient
       xlink:href="#19894"
       id="4104"
       gradientUnits="userSpaceOnUse"
       gradientTransform="matrix(0.566621,0.0298898,-0.118557,0.656541,36.1854,20.0831)"
       x1="-22.87417"
       y1="38.675991"
       x2="-4.3908315"
       y2="38.675991"
       href="#19894" />
    <linearGradient
       xlink:href="#2399"
       id="4106"
       gradientUnits="userSpaceOnUse"
       gradientTransform="matrix(0.566621,0.0298898,-0.118557,0.656541,36.1854,20.0831)"
       x1="-10.480865"
       y1="39.033951"
       x2="-23.851389"
       y2="39.142845"
       href="#2399" />
    <linearGradient
       xlink:href="#19894"
       id="4108"
       gradientUnits="userSpaceOnUse"
       gradientTransform="scale(1.02645,0.974232)"
       x1="-22.87417"
       y1="38.675991"
       x2="-4.3908315"
       y2="38.675991"
       href="#19894" />
    <linearGradient
       xlink:href="#2399"
       id="4110"
       gradientUnits="userSpaceOnUse"
       gradientTransform="scale(1.02645,0.974232)"
       x1="-10.480865"
       y1="39.033951"
       x2="-23.851389"
       y2="39.142845"
       href="#2399" />
    <linearGradient
       xlink:href="#19894"
       id="4112"
       gradientUnits="userSpaceOnUse"
       gradientTransform="scale(1.02645,0.974232)"
       x1="-22.87417"
       y1="38.675991"
       x2="-4.3908315"
       y2="38.675991"
       href="#19894" />
    <linearGradient
       xlink:href="#2399"
       id="4114"
       gradientUnits="userSpaceOnUse"
       gradientTransform="scale(1.02645,0.974232)"
       x1="-10.480865"
       y1="39.033951"
       x2="-23.851389"
       y2="39.142845"
       href="#2399" />
    <linearGradient
       xlink:href="#19894"
       id="4116"
       gradientUnits="userSpaceOnUse"
       gradientTransform="matrix(0.618682,-0.132027,0.0626273,0.741184,31.1202,8.30041)"
       x1="-22.87417"
       y1="38.675991"
       x2="-4.3908315"
       y2="38.675991"
       href="#19894" />
    <linearGradient
       xlink:href="#2399"
       id="4118"
       gradientUnits="userSpaceOnUse"
       gradientTransform="matrix(0.618682,-0.132027,0.0626273,0.741184,31.1202,8.30041)"
       x1="-10.480865"
       y1="39.033951"
       x2="-23.851389"
       y2="39.142845"
       href="#2399" />
    <linearGradient
       xlink:href="#3311"
       id="4120"
       gradientUnits="userSpaceOnUse"
       gradientTransform="matrix(1.60344,0,0,0.549396,0.614167,0.024498)"
       x1="17.879995"
       y1="55.362793"
       x2="11.906206"
       y2="54.863026"
       href="#3311" />
    <linearGradient
       xlink:href="#3265"
       id="4122"
       gradientUnits="userSpaceOnUse"
       gradientTransform="matrix(-0.905728,-0.0438616,0.18951,-0.963437,0.614167,0.024498)"
       x1="-29.007195"
       y1="-29.799353"
       x2="-37.641232"
       y2="-29.598314"
       href="#3265" />
    <radialGradient
       xlink:href="#aigrd7"
       id="radialGradient4124"
       gradientUnits="userSpaceOnUse"
       gradientTransform="matrix(0.55129,0,0,0.766034,-10.487,3.51431)"
       cx="68.137589"
       cy="29.869318"
       fx="68.137589"
       fy="29.869318"
       r="33.93409"
       href="#aigrd7" />
    <linearGradient
       xlink:href="#3175"
       id="4126"
       gradientUnits="userSpaceOnUse"
       gradientTransform="matrix(0.894129,0,0,0.98523,1.51598,0.024498)"
       x1="37.940434"
       y1="16.651863"
       x2="-5.2517161"
       y2="3.8557322"
       href="#3175" />
    <linearGradient
       xlink:href="#20393"
       id="4128"
       gradientUnits="userSpaceOnUse"
       gradientTransform="matrix(-0.6293,0,0,1.58907,50.6881,3.80438)"
       x1="30.620375"
       y1="10.313651"
       x2="32.16608"
       y2="18.162935"
       href="#20393" />
    <linearGradient
       xlink:href="#20393"
       id="4130"
       gradientUnits="userSpaceOnUse"
       gradientTransform="matrix(0.6293,0,0,1.58907,1.41161,3.92938)"
       x1="30.620375"
       y1="10.313651"
       x2="32.16608"
       y2="18.162935"
       href="#20393" />
    <linearGradient
       xlink:href="#20428"
       id="4132"
       gradientUnits="userSpaceOnUse"
       gradientTransform="matrix(1.98508,0,0,0.503757,1.78661,4.55438)"
       x1="14.637301"
       y1="31.504122"
       x2="9.3648205"
       y2="32.25098"
       href="#20428" />
    <linearGradient
       xlink:href="#6339"
       id="4134"
       gradientUnits="userSpaceOnUse"
       gradientTransform="matrix(1.14049,0,0,0.926002,0.27233,-3.24717)"
       x1="16.998856"
       y1="10.061084"
       x2="32.096882"
       y2="36.726292"
       href="#6339" />
  </defs>
  <g
     transform="matrix(1.1184044,0,0,1.1184044,-2.8630294,-1.1597977)"
     id="g225">
    <path
       transform="matrix(1.07582,0,0,0.937493,-2.55134,3.04721)"
       d="m 21.9,38.9 0,1.5 c 0,1.4 1.3,2.7 2.8,2.7 1.5,0 2.8,-1.3 2.8,-2.7 l 0,-1.5 -5.6,0 z"
       style="fill:url(#4100);stroke:#565656"
       id="path227"
       inkscape:connector-curvature="0" />
    <g
       transform="matrix(0.989073,0,0,0.993556,-0.408739,0.00792048)"
       id="g229">
      <path
         d="m 24.5,27.7 c -3.3,0 -7,0.9 -5,2.8 -0.5,0.2 -1.2,0.6 -1.1,1.7 0,0.5 0.6,0.9 1.4,1.1 -0.9,0.7 -1.5,1.3 -1.4,2 0,0.5 0.6,0.9 1.4,1.1 -0.9,0.7 -1.5,1.4 -1.4,2 0,0.9 2.1,2 6.4,1.8 3.2,0 6,-0.6 6.2,-1.8 0.1,-0.5 -0.3,-0.9 -0.9,-1.3 0.4,-0.5 0.8,-1 0.7,-1.4 0,-0.5 -0.6,-0.9 -1.4,-1.2 0.9,-0.6 1.5,-1.3 1.4,-1.9 0,-0.6 -0.6,-0.9 -1.4,-1.1 0.9,-0.7 1.5,-1.4 1.4,-2 0,-0.7 -3.2,-1.8 -6.3,-1.8 z"
         style="fill:#aeae57;stroke:url(#4102);stroke-width:2.01752925"
         id="path231"
         inkscape:connector-curvature="0" />
      <path
         d="m 30.9,38.3 c -0.2,1.2 -3.3,1.9 -8.3,1.7 -3.1,-0.2 -3.3,-1.1 -3.1,-2.3 0.2,-1.2 3,-2 6.1,-1.9 3.2,0.2 5.5,1.3 5.3,2.5 z"
         style="fill:url(#4104);stroke:url(#4106);stroke-width:0.08906282"
         id="path233"
         inkscape:connector-curvature="0" />
      <path
         style="fill:url(#4108);stroke:url(#4110);stroke-width:0.13035245"
         d="M -3.5,27.2"
         transform="matrix(0.60274,-0.128625,0.0642837,0.760788,31.1202,14.4914)"
         cx="-13.87697"
         cy="27.228739"
         rx="10.341436"
         ry="3.2703688"
         id="path235"
         inkscape:connector-curvature="0" />
      <path
         transform="matrix(0.60274,-0.128625,0.0642837,0.760788,31.1202,11.3959)"
         d="M -3.5,27.2"
         style="fill:url(#4112);stroke:url(#4114);stroke-width:0.13035245"
         ry="3.2703688"
         rx="10.341436"
         cy="27.228739"
         cx="-13.87697"
         type="arc"
         id="path237"
         inkscape:connector-curvature="0" />
      <path
         d="m 30.7,29.6 c 0,1.4 -2.5,3 -6,3.7 -3.4,0.7 -6.3,0.2 -6.4,-1.2 -0.1,-1.3 2.2,-2.9 5.7,-3.1 3.4,-0.2 6.7,-0.1 6.7,0.6 z"
         style="fill:url(#4116);stroke:url(#4118);stroke-width:0.08906286"
         id="path239"
         inkscape:connector-curvature="0" />
      <path
         transform="matrix(0.335464,0,0,0.335464,11.7468,27.2261)"
         d="m 31,22.4 a 3.3,3.3 0 1 1 -6.5,0 3.3,3.3 0 1 1 6.5,0 z"
         style="fill:#ffffff;stroke-width:2"
         ry="3.25"
         rx="3.25"
         cy="22.375"
         cx="27.75"
         type="arc"
         id="path241"
         inkscape:connector-curvature="0" />
      <path
         d="m 19.3,33.4 c 3.4,0.5 7,-0.1 9.9,-1.9 0.8,-0.6 0.9,-1.2 1.3,-1.6 -1.4,1.1 -5,4.1 -11.2,3.5 z"
         style="fill-opacity:0.23391807;stroke-width:1px"
         id="path243"
         inkscape:connector-curvature="0" />
      <path
         style="fill:#ffffff;stroke-width:2"
         d="m 31,22.4 a 3.3,3.3 0 1 1 -6.5,0 3.3,3.3 0 1 1 6.5,0 z"
         transform="matrix(0.335464,0,0,0.335464,11.7468,30.2338)"
         cx="27.75"
         cy="22.375"
         rx="3.25"
         ry="3.25"
         id="path245"
         inkscape:connector-curvature="0" />
      <path
         d="m 19.5,39.5 c 3.4,0.5 6.9,0 9.8,-1.9 0.9,-0.5 1,-1.1 1.3,-1.6 -1.4,1.1 -5,4.2 -11.1,3.5 z"
         style="fill-opacity:0.23391807;stroke-width:1px"
         id="path247"
         inkscape:connector-curvature="0" />
      <path
         style="fill-opacity:0.23391807;stroke-width:1px"
         d="m 19.5,36.4 c 3.4,0.5 7,0 9.9,-1.9 0.8,-0.5 0.9,-1.1 1.3,-1.6 -1.5,1.1 -5.1,4.2 -11.2,3.5 z"
         id="path249"
         inkscape:connector-curvature="0" />
    </g>
    <g
       transform="translate(-0.988797,0)"
       id="g251">
      <path
         transform="matrix(0.954439,0,0,0.989869,1.43322,0.639881)"
         d="m 18.9,29.6 c 0,-0.8 1.5,-1.7 5.5,-1.7 3.7,0.1 6.1,0.9 6.1,2.2 0,1.2 -3.2,2.1 -6.6,1.9 -3.5,-0.2 -5,-1.1 -5,-2.4 z"
         style="fill:url(#4120);stroke:url(#4122);stroke-width:0.09083303"
         id="path253"
         inkscape:connector-curvature="0" />
      <path
         transform="matrix(0.954439,0,0,0.989869,1.43322,0.639881)"
         d="m 24.7,0.9 c -7.8,0 -14.2,5.9 -14.2,13.3 0,7.5 5.7,8.4 5.7,11.2 0,3.2 3.4,6.9 8.9,6.8 5.9,-0.2 8.4,-3.4 8.4,-6.8 0,-3 5.4,-3.1 5.4,-11.2 C 38.9,6.8 32.5,0.9 24.7,0.9 z"
         style="fill:url(#radialGradient4124);stroke:#616471;stroke-width:1.01595449"
         id="path255"
         inkscape:connector-curvature="0" />
      <path
         transform="matrix(0.954439,0,0,0.989869,1.43322,0.639881)"
         style="fill:none;stroke:url(#4126);stroke-width:0.94685698"
         d="m 24.7,1.9 c -7.3,0 -13.2,5.6 -13.2,12.5 0,7 5.3,7.8 5.3,10.4 0,3 3.2,6.4 8.3,6.3 5.5,-0.1 7.8,-3.1 7.8,-6.3 0,-2.8 5,-2.9 5,-10.4 C 37.9,7.5 32,1.9 24.7,1.9 z"
         id="path257"
         inkscape:connector-curvature="0" />
      <g
         transform="matrix(0.9375,0,0,0.926938,0.569221,0.25176)"
         id="g259">
        <path
           style="fill:url(#4128)"
           d="m 31.9,19.2 c 0.4,0.1 0.6,0.4 0.5,0.8 l -3.9,11.5 c -0.1,0.3 -0.4,0.5 -0.7,0.4 -0.3,-0.1 -0.5,-0.4 -0.4,-0.7 l 3.8,-11.6 c 0.1,-0.3 0.4,-0.5 0.7,-0.4 z"
           id="path261"
           inkscape:connector-curvature="0" />
        <path
           d="m 20.2,19.3 c -0.4,0.2 -0.6,0.5 -0.5,0.8 l 3.9,11.5 c 0.1,0.4 0.4,0.6 0.7,0.5 0.3,-0.1 0.5,-0.5 0.4,-0.8 L 20.9,19.8 c -0.1,-0.3 -0.4,-0.6 -0.7,-0.5 z"
           style="fill:url(#4130)"
           id="path263"
           inkscape:connector-curvature="0" />
        <path
           style="fill:#ffffff;stroke:url(#4132);stroke-width:0.21454535"
           d="m 20.3,19.3 c -0.3,0 -0.5,0.2 -0.5,0.5 -0.1,0.2 0.1,0.4 0.3,0.6 0,0 1.8,1 4.2,1.6 2.4,0.5 5.5,0.6 7.8,-1.7 0.2,-0.1 0.3,-0.4 0.2,-0.6 0,-0.2 -0.2,-0.4 -0.4,-0.4 -0.2,-0.1 -0.4,0 -0.6,0.2 -1.9,1.9 -4.5,1.9 -6.7,1.4 -2.2,-0.5 -3.9,-1.5 -3.9,-1.5 -0.2,-0.1 -0.3,-0.1 -0.4,-0.1 z"
           id="path265"
           inkscape:connector-curvature="0" />
      </g>
      <path
         style="opacity:0.5977654;fill:url(#4134);stroke-width:0.98750001"
         d="m 25,3.6 c -6.3,0 -11.3,4 -11.3,8.9 0,2 0.9,3.8 2.3,5.2 1.6,0.7 3.2,1.1 5.1,1.1 6.3,0 11.4,-4 11.4,-9 0,-1.9 -1,-3.7 -2.4,-5.2 C 28.5,4 26.9,3.6 25,3.6 z"
         transform="matrix(0.954439,0,0,0.989869,1.43322,0.639881)"
         id="path267"
         inkscape:connector-curvature="0" />
    </g>
  </g>
</svg>
