<?xml version="1.0" encoding="UTF-8" standalone="no"?>
<!-- Created with Inkscape (http://www.inkscape.org/) -->

<svg
   xmlns:dc="http://purl.org/dc/elements/1.1/"
   xmlns:cc="http://creativecommons.org/ns#"
   xmlns:rdf="http://www.w3.org/1999/02/22-rdf-syntax-ns#"
   xmlns:svg="http://www.w3.org/2000/svg"
   xmlns="http://www.w3.org/2000/svg"
   xmlns:sodipodi="http://sodipodi.sourceforge.net/DTD/sodipodi-0.dtd"
   xmlns:inkscape="http://www.inkscape.org/namespaces/inkscape"
   width="65.208099"
   height="71.688332"
   id="svg3109"
   version="1.1"
   inkscape:version="0.48.2 r9819"
   sodipodi:docname="Nouveau document 8">
  <defs
     id="defs3111" />
  <sodipodi:namedview
     id="base"
     pagecolor="#ffffff"
     bordercolor="#666666"
     borderopacity="1.0"
     inkscape:pageopacity="0.0"
     inkscape:pageshadow="2"
     inkscape:zoom="0.35"
     inkscape:cx="32.614349"
     inkscape:cy="35.826147"
     inkscape:document-units="px"
     inkscape:current-layer="layer1"
     showgrid="false"
     inkscape:showpageshadow="false"
     fit-margin-top="0"
     fit-margin-left="0"
     fit-margin-right="0"
     fit-margin-bottom="0"
     inkscape:window-width="486"
     inkscape:window-height="399"
     inkscape:window-x="66"
     inkscape:window-y="373"
     inkscape:window-maximized="0" />
  <metadata
     id="metadata3114">
    <rdf:RDF>
      <cc:Work
         rdf:about="">
        <dc:format>image/svg+xml</dc:format>
        <dc:type
           rdf:resource="http://purl.org/dc/dcmitype/StillImage" />
        <dc:title></dc:title>
      </cc:Work>
    </rdf:RDF>
  </metadata>
  <g
     inkscape:label="Calque 1"
     inkscape:groupmode="layer"
     id="layer1"
     transform="translate(-342.38565,-496.5)">
    <path
       inkscape:connector-curvature="0"
       style="fill:#545455;fill-opacity:1;fill-rule:evenodd;stroke:#545455;stroke-width:1px;stroke-linecap:butt;stroke-linejoin:miter;stroke-opacity:1"
       d="m 357.73067,497.04439 c -1.81555,0.13697 -3.66121,0.0251 -5.46875,0.375 -1.50782,0.60399 -2.35183,0.9869 -3.65625,2.03125 -1.36613,1.60811 -2.43969,2.95676 -3.0625,5.65625 -0.86936,16.12254 -1.75566,32.22119 -2.62501,48.34375 -0.17108,2.4841 0.61259,2.94617 1.28126,3.40625 1.26181,0.65845 2.38685,0.39404 3.53125,0.65625 0.0615,2.21396 0.12599,4.41103 0.1875,6.625 0.0114,1.1768 -0.11706,2.57628 1.21875,3.09375 1.93473,0.33391 3.44594,0.13281 5.96875,0.1875 2.04209,-0.0254 2.80575,0.33509 3.125,-0.90625 0,-3.00615 -10e-6,-5.99385 0,-9 11.2934,0 22.58159,0 33.875,0 0.1338,2.40845 0.0849,4.90404 0.21875,7.3125 -0.32079,1.43937 0.42069,2.70999 1.71875,2.75 4.50373,0.0376 7.09463,0.28833 7.71875,-0.15625 0.93945,-0.4837 0.49423,-7.78478 0.625,-10.09375 4.51699,-0.2232 -0.33672,2.2e-4 2.96875,-0.0937 2.10214,-0.21493 1.47652,-0.85037 1.75,-2.5 -0.9711,-16.18495 -1.5914,-32.2838 -2.5625,-48.46875 -0.32935,-2.34481 -1.39183,-4.66764 -3.15625,-6.625 -1.74129,-2.32635 -3.82179,-2.25056 -6.125,-2.59375 -12.5121,0 -25.01916,-1e-5 -37.53125,0 z m 34.5625,4.28125 c 1.65171,0.47316 1.8393,3.06248 0.9375,4.875 -0.72619,1.05751 -2.38797,0.6013 -5.125,0.71875 -9.83613,-0.004 -20.00762,0.006 -29.84375,0 -1.51803,-0.31143 -2.3029,-1.64646 -2,-3.59375 0.1685,-0.77128 0.48663,-1.5034 1.5625,-1.8125 11.49012,-0.0574 22.97863,-0.13005 34.46875,-0.1875 z m -36.09375,8.875 c 13.34504,0.13203 26.68778,0.20294 40.03125,0.375 2.47401,0.23892 3.92595,2.71484 3.8125,5.03125 0.60828,5.77861 1.20422,11.56514 1.8125,17.34375 0.072,2.18656 -1.97744,5.12179 -4.4375,6.15625 -2.25873,0.23243 -4.56589,-0.1044 -6.84375,0.0312 -12.67262,-0.0484 -25.32739,-0.10789 -38,-0.15625 -2.95097,-0.8782 -4.55333,-4.20363 -4,-7.125 0.49726,-6.3209 0.90446,-12.65826 1.46875,-18.96875 0.71928,-2.6743 3.93185,-2.66875 6.15625,-2.6875 z m -1.8125,32.34375 c 2.76,0 5,2.24001 5,5 -10e-6,2.75999 -2.24,5 -5,5 -2.76001,0 -5,-2.24001 -5,-5 -10e-6,-2.75999 2.23999,-5 5,-5 z m 43.4375,0 c 2.76,-10e-6 5,2.24 5,5 0,2.75999 -2.24,5 -5,5 -2.76,-10e-6 -5,-2.24 -5,-5 0,-2.76001 2.24,-5 5,-5 z"
       id="path3433"
       inkscape:export-filename="/home/popeye/Bureau/bus.png"
       inkscape:export-xdpi="160.81393"
       inkscape:export-ydpi="160.81393" />
  </g>
</svg>
