<?xml version="1.0" encoding="UTF-8" standalone="no"?>
<!-- Generator: Adobe Illustrator 13.0.2, SVG Export Plug-In . SVG Version: 6.00 Build 14948)  -->

<svg
   xmlns:dc="http://purl.org/dc/elements/1.1/"
   xmlns:cc="http://creativecommons.org/ns#"
   xmlns:rdf="http://www.w3.org/1999/02/22-rdf-syntax-ns#"
   xmlns:svg="http://www.w3.org/2000/svg"
   xmlns="http://www.w3.org/2000/svg"
   xmlns:sodipodi="http://sodipodi.sourceforge.net/DTD/sodipodi-0.dtd"
   xmlns:inkscape="http://www.inkscape.org/namespaces/inkscape"
   version="1.1"
   id="Layer_1"
   x="0px"
   y="0px"
   width="320"
   height="320"
   viewBox="-0.258 -0.548 320.00001 320"
   xml:space="preserve"
   inkscape:version="0.48.4 r9939"
   sodipodi:docname="C:\Users\tai\Downloads\cable_car_icon.svg"><metadata
   id="metadata21"><rdf:RDF><cc:Work
       rdf:about=""><dc:format>image/svg+xml</dc:format><dc:type
         rdf:resource="http://purl.org/dc/dcmitype/StillImage" /><dc:title></dc:title></cc:Work></rdf:RDF></metadata><defs
   id="defs19">
	
	
	
	
	
	
</defs><sodipodi:namedview
   pagecolor="#ffffff"
   bordercolor="#666666"
   borderopacity="1"
   objecttolerance="10"
   gridtolerance="10"
   guidetolerance="10"
   inkscape:pageopacity="0"
   inkscape:pageshadow="2"
   inkscape:window-width="1089"
   inkscape:window-height="690"
   id="namedview17"
   showgrid="false"
   inkscape:zoom="0.95516395"
   inkscape:cx="113.47936"
   inkscape:cy="181.94268"
   inkscape:window-x="569"
   inkscape:window-y="207"
   inkscape:window-maximized="0"
   inkscape:current-layer="Layer_1" />
<path
   style="fill:#545455;fill-opacity:1"
   d="M 342.34375 -4.4375 L -10.46875 99.625 L -10.46875 115.15625 L 342.34375 11.0625 L 342.34375 -4.4375 z "
   transform="translate(-0.258,-0.548005)"
   id="polygon9" /><path
   inkscape:connector-curvature="0"
   id="path13"
   d="m 276.63649,115.8614 -108.81561,0 -4e-4,-62.509997 -15.20383,6.321297 0,56.19325 -109.803981,0 c -8.607894,0 -15.613507,7.31231 -15.613507,16.29706 l 0,170.95557 c 0,8.98475 7.005613,16.33343 15.613507,16.33343 l 233.823821,0 c 8.60791,0 15.64836,-7.34868 15.64836,-16.33343 l 0,-170.96012 c 0,-8.9802 -7.0448,-16.29706 -15.64836,-16.29706 z m -165.99693,92.84691 c 0,4.86277 -3.7401,8.87567 -8.40324,8.87567 l -51.464505,0 c -4.658799,0 -8.503397,-4.0129 -8.503397,-8.87567 l 0,-53.57672 c 0,-4.86275 3.844598,-8.87567 8.503397,-8.87567 l 51.464505,0 c 4.65878,0 8.40324,4.01292 8.40324,8.87567 z m 83.64503,-0.6726 c 0,4.89912 -3.80976,8.77114 -8.50339,8.77114 l -51.32952,0 c -4.69363,0 -8.50338,-3.87202 -8.50338,-8.77114 l 0,-53.6858 c 0,-4.86277 3.80975,-8.73478 8.50338,-8.73478 l 51.32952,0 c 4.69363,0 8.50339,3.87201 8.50339,8.73478 z m 82.99631,0 c 0,4.89912 -3.70962,8.77114 -8.40326,8.77114 l -51.42967,0 c -4.65879,0 -8.50339,-3.87202 -8.50339,-8.77114 l 0,-53.6858 c 0,-4.86277 3.8446,-8.73478 8.50339,-8.73478 l 51.42967,0 c 4.69364,0 8.40326,3.87201 8.40326,8.73478 z"
   style="fill:#545455;fill-opacity:1"
   sodipodi:nodetypes="sccccsssssssssssssssssssssssssssssssssss" />
</svg>