<?xml version="1.0" encoding="UTF-8" standalone="no"?>
<!-- Created with Inkscape (http://www.inkscape.org/) -->

<svg
   xmlns:dc="http://purl.org/dc/elements/1.1/"
   xmlns:cc="http://creativecommons.org/ns#"
   xmlns:rdf="http://www.w3.org/1999/02/22-rdf-syntax-ns#"
   xmlns:svg="http://www.w3.org/2000/svg"
   xmlns="http://www.w3.org/2000/svg"
   xmlns:sodipodi="http://sodipodi.sourceforge.net/DTD/sodipodi-0.dtd"
   xmlns:inkscape="http://www.inkscape.org/namespaces/inkscape"
   width="120"
   height="42"
   id="svg2759"
   sodipodi:version="0.32"
   inkscape:version="0.48.2 r9819"
   version="1.0"
   sodipodi:docname="copyright.svg"
   inkscape:output_extension="org.inkscape.output.svg.inkscape"
   inkscape:export-filename="C:\Users\meije\Documents\camptocamp.org\web\static\images\copyright2x.png"
   inkscape:export-xdpi="132.85713"
   inkscape:export-ydpi="132.85713">
  <defs
     id="defs2761" />
  <sodipodi:namedview
     id="base"
     pagecolor="#ffffff"
     bordercolor="#8b8b8b"
     borderopacity="1"
     gridtolerance="10000"
     guidetolerance="10"
     objecttolerance="10"
     inkscape:pageopacity="0.0"
     inkscape:pageshadow="2"
     inkscape:zoom="5.6568542"
     inkscape:cx="40.006129"
     inkscape:cy="3.1898217"
     inkscape:document-units="px"
     inkscape:current-layer="layer1"
     width="120px"
     height="42px"
     inkscape:showpageshadow="false"
     inkscape:window-width="1198"
     inkscape:window-height="624"
     inkscape:window-x="1659"
     inkscape:window-y="224"
     showgrid="false"
     inkscape:window-maximized="0"
     fit-margin-top="0"
     fit-margin-left="0"
     fit-margin-right="0"
     fit-margin-bottom="0" />
  <metadata
     id="metadata2764">
    <rdf:RDF>
      <cc:Work
         rdf:about="">
        <dc:format>image/svg+xml</dc:format>
        <dc:type
           rdf:resource="http://purl.org/dc/dcmitype/StillImage" />
        <dc:title></dc:title>
      </cc:Work>
    </rdf:RDF>
  </metadata>
  <g
     inkscape:label="Layer 1"
     inkscape:groupmode="layer"
     id="layer1"
     transform="translate(-9.7349798e-7,-1.702416e-6)">
    <path
       inkscape:connector-curvature="0"
       style="fill:#aab2ab"
       d="M 3.4078539,0.47646618 116.76242,0.67830031 c 1.58383,0 2.99881,-0.23532079 2.99881,3.16004759 l -0.13878,37.3290691 -119.07511437,0 0,-37.4678351 c 0,-1.6739056 0.1620757,-3.22311572 2.86051827,-3.22311572 z"
       nodetypes="ccccccc"
       id="path3817_2_" />
    <path
       id="path5906_2_"
       cx="296.35416"
       ry="22.939548"
       cy="264.3577"
       type="arc"
       rx="22.939548"
       d="m 34.522229,19.575504 c 0.0052,7.529196 -6.096613,13.636272 -13.626652,13.641589 -7.530013,0.0043 -13.6387529,-6.09593 -13.6431164,-13.625073 0,-0.0058 0,-0.0107 0,-0.01652 -0.00434,-7.53015 6.0965864,-13.6372254 13.6266254,-13.6416144 7.530994,-0.00486 13.63878,6.0959554 13.643143,13.6250994 0,0.0049 0,0.01069 0,0.01651 z"
       style="fill:#ffffff"
       inkscape:connector-curvature="0" />
    <path
       inkscape:connector-curvature="0"
       d="m 31.971295,8.4704702 c 3.023565,3.0237038 4.535587,6.7257018 4.535587,11.1050228 0,4.379806 -1.485841,8.042034 -4.457469,10.987603 -3.153603,3.102325 -6.880765,4.652984 -11.181513,4.652984 -4.248776,0 -7.911415,-1.537553 -10.9868734,-4.614151 -3.075988,-3.075617 -4.613713,-6.750925 -4.613713,-11.026436 0,-4.275034 1.537725,-7.976546 4.613713,-11.1050228 C 12.878385,5.4462892 16.54098,3.9349144 20.8679,3.9349144 c 4.379351,0 8.07983,1.5113748 11.103395,4.5355558 z M 11.916631,10.504381 c -2.5562818,2.581697 -3.8339327,5.605878 -3.8339327,9.07498 0,3.468149 1.2650462,6.466603 3.7946187,8.995467 2.530066,2.529757 5.541964,3.794644 9.036708,3.794644 3.494717,0 6.532371,-1.277508 9.114357,-3.833027 2.451446,-2.373053 3.677654,-5.35795 3.677654,-8.957084 0,-3.571967 -1.246117,-6.603408 -3.736878,-9.09441 -2.490257,-2.490004 -5.50847,-3.735453 -9.055133,-3.735453 -3.546629,0 -6.546425,1.251807 -8.997394,3.754883 z"
       id="path5708_2_"
       sodipodi:nodetypes="cscscscsccscscscsc" />
    <path
       inkscape:connector-curvature="0"
       id="path294"
       d="m 117.75332,1.702416e-6 -115.5066392,0 C 1.0078536,1.702416e-6 9.7349798e-7,1.0082284 9.7349798e-7,2.2469168 l 0,39.2455792 c 0,0.279956 0.22709876650202,0.507507 0.50707660650202,0.507507 l 118.98536242,0 c 0.27999,0 0.50756,-0.227551 0.50756,-0.507507 L 120,2.2469267 C 120,1.0082284 118.99215,1.702416e-6 117.75332,1.702416e-6 z M 2.2466808,1.0150251 l 115.5066392,0 c 0.67934,0 1.23156,0.5526292 1.23156,1.2319016 0,0 0,15.8186503 0,27.2448843 l -82.557092,0 c -3.025983,5.470518 -8.855709,9.185133 -15.546258,9.185133 -6.693461,0 -12.5217365,-3.711217 -15.5462583,-9.185133 l -4.3210976,0 c 0,-11.426224 0,-27.2448843 0,-27.2448843 -1.99e-5,-0.6792724 0.5531681,-1.2319016 1.2325067,-1.2319016 z" />
    <text
       xml:space="preserve"
       style="font-size:40px;font-style:normal;font-weight:normal;line-height:125%;letter-spacing:0px;word-spacing:0px;fill:#ffffff;fill-opacity:1;stroke:none;font-family:Sans"
       x="47.719299"
       y="39.348351"
       id="text3040"
       sodipodi:linespacing="125%"><tspan
         sodipodi:role="line"
         id="tspan3042"
         x="47.719299"
         y="39.348351"
         style="font-size:9px;font-style:normal;font-variant:normal;font-weight:bold;font-stretch:normal;fill:#ffffff;fill-opacity:1;font-family:DejaVu Sans;-inkscape-font-specification:DejaVu Sans Bold">COPYRIGHT</tspan></text>
    <g
       id="g3006"
       transform="matrix(0.362375,0,0,0.362375,65.407696,4.432391)">
	<circle
   id="circle3008"
   r="29.704"
   cy="28.886999"
   cx="37.945999"
   sodipodi:cx="37.945999"
   sodipodi:cy="28.886999"
   sodipodi:rx="29.704"
   sodipodi:ry="29.704"
   style="fill:#ffffff"
   d="M 67.65,28.886999 C 67.65,45.292066 54.351066,58.591 37.945999,58.591 21.540933,58.591 8.2419987,45.292066 8.2419987,28.886999 8.2419987,12.481933 21.540933,-0.81700134 37.945999,-0.81700134 54.351066,-0.81700134 67.65,12.481933 67.65,28.886999 z" />

	<g
   id="g3010">
		<path
   id="path3012"
   d="m 37.443,-3.5 c 8.951,0 16.531,3.105 22.742,9.315 6.208,6.172 9.315,13.733 9.315,22.685 0,8.954 -3.049,16.457 -9.145,22.514 C 53.918,57.338 46.279,60.5 37.443,60.5 28.794,60.5 21.29,57.357 14.929,51.071 8.644,44.786 5.5,37.264 5.5,28.501 5.5,19.778 8.644,12.216 14.929,5.816 21.138,-0.395 28.643,-3.5 37.443,-3.5 z m 0.114,5.772 c -7.276,0 -13.428,2.572 -18.457,7.715 -5.22,5.296 -7.829,11.467 -7.829,18.513 0,7.125 2.59,13.257 7.77,18.4 5.181,5.182 11.352,7.771 18.514,7.771 7.123,0 13.334,-2.609 18.629,-7.828 5.029,-4.876 7.543,-10.99 7.543,-18.343 0,-7.313 -2.553,-13.485 -7.656,-18.513 C 51.004,4.842 44.832,2.272 37.557,2.272 z m 13.029,17.085 c 0.494,0 0.914,0.171 1.256,0.513 0.344,0.343 0.516,0.763 0.516,1.258 V 44.67 c 0,0.495 -0.172,0.914 -0.516,1.256 -0.342,0.343 -0.762,0.516 -1.256,0.516 H 33.157 c -0.496,0 -0.914,-0.171 -1.258,-0.516 -0.344,-0.343 -0.514,-0.761 -0.514,-1.256 v -6.973 h -6.971 c -0.497,0 -0.915,-0.17 -1.258,-0.513 -0.342,-0.342 -0.514,-0.761 -0.514,-1.258 v -23.54 c 0,-0.458 0.151,-0.848 0.458,-1.171 0.303,-0.323 0.685,-0.523 1.142,-0.6 h 0.171 17.428 c 0.494,0 0.914,0.171 1.258,0.514 0.342,0.342 0.514,0.763 0.514,1.258 v 6.972 h 6.973 z M 26.128,34.214 h 5.257 V 21.128 c 0,-0.457 0.151,-0.847 0.458,-1.171 0.304,-0.322 0.667,-0.523 1.085,-0.6 h 0.228 6.972 v -5.2 h -14 V 34.214 z M 48.871,22.842 h -14 V 42.9 h 14 V 22.842 z"
   inkscape:connector-curvature="0" />

	</g>

</g>
    <text
       xml:space="preserve"
       style="font-size:40px;font-style:normal;font-variant:normal;font-weight:normal;font-stretch:normal;line-height:125%;letter-spacing:0px;word-spacing:0px;fill:#000000;fill-opacity:1;stroke:none;font-family:Raavi;-inkscape-font-specification:Raavi"
       x="10.831433"
       y="29.596981"
       id="text3028"
       sodipodi:linespacing="125%"><tspan
         sodipodi:role="line"
         id="tspan3030"
         x="10.831433"
         y="29.596981"
         style="font-size:28px;font-style:normal;font-variant:normal;font-weight:bold;font-stretch:normal;font-family:Arial;-inkscape-font-specification:Arial Bold">C</tspan></text>
  </g>
</svg>
