<?xml version="1.0" encoding="UTF-8" standalone="no"?>
<!-- Created with Inkscape (http://www.inkscape.org/) -->

<svg
   xmlns:dc="http://purl.org/dc/elements/1.1/"
   xmlns:cc="http://creativecommons.org/ns#"
   xmlns:rdf="http://www.w3.org/1999/02/22-rdf-syntax-ns#"
   xmlns:svg="http://www.w3.org/2000/svg"
   xmlns="http://www.w3.org/2000/svg"
   xmlns:sodipodi="http://sodipodi.sourceforge.net/DTD/sodipodi-0.dtd"
   xmlns:inkscape="http://www.inkscape.org/namespaces/inkscape"
   width="80"
   height="15"
   id="svg2279"
   sodipodi:version="0.32"
   inkscape:version="0.48.2 r9819"
   version="1.0"
   sodipodi:docname="copyright.svg"
   inkscape:output_extension="org.inkscape.output.svg.inkscape">
  <defs
     id="defs2281">
    <clipPath
       clipPathUnits="userSpaceOnUse"
       id="clipPath3442">
      <rect
         style="fill:#000000;fill-opacity:1;stroke:none"
         id="rect3444"
         width="20.614058"
         height="12.483703"
         x="171.99832"
         y="239.1203" />
    </clipPath>
  </defs>
  <sodipodi:namedview
     id="base"
     pagecolor="#ffffff"
     bordercolor="#999999"
     borderopacity="1"
     gridtolerance="10000"
     guidetolerance="10"
     objecttolerance="10"
     inkscape:pageopacity="0.0"
     inkscape:pageshadow="2"
     inkscape:zoom="7.43346"
     inkscape:cx="40.438334"
     inkscape:cy="-12.43"
     inkscape:document-units="px"
     inkscape:current-layer="layer1"
     width="80px"
     height="15px"
     showborder="true"
     inkscape:showpageshadow="false"
     inkscape:window-width="1920"
     inkscape:window-height="1018"
     inkscape:window-x="1272"
     inkscape:window-y="-8"
     showgrid="false"
     inkscape:window-maximized="1"
     fit-margin-top="0"
     fit-margin-left="0"
     fit-margin-right="0"
     fit-margin-bottom="0" />
  <metadata
     id="metadata2284">
    <rdf:RDF>
      <cc:Work
         rdf:about="">
        <dc:format>image/svg+xml</dc:format>
        <dc:type
           rdf:resource="http://purl.org/dc/dcmitype/StillImage" />
        <dc:title />
      </cc:Work>
    </rdf:RDF>
  </metadata>
  <g
     inkscape:label="Layer 1"
     inkscape:groupmode="layer"
     id="layer1">
    <rect
       y="0.49986172"
       x="0.49373415"
       height="14.000277"
       width="79.000153"
       id="rect3767"
       style="fill:#ffffff;fill-opacity:1;stroke:#000000;stroke-width:0.99999994;stroke-miterlimit:4;stroke-opacity:1;stroke-dasharray:none" />
    <rect
       style="fill:#000000;fill-opacity:1;stroke:none"
       id="rect3769"
       width="76.037643"
       height="11.200222"
       x="1.974987"
       y="1.933249" />
    <path
       inkscape:connector-curvature="0"
       sodipodi:nodetypes="cccscc"
       id="path3771"
       d="m 1.9749475,1.9332466 0,11.2002214 20.0806335,0 c 1.292295,-1.633655 2.164387,-3.5322511 2.164387,-5.6001106 0,-2.0540647 -0.857082,-3.9734187 -2.133527,-5.6001108 l -20.1114935,0 z"
       style="fill:#abb1aa;fill-opacity:1;stroke:none" />
    <g
       clip-path="url(#clipPath3442)"
       transform="matrix(0.94923946,0,0,0.8971875,-161.12659,-212.6025)"
       id="g3773">
      <path
         inkscape:connector-curvature="0"
         style="fill:#ffffff"
         d="m 190.06417,245.36206 c 0.002,3.89199 -3.15091,7.04866 -7.04264,7.05117 -3.89174,0.002 -7.04891,-3.15067 -7.05117,-7.04263 0,-0.003 0,-0.006 0,-0.009 -0.002,-3.89199 3.1509,-7.04866 7.04264,-7.05093 3.89224,-0.002 7.04891,3.15068 7.05117,7.04267 0,0.002 0,0.005 0,0.008 z"
         rx="22.939548"
         type="arc"
         cy="264.3577"
         ry="22.939548"
         cx="296.35416"
         id="path3775" />
      <path
         inkscape:connector-curvature="0"
         id="path3777"
         d="m 188.74576,239.62226 c 1.56267,1.56266 2.34412,3.47643 2.34412,5.7398 0,2.26386 -0.76791,4.15707 -2.30373,5.67959 -1.62988,1.60356 -3.5562,2.40507 -5.77893,2.40507 -2.1959,0 -4.08885,-0.795 -5.67835,-2.38498 -1.58975,-1.58976 -2.38451,-3.48948 -2.38451,-5.69968 0,-2.20971 0.79476,-4.12298 2.38451,-5.7398 1.54912,-1.56316 3.44207,-2.34462 5.67835,-2.34462 2.26338,0 4.1759,0.78145 5.73854,2.34462 z m -10.36483,1.05129 c -1.32115,1.33445 -1.98148,2.89761 -1.98148,4.69074 0,1.79265 0.65381,3.34253 1.96117,4.64964 1.3076,1.3076 2.86425,1.96116 4.67043,1.96116 1.80619,0 3.37611,-0.66007 4.71056,-1.98097 1.26699,-1.22687 1.90073,-2.76945 1.90073,-4.62983 0,-1.8463 -0.64403,-3.41345 -1.93133,-4.70075 -1.28705,-1.28705 -2.84695,-1.93084 -4.67996,-1.93084 -1.83301,1e-5 -3.38338,0.64705 -4.65012,1.94085 z"
         sodipodi:nodetypes="cscscscsccscscsssc" />
    </g>
    <text
       xml:space="preserve"
       style="font-size:40px;font-style:normal;font-weight:normal;line-height:125%;letter-spacing:0px;word-spacing:0px;fill:#ffffff;fill-opacity:1;stroke:none;font-family:Sans"
       x="24.987513"
       y="10.412109"
       id="text3771"
       sodipodi:linespacing="125%"><tspan
         sodipodi:role="line"
         id="tspan3773"
         x="24.987513"
         y="10.412109"
         style="font-size:8px;font-style:normal;font-variant:normal;font-weight:bold;font-stretch:normal;fill:#ffffff;fill-opacity:1;font-family:DejaVu Sans;-inkscape-font-specification:DejaVu Sans Bold">COPYRIGHT</tspan></text>
    <text
       xml:space="preserve"
       style="font-size:40px;font-style:normal;font-weight:normal;line-height:125%;letter-spacing:0px;word-spacing:0px;fill:#000000;fill-opacity:1;stroke:none;font-family:Sans"
       x="8.2909117"
       y="11.828278"
       id="text3804"
       sodipodi:linespacing="125%"><tspan
         sodipodi:role="line"
         id="tspan3806"
         x="8.2909117"
         y="11.828278"
         style="font-size:12px;font-style:normal;font-variant:normal;font-weight:bold;font-stretch:normal;font-family:Arial;-inkscape-font-specification:Arial Bold">C</tspan></text>
  </g>
</svg>
