<?xml version="1.0" encoding="UTF-8" standalone="no"?>
<!-- Created with Inkscape (http://www.inkscape.org/) -->

<svg
   xmlns:dc="http://purl.org/dc/elements/1.1/"
   xmlns:cc="http://creativecommons.org/ns#"
   xmlns:rdf="http://www.w3.org/1999/02/22-rdf-syntax-ns#"
   xmlns:svg="http://www.w3.org/2000/svg"
   xmlns="http://www.w3.org/2000/svg"
   xmlns:sodipodi="http://sodipodi.sourceforge.net/DTD/sodipodi-0.dtd"
   xmlns:inkscape="http://www.inkscape.org/namespaces/inkscape"
   width="201.002"
   height="417.05743"
   id="svg3026"
   version="1.1"
   inkscape:version="0.48.2 r9819"
   sodipodi:docname="Nouveau document 2">
  <defs
     id="defs3028" />
  <sodipodi:namedview
     id="base"
     pagecolor="#ffffff"
     bordercolor="#666666"
     borderopacity="1.0"
     inkscape:pageopacity="0.0"
     inkscape:pageshadow="2"
     inkscape:zoom="0.35"
     inkscape:cx="100.4952"
     inkscape:cy="208.54993"
     inkscape:document-units="px"
     inkscape:current-layer="layer1"
     showgrid="false"
     fit-margin-top="0"
     fit-margin-left="0"
     fit-margin-right="0"
     fit-margin-bottom="0"
     inkscape:window-width="486"
     inkscape:window-height="399"
     inkscape:window-x="66"
     inkscape:window-y="373"
     inkscape:window-maximized="0" />
  <metadata
     id="metadata3031">
    <rdf:RDF>
      <cc:Work
         rdf:about="">
        <dc:format>image/svg+xml</dc:format>
        <dc:type
           rdf:resource="http://purl.org/dc/dcmitype/StillImage" />
        <dc:title></dc:title>
      </cc:Work>
    </rdf:RDF>
  </metadata>
  <g
     inkscape:label="Calque 1"
     inkscape:groupmode="layer"
     id="layer1"
     transform="translate(-274.5048,-323.85469)">
    <g
       id="g3269"
       style="fill:#c8c8c8;fill-opacity:1;stroke:#000000;stroke-width:8;stroke-miterlimit:4;stroke-opacity:1;stroke-dasharray:none"
       transform="translate(24.5625,-37.035522)">
      <g
         id="g3181"
         style="fill:#ffffff;fill-opacity:1;stroke:#000000;stroke-opacity:1"
         inkscape:export-filename="/home/bbesson/Desktop/picto/sac0.png"
         inkscape:export-xdpi="3.4531648"
         inkscape:export-ydpi="3.4531648">
        <path
           inkscape:connector-curvature="0"
           transform="translate(100,-0.8185756)"
           sodipodi:nodetypes="ccccccccccccccccccccccc"
           id="rect3297"
           d="m 289.71875,461.375 c 1.45279,0.83876 4.53125,17.88303 4.53125,9.96875 0,-7.91428 6.36696,-14.28125 14.28125,-14.28125 l 12.9375,0 c 7.91429,0 14.28125,6.36696 14.28125,14.28125 l 0,110.4375 c 2e-5,7.91426 -6.36696,14.28125 -14.28125,14.28125 l -12.9375,0 -11.75,1.5625 c -2.22043,-0.67196 1.57699,9.19434 3.875,17.34375 l 46.28125,145.5625 c -3.64811,13.61494 -21.75378,17.96494 -29,10.71875 l -51.59375,-131.28125 -1,0 -51.5625,131.28125 c -7.34271,7.34271 -29,2.22455 -29,-10.71875 l 46.28125,-145.5625 0,-100 -65,34.28125 -12.125,-20.71875 L 237.5,461.375 c 1.87021,-1.07977 14.18358,-1.49775 26.40625,-1.4375 12.22267,0.0602 24.35971,0.59874 25.8125,1.4375 z"
           style="fill:#ffffff;fill-opacity:1;fill-rule:nonzero;stroke:#000000;stroke-width:8;stroke-linejoin:round;stroke-miterlimit:4;stroke-opacity:1;stroke-dasharray:none;stroke-dashoffset:0" />
        <path
           sodipodi:type="arc"
           style="fill:#ffffff;fill-opacity:1;fill-rule:nonzero;stroke:#000000;stroke-width:7.53098822;stroke-linejoin:miter;stroke-miterlimit:4;stroke-opacity:1;stroke-dasharray:none;stroke-dashoffset:0"
           id="path2470"
           sodipodi:cx="393.92856"
           sodipodi:cy="434.50504"
           sodipodi:rx="39.642857"
           sodipodi:ry="39.642857"
           d="m 433.57141,434.50504 c 0,21.89414 -17.74871,39.64285 -39.64285,39.64285 -21.89415,0 -39.64286,-17.74871 -39.64286,-39.64285 0,-21.89415 17.74871,-39.64286 39.64286,-39.64286 21.89414,0 39.64285,17.74871 39.64285,39.64286 z"
           transform="matrix(1.0622776,0,0,1.0622776,-52.602109,-54.559923)" />
      </g>
    </g>
  </g>
</svg>
