<?xml version="1.0" encoding="UTF-8" standalone="no"?>
<!-- Created with Inkscape (http://www.inkscape.org/) -->

<svg
   xmlns:dc="http://purl.org/dc/elements/1.1/"
   xmlns:cc="http://creativecommons.org/ns#"
   xmlns:rdf="http://www.w3.org/1999/02/22-rdf-syntax-ns#"
   xmlns:svg="http://www.w3.org/2000/svg"
   xmlns="http://www.w3.org/2000/svg"
   xmlns:sodipodi="http://sodipodi.sourceforge.net/DTD/sodipodi-0.dtd"
   xmlns:inkscape="http://www.inkscape.org/namespaces/inkscape"
   width="311.05356"
   height="417.06351"
   id="svg3143"
   version="1.1"
   inkscape:version="0.48.2 r9819"
   sodipodi:docname="Nouveau document 8">
  <defs
     id="defs3145" />
  <sodipodi:namedview
     id="base"
     pagecolor="#ffffff"
     bordercolor="#666666"
     borderopacity="1.0"
     inkscape:pageopacity="0.0"
     inkscape:pageshadow="2"
     inkscape:zoom="0.35"
     inkscape:cx="156.04241"
     inkscape:cy="208.55296"
     inkscape:document-units="px"
     inkscape:current-layer="layer1"
     showgrid="false"
     fit-margin-top="0"
     fit-margin-left="0"
     fit-margin-right="0"
     fit-margin-bottom="0"
     inkscape:window-width="486"
     inkscape:window-height="399"
     inkscape:window-x="66"
     inkscape:window-y="373"
     inkscape:window-maximized="0" />
  <metadata
     id="metadata3148">
    <rdf:RDF>
      <cc:Work
         rdf:about="">
        <dc:format>image/svg+xml</dc:format>
        <dc:type
           rdf:resource="http://purl.org/dc/dcmitype/StillImage" />
        <dc:title></dc:title>
      </cc:Work>
    </rdf:RDF>
  </metadata>
  <g
     inkscape:label="Calque 1"
     inkscape:groupmode="layer"
     id="layer1"
     transform="translate(-218.95759,-323.85164)">
    <g
       id="g3319"
       inkscape:export-filename="/home/bbesson/Desktop/sac4.png"
       inkscape:export-xdpi="3.4531145"
       inkscape:export-ydpi="3.4531145"
       style="fill:#c8c8c8;fill-opacity:1;stroke:#000000;stroke-width:8;stroke-miterlimit:4;stroke-opacity:1;stroke-dasharray:none"
       transform="translate(-29.79241,-37.038567)">
      <rect
         rx="14.285714"
         ry="14.285714"
         y="456.24527"
         x="394.24692"
         height="139.01286"
         width="41.50621"
         id="rect2433"
         style="fill:#c8c8c8;fill-opacity:1;fill-rule:nonzero;stroke:#000000;stroke-width:8;stroke-linejoin:round;stroke-miterlimit:4;stroke-opacity:1;stroke-dasharray:none;stroke-dashoffset:0" />
      <g
         style="fill:#c8c8c8;fill-opacity:1;stroke:#000000;stroke-width:8;stroke-miterlimit:4;stroke-opacity:1;stroke-dasharray:none"
         id="g2435">
        <path
           sodipodi:type="arc"
           style="fill:#c8c8c8;fill-opacity:1;fill-rule:nonzero;stroke:#000000;stroke-width:7.53098822;stroke-linejoin:miter;stroke-miterlimit:4;stroke-opacity:1;stroke-dasharray:none;stroke-dashoffset:0"
           id="path2437"
           sodipodi:cx="393.92856"
           sodipodi:cy="434.50504"
           sodipodi:rx="39.642857"
           sodipodi:ry="39.642857"
           d="m 433.57141,434.50504 c 0,21.89414 -17.74871,39.64285 -39.64285,39.64285 -21.89415,0 -39.64286,-17.74871 -39.64286,-39.64285 0,-21.89415 17.74871,-39.64286 39.64286,-39.64286 21.89414,0 39.64285,17.74871 39.64285,39.64286 z"
           transform="matrix(1.0622776,0,0,1.0622776,-52.602109,-54.559923)" />
        <path
           inkscape:connector-curvature="0"
           style="fill:#c8c8c8;fill-opacity:1;fill-rule:evenodd;stroke:#000000;stroke-width:8;stroke-linecap:butt;stroke-linejoin:miter;stroke-miterlimit:4;stroke-opacity:1;stroke-dasharray:none"
           d="m 365.34375,639.15625 1,0 51.59375,131.28125 c 7.24622,7.24622 25.35189,2.89619 29,-10.71875 l -46.28125,-145.5625 c -2.29801,-8.14938 -1.09484,-15.15587 -3.87441,-17.34105 -1.15579,-0.92249 -6.78933,-6.18464 -7.64082,-10.43958 l 0.57265,-125.81312 c -2.90556,-1.67753 -48.47325,-2.15953 -52.21367,0 l -83.5625,67.15625 12.125,20.71875 65,-34.28125 0,100 -46.28125,145.5625 c 0,12.94333 21.65729,18.06146 29,10.71875 l 51.5625,-131.28125 z"
           id="path3242"
           sodipodi:nodetypes="cccccccccccccccc" />
      </g>
    </g>
    <g
       id="g3912"
       inkscape:export-filename="/home/bbesson/Desktop/sac1.png"
       inkscape:export-xdpi="3.4781361"
       inkscape:export-ydpi="3.4781361"
       style="fill:#7d7d7d;fill-opacity:1;stroke:#000000;stroke-width:8;stroke-miterlimit:4;stroke-opacity:1;stroke-dasharray:none"
       transform="translate(78.91741,-37.038567)">
      <rect
         rx="14.285714"
         ry="14.285714"
         y="456.24527"
         x="394.24692"
         height="139.01286"
         width="41.50621"
         id="rect3914"
         style="fill:#7d7d7d;fill-opacity:1;fill-rule:nonzero;stroke:#000000;stroke-width:8;stroke-linejoin:round;stroke-miterlimit:4;stroke-opacity:1;stroke-dasharray:none;stroke-dashoffset:0" />
      <g
         style="fill:#7d7d7d;fill-opacity:1;stroke:#000000;stroke-width:8;stroke-miterlimit:4;stroke-opacity:1;stroke-dasharray:none"
         id="g3916">
        <path
           sodipodi:type="arc"
           style="fill:#7d7d7d;fill-opacity:1;fill-rule:nonzero;stroke:#000000;stroke-width:7.53098822;stroke-linejoin:miter;stroke-miterlimit:4;stroke-opacity:1;stroke-dasharray:none;stroke-dashoffset:0"
           id="path3918"
           sodipodi:cx="393.92856"
           sodipodi:cy="434.50504"
           sodipodi:rx="39.642857"
           sodipodi:ry="39.642857"
           d="m 433.57141,434.50504 c 0,21.89414 -17.74871,39.64285 -39.64285,39.64285 -21.89415,0 -39.64286,-17.74871 -39.64286,-39.64285 0,-21.89415 17.74871,-39.64286 39.64286,-39.64286 21.89414,0 39.64285,17.74871 39.64285,39.64286 z"
           transform="matrix(1.0622776,0,0,1.0622776,-52.602109,-54.559923)" />
        <path
           inkscape:connector-curvature="0"
           style="fill:#7d7d7d;fill-opacity:1;fill-rule:evenodd;stroke:#000000;stroke-width:8;stroke-linecap:butt;stroke-linejoin:miter;stroke-miterlimit:4;stroke-opacity:1;stroke-dasharray:none"
           d="m 365.34375,639.15625 1,0 51.59375,131.28125 c 7.24622,7.24622 25.35189,2.89619 29,-10.71875 l -46.28125,-145.5625 c -2.29801,-8.14938 -1.09484,-15.15587 -3.87441,-17.34105 -1.15579,-0.92249 -6.78933,-6.18464 -7.64082,-10.43958 l 0.57265,-125.81312 c -2.90556,-1.67753 -48.47325,-2.15953 -52.21367,0 l -83.5625,67.15625 12.125,20.71875 65,-34.28125 0,100 -46.28125,145.5625 c 0,12.94333 21.65729,18.06146 29,10.71875 l 51.5625,-131.28125 z"
           id="path3920"
           sodipodi:nodetypes="cccccccccccccccc" />
      </g>
    </g>
  </g>
</svg>
