<?xml version="1.0" encoding="UTF-8" standalone="no"?>
<!-- Created with Inkscape (http://www.inkscape.org/) -->

<svg
   xmlns:dc="http://purl.org/dc/elements/1.1/"
   xmlns:cc="http://creativecommons.org/ns#"
   xmlns:rdf="http://www.w3.org/1999/02/22-rdf-syntax-ns#"
   xmlns:svg="http://www.w3.org/2000/svg"
   xmlns="http://www.w3.org/2000/svg"
   xmlns:sodipodi="http://sodipodi.sourceforge.net/DTD/sodipodi-0.dtd"
   xmlns:inkscape="http://www.inkscape.org/namespaces/inkscape"
   width="260"
   height="260"
   id="svg2"
   version="1.1"
   inkscape:version="0.48.2 r9819"
   sodipodi:docname="help2.svg"
   style="enable-background:new"
   inkscape:export-filename="/home/tai/svgc2c/help2.png"
   inkscape:export-xdpi="4.5"
   inkscape:export-ydpi="4.5">
  <defs
     id="defs4">
    <filter
       inkscape:collect="always"
       id="filter3946"
       color-interpolation-filters="sRGB">
      <feBlend
         inkscape:collect="always"
         mode="lighten"
         in2="BackgroundImage"
         id="feBlend3948" />
    </filter>
  </defs>
  <sodipodi:namedview
     id="base"
     pagecolor="#ffffff"
     bordercolor="#666666"
     borderopacity="1.0"
     inkscape:pageopacity="0.0"
     inkscape:pageshadow="2"
     inkscape:zoom="0.49497475"
     inkscape:cx="-408.49254"
     inkscape:cy="-117.75645"
     inkscape:document-units="px"
     inkscape:current-layer="layer1"
     showgrid="false"
     fit-margin-top="0"
     fit-margin-left="0"
     fit-margin-right="0"
     fit-margin-bottom="0"
     inkscape:window-width="1280"
     inkscape:window-height="776"
     inkscape:window-x="0"
     inkscape:window-y="24"
     inkscape:window-maximized="1" />
  <metadata
     id="metadata7">
    <rdf:RDF>
      <cc:Work
         rdf:about="">
        <dc:format>image/svg+xml</dc:format>
        <dc:type
           rdf:resource="http://purl.org/dc/dcmitype/StillImage" />
        <dc:title></dc:title>
      </cc:Work>
    </rdf:RDF>
  </metadata>
  <g
     inkscape:label="Calque 1"
     inkscape:groupmode="layer"
     id="layer1"
     transform="translate(-184.19549,-236.41336)"
     style="filter:url(#filter3946)">
    <path
       sodipodi:type="arc"
       style="fill:none;fill-opacity:1;stroke:#000000;stroke-width:19.00099563999999930;stroke-miterlimit:4;stroke-opacity:1;stroke-dasharray:none"
       id="path2985"
       sodipodi:cx="345.71429"
       sodipodi:cy="463.79074"
       sodipodi:rx="140"
       sodipodi:ry="140"
       d="m 485.71429,463.79074 c 0,77.31987 -62.68013,140 -140,140 -77.31986,0 -140,-62.68013 -140,-140 0,-77.31986 62.68014,-140 140,-140 77.31987,0 140,62.68014 140,140 z"
       transform="matrix(0,-0.86956232,0.86956232,0,-89.09946,667.03349)"
       inkscape:export-xdpi="4.5"
       inkscape:export-ydpi="4.5"
       inkscape:export-filename="/home/tai/svgc2c/rendered/back.png" />
    <g
       transform="matrix(0.70025352,0,0,0.76361855,62.504648,120.78844)"
       style="font-size:321.6958313px;font-style:normal;font-variant:normal;font-weight:bold;font-stretch:normal;line-height:125%;letter-spacing:0px;word-spacing:0px;fill:#000000;fill-opacity:1;stroke:none;font-family:DejaVu Sans;-inkscape-font-specification:DejaVu Sans Bold"
       id="text2991">
      <path
         style="fill:#000000;fill-opacity:1;font-family:Liberation Mono;-inkscape-font-specification:Liberation Mono Bold"
         d="m 441.03324,279.38057 c 0.63155,23.53682 -17.80909,41.97449 -36.41492,53.61767 -11.49522,8.03757 -23.13755,23.29957 -27.55262,37.33828 -6.01378,-0.13012 -5.92373,-0.005 -21.17016,0.14932 -7.59163,0 -15.18327,0 -22.77491,0 0.32728,-25.15697 19.70048,-44.92415 39.88727,-57.34116 11.60724,-7.77829 24.71575,-18.93612 23.56858,-34.3564 -1.8521,-16.07662 -19.14184,-25.4872 -34.17628,-24.45916 -17.27504,-0.18075 -38.49586,11.22738 -39.52564,32.69028 -7.49223,0.13791 -11.51342,0.24479 -19.16319,0.1456 -7.64978,-0.0992 -17.34271,-0.35636 -25.88221,-0.71592 2.71594,-31.67412 28.18325,-60.22185 59.89947,-64.95248 25.99498,-5.41002 54.41404,-2.44766 77.56933,10.99651 15.46232,10.15312 26.66944,27.99974 25.73528,46.88746 z M 331.86401,434.25952 c 0,-14.13702 0,-28.27405 0,-42.41107 15.13185,0 30.2637,0 45.39555,0 0,14.13702 0,28.27405 0,42.41107 -15.13185,0 -30.2637,0 -45.39555,0 z"
         id="path3764"
         inkscape:connector-curvature="0"
         sodipodi:nodetypes="ccccccccczccccccccc" />
    </g>
  </g>
</svg>
