<?xml version="1.0" encoding="UTF-8" standalone="no"?>
<!-- Created with Inkscape (http://www.inkscape.org/) -->

<svg
   xmlns:dc="http://purl.org/dc/elements/1.1/"
   xmlns:cc="http://creativecommons.org/ns#"
   xmlns:rdf="http://www.w3.org/1999/02/22-rdf-syntax-ns#"
   xmlns:svg="http://www.w3.org/2000/svg"
   xmlns="http://www.w3.org/2000/svg"
   xmlns:xlink="http://www.w3.org/1999/xlink"
   xmlns:sodipodi="http://sodipodi.sourceforge.net/DTD/sodipodi-0.dtd"
   xmlns:inkscape="http://www.inkscape.org/namespaces/inkscape"
   width="320"
   height="320"
   id="svg3920"
   version="1.1"
   inkscape:version="0.48.2 r9819"
   inkscape:export-filename="/home/tai/svgc2c/important.png"
   inkscape:export-xdpi="9"
   inkscape:export-ydpi="9"
   sodipodi:docname="Nouveau document 6">
  <defs
     id="defs3922">
    <linearGradient
       id="linearGradient4456">
      <stop
         style="stop-color:#ffac00;stop-opacity:1;"
         offset="0"
         id="stop4458" />
      <stop
         style="stop-color:#f8d431;stop-opacity:1;"
         offset="1"
         id="stop4460" />
    </linearGradient>
    <linearGradient
       inkscape:collect="always"
       xlink:href="#linearGradient4456"
       id="linearGradient4462"
       x1="196.71346"
       y1="875.5083"
       x2="100"
       y2="992.36218"
       gradientUnits="userSpaceOnUse"
       gradientTransform="matrix(1.0895185,0,0,1.0895185,-14.322956,-81.520312)" />
  </defs>
  <sodipodi:namedview
     id="base"
     pagecolor="#ffffff"
     bordercolor="#666666"
     borderopacity="1.0"
     inkscape:pageopacity="0.0"
     inkscape:pageshadow="2"
     inkscape:zoom="0.7"
     inkscape:cx="135.40691"
     inkscape:cy="39.733133"
     inkscape:document-units="px"
     inkscape:current-layer="layer1"
     showgrid="true"
     inkscape:window-width="1280"
     inkscape:window-height="776"
     inkscape:window-x="0"
     inkscape:window-y="24"
     inkscape:window-maximized="1">
    <inkscape:grid
       type="xygrid"
       id="grid3944"
       empspacing="5"
       visible="true"
       enabled="true"
       snapvisiblegridlinesonly="true" />
  </sodipodi:namedview>
  <metadata
     id="metadata3925">
    <rdf:RDF>
      <cc:Work
         rdf:about="">
        <dc:format>image/svg+xml</dc:format>
        <dc:type
           rdf:resource="http://purl.org/dc/dcmitype/StillImage" />
        <dc:title></dc:title>
      </cc:Work>
    </rdf:RDF>
  </metadata>
  <g
     inkscape:label="Calque 1"
     inkscape:groupmode="layer"
     id="layer1"
     transform="translate(0,-732.36218)">
    <path
       style="fill:#ffffff;fill-opacity:1;stroke:#000000;stroke-width:10.89518452;stroke-miterlimit:4;stroke-opacity:1;stroke-dasharray:none;stroke-dashoffset:0"
       inkscape:transform-center-y="-45.463547"
       d="m 314.01377,1024.8677 c -1.2483,2.1622 -4.34508,1.9456 -4.34508,1.9456 l -149.64324,0 -148.807019,0 c 0,0 -3.8814863,0.695 -5.1813363,-1.5565 -1.299849,-2.2514 -0.0446,-4.4319 -0.0446,-4.4319 L 81.280256,890.42268 153.87763,764.68033 c 0,0 2.01837,-5.20071 6.14781,-5.20071 4.12943,0 6.2405,5.36127 6.2405,5.36127 l 72.50467,125.58179 75.17892,130.21372 c 0,0 1.31255,2.0692 0.0643,4.2313 z"
       id="path3939"
       inkscape:connector-curvature="0"
       sodipodi:nodetypes="zccczccczcccz" />
    <path
       sodipodi:nodetypes="zccczccczcccz"
       inkscape:connector-curvature="0"
       id="path4454"
       d="m 272.27605,997.90114 c -0.91001,1.57616 -3.16757,1.41829 -3.16757,1.41829 l -109.08992,0 -108.480312,0 c 0,0 -2.829603,0.50665 -3.777194,-1.13465 -0.94759,-1.64129 -0.03252,-3.23087 -0.03252,-3.23087 l 54.884786,-95.06322 52.92348,-91.66618 c 0,0 1.47139,-3.79132 4.48176,-3.79132 3.01036,0 4.54932,3.90837 4.54932,3.90837 l 52.85591,91.54913 54.80543,94.92578 c 0,0 0.95685,1.50842 0.0468,3.08467 z"
       inkscape:transform-center-y="-33.142941"
       style="fill:url(#linearGradient4462);fill-opacity:1;stroke:none" />
    <g
       style="font-size:88.99820709px;font-style:normal;font-variant:normal;font-weight:normal;font-stretch:normal;line-height:125%;letter-spacing:0px;word-spacing:0px;fill:#000000;fill-opacity:1;stroke:none;font-family:DejaVu Sans;-inkscape-font-specification:DejaVu Sans"
       id="text4464">
      <path
         d="m 172.36871,861.6352 -7.82211,92.88753 -8.79987,0 -6.94212,-92.88753 c -0.32597,-3.585 0.71698,-6.68125 3.12884,-9.28876 2.41177,-2.67241 5.27987,-4.00868 8.60432,-4.00883 3.38952,1.5e-4 6.29022,1.33642 8.70209,4.00883 2.41176,2.60751 3.4547,5.70376 3.12885,9.28876 m 1.85775,115.86498 c -7e-5,4.69327 -1.36894,8.37618 -4.10661,11.04872 -2.7378,2.67256 -6.19256,4.00884 -10.36429,4.00884 -4.04147,0 -7.33327,-1.30369 -9.87541,-3.91106 -2.73778,-2.73773 -4.10665,-6.45323 -4.10661,-11.1465 -4e-5,-4.95399 1.4992,-8.93022 4.49771,-11.92872 2.67251,-2.67252 5.89913,-4.0088 9.67986,-4.00883 3.911,3e-5 7.2028,1.33631 9.87541,4.00883 2.93323,2.93332 4.39987,6.90955 4.39994,11.92872"
         style="font-size:200.24597168px;font-weight:bold;font-family:Kedage;-inkscape-font-specification:Kedage Bold"
         id="path4469" />
    </g>
  </g>
</svg>
