<?xml version="1.0" encoding="UTF-8" standalone="no"?>
<!-- Created with Inkscape (http://www.inkscape.org/) -->
<svg
   xmlns:dc="http://purl.org/dc/elements/1.1/"
   xmlns:cc="http://creativecommons.org/ns#"
   xmlns:rdf="http://www.w3.org/1999/02/22-rdf-syntax-ns#"
   xmlns:svg="http://www.w3.org/2000/svg"
   xmlns="http://www.w3.org/2000/svg"
   xmlns:xlink="http://www.w3.org/1999/xlink"
   xmlns:sodipodi="http://sodipodi.sourceforge.net/DTD/sodipodi-0.dtd"
   xmlns:inkscape="http://www.inkscape.org/namespaces/inkscape"
   width="166.50381"
   height="166.50381"
   id="svg2"
   version="1.1"
   inkscape:version="0.46"
   sodipodi:docname="json2.svg"
   inkscape:export-filename="/home/meije/Desktop/json16.png"
   inkscape:export-xdpi="8.6499996"
   inkscape:export-ydpi="8.6499996"
   sodipodi:version="0.32"
   inkscape:output_extension="org.inkscape.output.svg.inkscape">
  <defs
     id="defs4">
    <linearGradient
       id="linearGradient5557">
      <stop
         style="stop-color:#f09239;stop-opacity:1;"
         offset="0"
         id="stop5559" />
      <stop
         style="stop-color:#ffffff;stop-opacity:1;"
         offset="1"
         id="stop5561" />
    </linearGradient>
    <linearGradient
       id="linearGradient5549">
      <stop
         style="stop-color:#f09239;stop-opacity:1;"
         offset="0"
         id="stop5551" />
      <stop
         style="stop-color:#ffffff;stop-opacity:1;"
         offset="1"
         id="stop5553" />
    </linearGradient>
    <linearGradient
       id="linearGradient3725">
      <stop
         style="stop-color:#000000;stop-opacity:1;"
         offset="0"
         id="stop3727" />
      <stop
         id="stop3733"
         offset="0.5"
         style="stop-color:#000000;stop-opacity:0.49803922;" />
      <stop
         style="stop-color:#000000;stop-opacity:0;"
         offset="1"
         id="stop3729" />
    </linearGradient>
    <inkscape:perspective
       sodipodi:type="inkscape:persp3d"
       inkscape:vp_x="0 : 526.18109 : 1"
       inkscape:vp_y="0 : 1000 : 0"
       inkscape:vp_z="744.09448 : 526.18109 : 1"
       inkscape:persp3d-origin="372.04724 : 350.78739 : 1"
       id="perspective10" />
    <inkscape:perspective
       id="perspective2824"
       inkscape:persp3d-origin="0.5 : 0.33333333 : 1"
       inkscape:vp_z="1 : 0.5 : 1"
       inkscape:vp_y="0 : 1000 : 0"
       inkscape:vp_x="0 : 0.5 : 1"
       sodipodi:type="inkscape:persp3d" />
    <inkscape:perspective
       id="perspective3682"
       inkscape:persp3d-origin="0.5 : 0.33333333 : 1"
       inkscape:vp_z="1 : 0.5 : 1"
       inkscape:vp_y="0 : 1000 : 0"
       inkscape:vp_x="0 : 0.5 : 1"
       sodipodi:type="inkscape:persp3d" />
    <inkscape:perspective
       id="perspective3711"
       inkscape:persp3d-origin="0.5 : 0.33333333 : 1"
       inkscape:vp_z="1 : 0.5 : 1"
       inkscape:vp_y="0 : 1000 : 0"
       inkscape:vp_x="0 : 0.5 : 1"
       sodipodi:type="inkscape:persp3d" />
    <inkscape:perspective
       id="perspective5318"
       inkscape:persp3d-origin="0.5 : 0.33333333 : 1"
       inkscape:vp_z="1 : 0.5 : 1"
       inkscape:vp_y="0 : 1000 : 0"
       inkscape:vp_x="0 : 0.5 : 1"
       sodipodi:type="inkscape:persp3d" />
    <inkscape:perspective
       id="perspective5342"
       inkscape:persp3d-origin="0.5 : 0.33333333 : 1"
       inkscape:vp_z="1 : 0.5 : 1"
       inkscape:vp_y="0 : 1000 : 0"
       inkscape:vp_x="0 : 0.5 : 1"
       sodipodi:type="inkscape:persp3d" />
    <inkscape:perspective
       id="perspective5366"
       inkscape:persp3d-origin="0.5 : 0.33333333 : 1"
       inkscape:vp_z="1 : 0.5 : 1"
       inkscape:vp_y="0 : 1000 : 0"
       inkscape:vp_x="0 : 0.5 : 1"
       sodipodi:type="inkscape:persp3d" />
    <linearGradient
       inkscape:collect="always"
       xlink:href="#linearGradient5549"
       id="linearGradient5555"
       x1="385.23587"
       y1="360.12543"
       x2="321.31213"
       y2="269.71677"
       gradientUnits="userSpaceOnUse" />
    <linearGradient
       inkscape:collect="always"
       xlink:href="#linearGradient5557"
       id="linearGradient5563"
       x1="338.1171"
       y1="277.10455"
       x2="418.83618"
       y2="364.98782"
       gradientUnits="userSpaceOnUse" />
    <linearGradient
       inkscape:collect="always"
       xlink:href="#linearGradient5549"
       id="linearGradient5571"
       gradientUnits="userSpaceOnUse"
       x1="385.23587"
       y1="360.12543"
       x2="321.31213"
       y2="269.71677" />
    <linearGradient
       inkscape:collect="always"
       xlink:href="#linearGradient5557"
       id="linearGradient5573"
       gradientUnits="userSpaceOnUse"
       x1="338.1171"
       y1="277.10455"
       x2="418.83618"
       y2="364.98782" />
    <linearGradient
       inkscape:collect="always"
       xlink:href="#linearGradient5557"
       id="linearGradient5578"
       gradientUnits="userSpaceOnUse"
       x1="331.55112"
       y1="286.19592"
       x2="459.74734"
       y2="414.01474" />
    <linearGradient
       inkscape:collect="always"
       xlink:href="#linearGradient5549"
       id="linearGradient5581"
       gradientUnits="userSpaceOnUse"
       x1="407.45923"
       y1="343.96298"
       x2="268.27911"
       y2="223.9938" />
  </defs>
  <sodipodi:namedview
     id="base"
     pagecolor="#ffffff"
     bordercolor="#666666"
     borderopacity="1.0"
     inkscape:pageopacity="0.0"
     inkscape:pageshadow="2"
     inkscape:zoom="1.979899"
     inkscape:cx="18.875722"
     inkscape:cy="66.850191"
     inkscape:document-units="px"
     inkscape:current-layer="layer1"
     showgrid="false"
     inkscape:window-width="1274"
     inkscape:window-height="957"
     inkscape:window-x="0"
     inkscape:window-y="0"
     inkscape:window-maximized="1" />
  <metadata
     id="metadata7">
    <rdf:RDF>
      <cc:Work
         rdf:about="">
        <dc:format>image/svg+xml</dc:format>
        <dc:type
           rdf:resource="http://purl.org/dc/dcmitype/StillImage" />
        <dc:title />
      </cc:Work>
    </rdf:RDF>
  </metadata>
  <g
     inkscape:label="Calque 1"
     inkscape:groupmode="layer"
     id="layer1"
     transform="translate(-281.20606,-235.0725)">
    <path
       style="fill:url(#linearGradient5581);fill-opacity:1;stroke:none"
       d="m 360.40178,236.62109 c -4.64287,0.0246 -8.60032,1.17289 -15.25,2.6875 -12.94893,2.9494 -22.0936,7.42021 -37.3125,21.28125 -4.91633,4.47767 -18.26444,23.06021 -21.21875,33.5625 -4.76492,16.93883 -1.98233,46.80785 4.375,59.125 6.62012,12.82629 18.02618,25.52969 29.4375,32.875 13.53828,8.71441 27.44963,11.37606 39.34375,12.625 -2.16383,-0.43327 -4.55409,-0.97436 -7.28125,-1.6875 -7.35987,-1.92458 -14.88382,-8.61195 -20.03125,-13.375 -4.44269,-4.11094 -8.91755,-9.15981 -11.90625,-15.125 -3.44191,-6.86976 -6.6841,-17.03235 -7.375,-25.875 -0.75429,-9.65388 -0.16346,-17.03842 1.15625,-26.59375 0.57865,-4.1897 5.04795,-15.09045 8.59375,-19.96875 4.47389,-6.15517 9.06511,-10.67602 15.5625,-14.875 4.14128,-2.67633 10.38567,-5.28576 17.4375,-5.09375 0.64108,0.0175 1.3156,0.0589 1.96875,0.125 1.30631,0.13215 2.6261,0.3672 3.96875,0.71875 1.34265,0.35155 2.69947,0.80209 4.0625,1.40625 0.58747,0.52377 0.50689,1.04985 0.0625,1.59375 3.60517,2.06388 7.77179,6.23858 10,9.125 3.86104,5.00162 7.70931,11.3475 9.34375,16.75 1.15592,3.8208 2.45553,12.34888 0.9375,21.1875 -0.85835,4.99769 -3.4818,10.28335 -5.40625,14.4375 -3.08708,6.66384 -8.84119,9.77142 -10.0625,10.9375 -2.08065,1.98653 -5.91036,4.26421 -7.125,5.40625 0.17607,0.0851 0.35315,0.14828 0.53125,0.21875 3.41196,1.35021 5.40665,1.2061 10.09375,1.25 6.5824,0.0617 12.36786,-1.61894 17.25,-4.03125 0.81369,-0.40205 1.58112,-0.81037 2.34375,-1.25 6.86369,-3.95669 11.65253,-9.25901 13.9375,-12.65625 5.50967,-8.19166 9.30698,-22.90098 9.78125,-32.15625 0.92397,-18.03116 -2.18602,-27.68075 -7.75,-39.75 -4.69807,-10.19092 -12.66861,-17.75647 -18.5625,-22.125 -4.89019,-3.62459 -9.38973,-5.81721 -13.09375,-7.15625 -0.72355,-0.26157 -1.40429,-0.48801 -2.0625,-0.6875 -0.48648,-0.14613 -0.92718,-0.25798 -1.375,-0.375 -0.16604,-0.0439 -0.30824,-0.085 -0.46875,-0.125 -0.59184,-0.14764 -1.14382,-0.27378 -1.65625,-0.375 -1.41171,-0.16717 -2.79964,-0.34096 -4.15625,-0.46875 -0.24784,-0.0234 1.33347,-0.0888 4.15625,0.46875 0.14909,0.0177 0.28784,0.0443 0.4375,0.0625 -5.49522,-1.48984 -9.27889,-2.11184 -12.6875,-2.09375 z"
       id="path3697" />
    <path
       style="fill:url(#linearGradient5578);fill-opacity:1;stroke:none"
       d="m 359.52481,284.73642 c 2.8259,-2.69806 8.42652,-4.48562 6.40448,-6.28843 -10.90423,-4.83328 -21.41194,-1.05139 -27.43564,2.84146 -6.4974,4.19898 -11.08334,8.71167 -15.55724,14.86684 -3.54581,4.8783 -8.01232,15.77816 -8.59097,19.96786 -1.31971,9.55533 -1.90234,16.92826 -1.14804,26.58215 0.6909,8.84265 3.92925,19.02533 7.37117,25.89509 2.9887,5.96519 7.4591,11.01628 11.90181,15.12722 5.14744,4.76305 12.67758,11.42325 20.03747,13.34783 14.54489,3.80342 19.37284,3.49634 32.67223,0.46713 12.94895,-2.9494 21.38397,-7.76632 36.6029,-21.62736 4.91635,-4.47767 18.97643,-22.34863 21.93075,-32.85092 4.76493,-16.93884 1.97022,-46.81647 -4.38713,-59.13362 -6.62014,-12.82629 -18.03282,-25.52591 -29.44416,-32.87122 -14.31538,-9.21458 -29.0672,-11.70232 -41.38864,-12.86296 -0.61005,-0.0575 9.77765,-0.47722 22.81821,9.18835 5.89391,4.36852 13.87153,11.91622 18.56962,22.10714 5.56399,12.06925 8.67343,21.72705 7.74946,39.75821 -0.47427,9.25527 -4.28452,23.96137 -9.7942,32.15304 -4.06217,6.03954 -15.98996,18.08817 -33.54307,17.92361 -4.6871,-0.0439 -6.66916,0.12227 -10.08113,-1.22794 -3.88804,-1.53846 -7.29991,-6.69966 -9.87399,-10.03411 -3.86105,-5.00162 -7.7123,-11.36384 -9.34674,-16.76634 -1.15592,-3.8208 -2.44855,-12.34335 -0.9305,-21.18197 0.85834,-4.99769 3.4743,-10.26824 5.39875,-14.42239 3.08709,-6.66384 8.8433,-9.79259 10.0646,-10.95867 z"
       id="path3697-8-1"
       sodipodi:nodetypes="ccssssssssssssssssssssssss" />
    <path
       style="fill:none;stroke:#d7802d;stroke-width:4.46936892999999991;stroke-miterlimit:4;stroke-opacity:1;stroke-dasharray:none;stroke-dashoffset:0"
       d="m 365.05803,280.83984 c -13.32256,7.42328 -22.34375,21.66644 -22.34375,38 0,16.15234 8.82668,29.47146 21.90625,36.96114 13.32256,-7.42328 22.34375,-20.87758 22.34375,-37.21114 0,-16.15234 -8.82668,-30.26032 -21.90625,-37.75 z"
       id="path3672"
       sodipodi:nodetypes="cscsc" />
    <path
       sodipodi:type="arc"
       style="fill:none;stroke:#d7802d;stroke-width:3.75457120000000000;stroke-miterlimit:4;stroke-opacity:1;stroke-dasharray:none;stroke-dashoffset:0"
       id="path3670"
       sodipodi:cx="28.789347"
       sodipodi:cy="46.200447"
       sodipodi:rx="76.266518"
       sodipodi:ry="76.266518"
       d="m 105.05586,46.200447 a 76.266518,76.266518 0 1 1 -152.533031,0 76.266518,76.266518 0 1 1 152.533031,0 z"
       transform="matrix(1.065368,0,0,1.065368,333.78672,269.10393)" />
  </g>
</svg>
