<?xml version="1.0" encoding="UTF-8" standalone="no"?>
<!-- Created with Inkscape (http://www.inkscape.org/) -->

<svg
   xmlns:dc="http://purl.org/dc/elements/1.1/"
   xmlns:cc="http://creativecommons.org/ns#"
   xmlns:rdf="http://www.w3.org/1999/02/22-rdf-syntax-ns#"
   xmlns:svg="http://www.w3.org/2000/svg"
   xmlns="http://www.w3.org/2000/svg"
   xmlns:sodipodi="http://sodipodi.sourceforge.net/DTD/sodipodi-0.dtd"
   xmlns:inkscape="http://www.inkscape.org/namespaces/inkscape"
   width="320"
   height="320"
   id="svg2"
   version="1.1"
   inkscape:version="0.48.2 r9819"
   inkscape:export-filename="/home/tai/svgc2c/mountain_climbing_light.png"
   inkscape:export-xdpi="4.5"
   inkscape:export-ydpi="4.5"
   sodipodi:docname="mountain_climbing_light.svg">
  <defs
     id="defs4" />
  <sodipodi:namedview
     id="base"
     pagecolor="#ffffff"
     bordercolor="#666666"
     borderopacity="1.0"
     inkscape:pageopacity="0.0"
     inkscape:pageshadow="2"
     inkscape:zoom="1.4"
     inkscape:cx="198.73586"
     inkscape:cy="205.72799"
     inkscape:document-units="px"
     inkscape:current-layer="layer1"
     showgrid="false"
     inkscape:window-width="1280"
     inkscape:window-height="776"
     inkscape:window-x="0"
     inkscape:window-y="24"
     inkscape:window-maximized="1"
     showguides="true"
     inkscape:guide-bbox="true">
    <sodipodi:guide
       orientation="-0.70710678,0.70710678"
       position="-331.33003,419.21331"
       id="guide3850" />
  </sodipodi:namedview>
  <metadata
     id="metadata7">
    <rdf:RDF>
      <cc:Work
         rdf:about="">
        <dc:format>image/svg+xml</dc:format>
        <dc:type
           rdf:resource="http://purl.org/dc/dcmitype/StillImage" />
        <dc:title></dc:title>
      </cc:Work>
    </rdf:RDF>
  </metadata>
  <g
     inkscape:label="Calque 1"
     inkscape:groupmode="layer"
     id="layer1"
     transform="translate(0,-732.36218)">
    <path
       sodipodi:type="arc"
       style="opacity:0.98999999000000005;fill:#a9a9aa;fill-opacity:1;stroke:none"
       id="path2996"
       sodipodi:cx="211.42857"
       sodipodi:cy="-2.1428576"
       sodipodi:rx="23.571428"
       sodipodi:ry="23.571428"
       d="m 235,-2.1428576 a 23.571428,23.571428 0 1 1 -47.14285,0 23.571428,23.571428 0 1 1 47.14285,0 z"
       transform="matrix(1.1454546,0,0,1.1454546,-21.896105,788.24529)" />
    <path
       style="fill:#a9a9aa;fill-opacity:1;stroke:none"
       d="m 0,732.3622 12.598354,-2e-5 105.830356,100.7143 48.19621,192.71072 17.80379,26.575 -184.42871,0 z"
       id="rect3766"
       inkscape:connector-curvature="0"
       sodipodi:nodetypes="ccccccc" />
    <rect
       style="fill:#a9a9aa;fill-opacity:1;stroke:none"
       id="rect3769"
       width="59.459026"
       height="130"
       x="-57.374725"
       y="849.66443"
       ry="29.729513"
       transform="matrix(0.95630476,-0.2923717,0.2923717,0.95630476,0,0)" />
    <rect
       style="fill:#a9a9aa;fill-opacity:1;stroke:none"
       id="rect3771"
       width="35.714287"
       height="100.42586"
       x="5.6933174"
       y="848.52081"
       ry="18.460636"
       transform="matrix(0.95630476,-0.2923717,0.2923717,0.95630476,0,0)" />
    <rect
       style="fill:#a9a9aa;fill-opacity:1;stroke:none"
       id="rect3773"
       width="9.1071434"
       height="133.57143"
       x="36.746731"
       y="959.81116"
       ry="5.3571429"
       transform="matrix(0.9781476,-0.20791169,0.20791169,0.9781476,0,0)" />
    <rect
       ry="17.857143"
       y="275.97678"
       x="817.34924"
       height="97.14286"
       width="23"
       id="rect3775"
       style="fill:#a9a9aa;fill-opacity:1;stroke:none"
       transform="matrix(0.54463904,0.83867057,-0.83867057,0.54463904,0,0)" />
    <rect
       style="fill:#a9a9aa;fill-opacity:1;stroke:none"
       id="rect3777"
       width="23"
       height="97.14286"
       x="854.41681"
       y="-106.57524"
       ry="17.857143"
       transform="matrix(0.1391731,0.99026807,-0.99026807,0.1391731,0,0)" />
    <rect
       style="fill:#a9a9aa;fill-opacity:1;stroke:none"
       id="rect3779"
       width="30"
       height="97.14286"
       x="816.97992"
       y="460.95624"
       ry="17.857143"
       transform="matrix(0.70710678,0.70710678,-0.70710678,0.70710678,0,0)" />
    <rect
       ry="14.143348"
       y="811.67249"
       x="538.44171"
       height="76.939812"
       width="30"
       id="rect3793"
       style="fill:#a9a9aa;fill-opacity:1;stroke:none"
       transform="matrix(0.92718386,0.37460659,-0.37460659,0.92718386,0,0)" />
  </g>
</svg>
