<?xml version="1.0" encoding="UTF-8" standalone="no"?>
<!-- Created with Inkscape (http://www.inkscape.org/) -->

<svg
   xmlns:a="http://ns.adobe.com/AdobeSVGViewerExtensions/3.0/"
   xmlns:dc="http://purl.org/dc/elements/1.1/"
   xmlns:cc="http://creativecommons.org/ns#"
   xmlns:rdf="http://www.w3.org/1999/02/22-rdf-syntax-ns#"
   xmlns:svg="http://www.w3.org/2000/svg"
   xmlns="http://www.w3.org/2000/svg"
   xmlns:xlink="http://www.w3.org/1999/xlink"
   xmlns:sodipodi="http://sodipodi.sourceforge.net/DTD/sodipodi-0.dtd"
   xmlns:inkscape="http://www.inkscape.org/namespaces/inkscape"
   version="1.0"
   width="52.105"
   height="52.722904"
   viewBox="0 0 41.684 42.178323"
   id="svg548"
   xml:space="preserve"
   inkscape:version="0.48.2 r9819"
   sodipodi:docname="japan_icon.svg"
   inkscape:export-filename="C:\Users\meije\Downloads\movie.png"
   inkscape:export-xdpi="27.639999"
   inkscape:export-ydpi="27.639999"><metadata
     id="metadata61"><rdf:RDF><cc:Work
         rdf:about=""><dc:format>image/svg+xml</dc:format><dc:type
           rdf:resource="http://purl.org/dc/dcmitype/StillImage" /><dc:title></dc:title></cc:Work></rdf:RDF></metadata><sodipodi:namedview
     pagecolor="#ffffff"
     bordercolor="#666666"
     borderopacity="1"
     objecttolerance="10"
     gridtolerance="10"
     guidetolerance="10"
     inkscape:pageopacity="0"
     inkscape:pageshadow="2"
     inkscape:window-width="1920"
     inkscape:window-height="1018"
     id="namedview59"
     showgrid="false"
     inkscape:zoom="7.8666666"
     inkscape:cx="45.070763"
     inkscape:cy="26.868605"
     inkscape:window-x="1272"
     inkscape:window-y="-8"
     inkscape:window-maximized="1"
     inkscape:current-layer="svg548"
     fit-margin-top="0"
     fit-margin-left="0"
     fit-margin-right="0"
     fit-margin-bottom="0" /><defs
     id="defs630"><linearGradient
       id="linearGradient3819"><stop
         style="stop-color:#fccca0;stop-opacity:1;"
         offset="0"
         id="stop3821" /><stop
         id="stop3827"
         offset="0.5"
         style="stop-color:#f9b87b;stop-opacity:1;" /><stop
         style="stop-color:#f09239;stop-opacity:1;"
         offset="1"
         id="stop3823" /></linearGradient><linearGradient
       x1="24.1597"
       y1="18.867701"
       x2="24.1597"
       y2="20.534201"
       id="XMLID_9_"
       gradientUnits="userSpaceOnUse"><stop
         style="stop-color:#ffffff;stop-opacity:1"
         offset="0"
         id="stop589" /><stop
         style="stop-color:#e9e9ef;stop-opacity:1"
         offset="1"
         id="stop590" /><a:midPointStop
         offset="0"
         style="stop-color:#FFFFFF"
         id="midPointStop591" /><a:midPointStop
         offset="0.5"
         style="stop-color:#FFFFFF"
         id="midPointStop592" /><a:midPointStop
         offset="1"
         style="stop-color:#E9E9EF"
         id="midPointStop593" /></linearGradient><linearGradient
       x1="311.22269"
       y1="17.458"
       x2="311.22269"
       y2="23.226101"
       id="XMLID_10_"
       gradientUnits="userSpaceOnUse"
       gradientTransform="matrix(1,0,0.2679,1,-292.7053,0)"><stop
         style="stop-color:#cecedb;stop-opacity:1"
         offset="0"
         id="stop596" /><stop
         style="stop-color:#828282;stop-opacity:1"
         offset="0.29769999"
         id="stop597" /><stop
         style="stop-color:#000000;stop-opacity:1"
         offset="1"
         id="stop598" /><a:midPointStop
         offset="0"
         style="stop-color:#CECEDB"
         id="midPointStop599" /><a:midPointStop
         offset="0.5"
         style="stop-color:#CECEDB"
         id="midPointStop600" /><a:midPointStop
         offset="0.2977"
         style="stop-color:#828282"
         id="midPointStop601" /><a:midPointStop
         offset="0.5"
         style="stop-color:#828282"
         id="midPointStop602" /><a:midPointStop
         offset="1"
         style="stop-color:#000000"
         id="midPointStop603" /></linearGradient><linearGradient
       x1="22.6689"
       y1="9.3192997"
       x2="23.184099"
       y2="11.2419"
       id="XMLID_11_"
       gradientUnits="userSpaceOnUse"><stop
         style="stop-color:#ffffff;stop-opacity:1"
         offset="0"
         id="stop607" /><stop
         style="stop-color:#cecedb;stop-opacity:1"
         offset="1"
         id="stop608" /><a:midPointStop
         offset="0"
         style="stop-color:#FFFFFF"
         id="midPointStop609" /><a:midPointStop
         offset="0.5"
         style="stop-color:#FFFFFF"
         id="midPointStop610" /><a:midPointStop
         offset="1"
         style="stop-color:#CECEDB"
         id="midPointStop611" /></linearGradient><linearGradient
       x1="22.366699"
       y1="7.8495998"
       x2="24.2355"
       y2="14.8243"
       id="XMLID_12_"
       gradientUnits="userSpaceOnUse"><stop
         style="stop-color:#cecedb;stop-opacity:1"
         offset="0"
         id="stop614" /><stop
         style="stop-color:#cbcbd7;stop-opacity:1"
         offset="0.0054"
         id="stop615" /><stop
         style="stop-color:#a5a5ad;stop-opacity:1"
         offset="0.0705"
         id="stop616" /><stop
         style="stop-color:#87878c;stop-opacity:1"
         offset="0.1338"
         id="stop617" /><stop
         style="stop-color:#727274;stop-opacity:1"
         offset="0.19410001"
         id="stop618" /><stop
         style="stop-color:#656566;stop-opacity:1"
         offset="0.2502"
         id="stop619" /><stop
         style="stop-color:#616161;stop-opacity:1"
         offset="0.29769999"
         id="stop620" /><stop
         style="stop-color:#000000;stop-opacity:1"
         offset="1"
         id="stop621" /><a:midPointStop
         offset="0"
         style="stop-color:#CECEDB"
         id="midPointStop622" /><a:midPointStop
         offset="0.3269"
         style="stop-color:#CECEDB"
         id="midPointStop623" /><a:midPointStop
         offset="0.2977"
         style="stop-color:#616161"
         id="midPointStop624" /><a:midPointStop
         offset="0.5"
         style="stop-color:#616161"
         id="midPointStop625" /><a:midPointStop
         offset="1"
         style="stop-color:#000000"
         id="midPointStop626" /></linearGradient><linearGradient
       x1="22.6689"
       y1="9.3192997"
       x2="23.184099"
       y2="11.2419"
       id="linearGradient2568"
       xlink:href="#XMLID_11_"
       gradientUnits="userSpaceOnUse" /><linearGradient
       x1="22.366699"
       y1="7.8495998"
       x2="24.2355"
       y2="14.8243"
       id="linearGradient2574"
       xlink:href="#XMLID_12_"
       gradientUnits="userSpaceOnUse"
       gradientTransform="translate(-2.77,-2.5104433)" /><linearGradient
       x1="311.22269"
       y1="17.458"
       x2="311.22269"
       y2="23.226101"
       id="linearGradient2579"
       xlink:href="#XMLID_10_"
       gradientUnits="userSpaceOnUse"
       gradientTransform="matrix(1,0,0.2679,1,-295.4753,-2.5104433)" /><linearGradient
       x1="24.1597"
       y1="18.867701"
       x2="24.1597"
       y2="20.534201"
       id="linearGradient2582"
       xlink:href="#XMLID_9_"
       gradientUnits="userSpaceOnUse"
       gradientTransform="translate(-2.77,-2.5104433)" /><radialGradient
       inkscape:collect="always"
       xlink:href="#linearGradient3819"
       id="radialGradient3825"
       cx="24.8456"
       cy="31.569906"
       fx="24.8456"
       fy="31.569906"
       r="17.8456"
       gradientTransform="matrix(1,0,0,0.68563161,-2.77,7.4141377)"
       gradientUnits="userSpaceOnUse" /></defs><path
     d="m 40.953,14.239557 -0.256,0 -33.641,0 32.735,-8.7710003 c 0.188,-0.051 0.346,-0.172 0.443,-0.341 0.097,-0.169 0.123,-0.365 0.072,-0.554 l -1.08,-4.03200003 c -0.049,-0.186 -0.174,-0.348 -0.341,-0.444 -0.169,-0.0970000033 -0.365,-0.123 -0.554,-0.072 l -0.248,0.067 c 0,0 0.042,0.021 0.052,0.026 -0.271,0.034 -0.743,0.159 -1.664,0.406 L 0.541,10.151557 c -0.188,0.05 -0.345,0.171 -0.443,0.339 -0.065,0.114 -0.098,0.239 -0.098,0.365 0,0.063 0.008,0.128 0.025,0.19 l 1.073,4.002 0,4.094 c 0,0.402 0.328,0.73 0.73,0.73 l 1.524,0 0,21.458 c 0.045061,0.560502 0.2647033,0.735455 0.8814237,0.828271 0.238,0.029 0.8375763,0.01873 1.5665763,0.01873 l 32.757,0 c 1.351,0 2.448,-1.114 2.448,-2.484 l 0,-19.826 c 0.378,-0.027 0.679,-0.339 0.679,-0.725 l 0,-4.173 c -10e-4,-0.402 -0.329,-0.729 -0.731,-0.729 z"
     id="path553"
     style="fill:#c56d1b;fill-opacity:1"
     inkscape:connector-curvature="0"
     sodipodi:nodetypes="scccscccccccccsccsscccssscscs" /><path
     style="fill:url(#radialGradient3825);fill-opacity:1;stroke:none"
     d="m 39.9212,19.866357 c 0,0.727573 0,18.79818 0,18.79818 0,1.455147 -1.171472,2.62662 -2.626619,2.62662 l -30.4379614,0 C 5.0239492,41.291157 4.23,41.41407 4.23,40.264537 c 0,0 0,-19.670607 0,-20.39818 3.145989,0.0015 25.62487,0.0026 35.6912,0 z"
     id="rect3814"
     inkscape:connector-curvature="0"
     sodipodi:nodetypes="csssscc" /><path
     d="m 40.697,14.628557 -38.87,0 c -0.188,0 -0.341,0.153 -0.341,0.341 l 0,4.173 c 0,0.188 0.153,0.341 0.341,0.341 l 39.125,0 c 0.189,0 0.342,-0.153 0.342,-0.341 l 0,-4.173 c 0,-0.188 -0.152,-0.341 -0.342,-0.341 l -0.255,0 0,0 z"
     id="path587"
     style="fill:#c56d1b;fill-opacity:1"
     inkscape:connector-curvature="0" /><rect
     width="38.612999"
     height="3.661"
     x="2.0840001"
     y="15.224557"
     style="fill:url(#linearGradient2582)"
     id="rect594" /><path
     d="m 4.992,18.885557 3.662,0 -1.627,-3.661 -3.661,0 1.626,3.661 m 17.013,-3.661 -3.66,0 1.626,3.661 3.661,0 -1.627,-3.661 m -7.489,0 -3.662,0 1.627,3.661 3.662,0 -1.627,-3.661 m 22.47,0 -3.663,0 1.628,3.661 3.661,0 -1.626,-3.661 m -7.49,0 -3.662,0 1.627,3.661 3.664,0 -1.629,-3.661 z"
     style="fill:url(#linearGradient2579)"
     id="path604"
     inkscape:connector-curvature="0" /><polygon
     points="4.761,17.085 4.761,17.085 42.06,7.091 41.111,3.555 3.814,13.548 "
     style="fill:url(#linearGradient2568)"
     id="polygon612"
     transform="translate(-2.77,-2.5104433)" /><path
     d="m 4.8,13.822557 3.538,-0.947 -1.571,-3.3710003 -3.537,0.9480003 1.57,3.37 m 16.434,-8.1940003 -3.537,0.948 1.571,3.37 3.538,-0.948 -1.572,-3.37 m -7.234,1.938 -3.537,0.948 1.572,3.3700003 3.536,-0.949 L 14,7.5665567 m 21.703,-5.815 -3.535,0.947 1.571,3.37 3.537,-0.947 -1.573,-3.37 m -7.234,1.939 -3.538,0.946 1.572,3.371 3.537,-0.948 -1.571,-3.369 z"
     style="fill:url(#linearGradient2574)"
     id="path627"
     inkscape:connector-curvature="0" /><path
     sodipodi:type="star"
     style="fill:#ffffff;fill-opacity:1;stroke:none;filter:url(#filter3946);enable-background:new"
     id="path3953"
     sodipodi:sides="3"
     sodipodi:cx="234.35539"
     sodipodi:cy="73.522781"
     sodipodi:r1="99.015564"
     sodipodi:r2="49.507778"
     sodipodi:arg1="3.1415927"
     sodipodi:arg2="4.1887902"
     inkscape:flatsided="false"
     inkscape:rounded="0"
     inkscape:randomized="0"
     d="m 135.33983,73.522777 74.26167,-42.874989 74.26168,-42.874998 -10e-6,85.749991 0,85.749999 -74.26167,-42.875 z"
     transform="matrix(-0.09455429,0,0,0.09090693,43.235164,23.495434)"
     inkscape:transform-center-x="-2.3405871"
     inkscape:export-filename="/home/tai/svgc2c/rendered/back.png"
     inkscape:export-xdpi="4.5"
     inkscape:export-ydpi="4.5" /></svg>