<?xml version="1.0" encoding="UTF-8" standalone="no"?>
<!-- Created with Inkscape (http://www.inkscape.org/) -->

<svg
   xmlns:dc="http://purl.org/dc/elements/1.1/"
   xmlns:cc="http://creativecommons.org/ns#"
   xmlns:rdf="http://www.w3.org/1999/02/22-rdf-syntax-ns#"
   xmlns:svg="http://www.w3.org/2000/svg"
   xmlns="http://www.w3.org/2000/svg"
   xmlns:sodipodi="http://sodipodi.sourceforge.net/DTD/sodipodi-0.dtd"
   xmlns:inkscape="http://www.inkscape.org/namespaces/inkscape"
   width="60.216522"
   height="71.284233"
   id="svg3064"
   version="1.1"
   inkscape:version="0.48.2 r9819"
   sodipodi:docname="Nouveau document 5">
  <defs
     id="defs3066" />
  <sodipodi:namedview
     id="base"
     pagecolor="#ffffff"
     bordercolor="#666666"
     borderopacity="1.0"
     inkscape:pageopacity="0.0"
     inkscape:pageshadow="2"
     inkscape:zoom="0.98994949"
     inkscape:cx="132.39972"
     inkscape:cy="11.345668"
     inkscape:document-units="px"
     inkscape:current-layer="layer1"
     showgrid="false"
     fit-margin-top="0"
     fit-margin-left="0"
     fit-margin-right="0"
     fit-margin-bottom="0"
     inkscape:showpageshadow="false"
     inkscape:window-width="486"
     inkscape:window-height="399"
     inkscape:window-x="130"
     inkscape:window-y="73"
     inkscape:window-maximized="0" />
  <metadata
     id="metadata3069">
    <rdf:RDF>
      <cc:Work
         rdf:about="">
        <dc:format>image/svg+xml</dc:format>
        <dc:type
           rdf:resource="http://purl.org/dc/dcmitype/StillImage" />
        <dc:title></dc:title>
      </cc:Work>
    </rdf:RDF>
  </metadata>
  <g
     inkscape:label="Calque 1"
     inkscape:groupmode="layer"
     id="layer1"
     transform="translate(-344.90604,-496.71875)">
    <path
       inkscape:connector-curvature="0"
       style="fill:#545455;fill-opacity:1;fill-rule:evenodd;stroke:#545455;stroke-width:1px;stroke-linecap:butt;stroke-linejoin:miter;stroke-opacity:1"
       d="m 349.7057,497.23429 0,2.84375 4.84375,0 0,11.75 3.75,0 0,-11.75 4.84375,0 0,-2.84375 -13.4375,0 z m 17.46875,0 -5.40625,14.59375 3.78125,0 0.9375,-2.65625 5.87501,0 0.90625,2.65625 3.78125,0 -5.40625,-14.59375 -4.46876,0 z m 10.53126,0 4.875,7.15625 -5.0625,7.4375 3.9375,0 3.375,-4.96875 3.40625,4.96875 3.9375,0 -5.0625,-7.4375 4.84375,-7.15625 -3.9375,0 -3.1875,4.71875 -3.1875,-4.71875 -3.9375,0 z m 16.6875,0 0,14.59375 3.78125,0 0,-14.59375 -3.78125,0 z m -24.96875,3.4375 1.96875,5.78125 -3.96876,0 2.00001,-5.78125 z m -12.75001,13.59375 c -1.33243,0.35963 -4.11817,1.63233 -5.125,4.03125 -2.02309,7.17493 -4.49143,15.42388 -5.9375,21.15625 -0.33245,1.81853 -0.20428,8.83742 -0.15625,15.59375 -0.18102,2.36089 0.90173,3.08446 1.5,4.0625 1.07089,0.33917 2.18682,0.12116 3.25,0.25 0.0406,2.5593 -0.27185,6.46565 0.5,7.5625 0.77184,0.6906 6.42503,0.77499 7.5625,0.125 1.21871,-0.89372 0.59375,-5.33757 0.59375,-7.9375 11.00904,0.0406 22.02222,0.0844 33.03126,0.125 0.0406,2.5593 -0.0531,6.21567 0.71875,7.3125 1.01559,0.8531 6.67189,0.98123 7.6875,0.25 0.69143,-0.83997 0.16478,-4.98509 0.125,-7.53125 0.57976,-0.39361 2.27972,0.0524 3.09375,-0.40625 1.03398,-0.51723 0.64581,-1.53612 1,-2.40625 0.10628,-5.34702 0.12272,-13.14199 0.0312,-16.0625 -0.69095,-2.8265 -3.60938,-13.44271 -5.46875,-20.28125 -0.57019,-1.72871 -1.17135,-2.86412 -2.34375,-4.375 -1.08411,-0.61523 -1.70797,-1.10674 -3.625,-1.34375 -12.1465,-0.0406 -33.06574,-0.0844 -36.43751,-0.125 z m 34.84376,4.03125 c 1.97633,0.45637 3.12126,1.88151 3.90625,3.65625 1.01672,1.9282 1.13536,4.17949 1.75,6.25 0.39669,2.30772 1.38621,4.6486 1.40625,6.9375 -0.30501,1.96462 -1.57693,4.35526 -3.90625,3.96875 -12.99231,0 -25.97645,0 -38.96876,0 -2.08679,-0.28848 -3.82162,-2.20334 -3.65625,-4.28125 0.84561,-4.45866 1.7169,-8.91634 2.5625,-13.375 1.07237,-1.73409 2.47489,-2.68994 4.5,-2.9375 10.80592,-0.0813 21.60035,-0.13751 32.40626,-0.21875 z m 5.0625,23.53125 c 2.45524,10e-6 4.4375,1.98226 4.4375,4.4375 0,2.45525 -1.98226,4.46875 -4.4375,4.46875 -2.45525,0 -4.46875,-2.01351 -4.46875,-4.46875 0,-2.45524 2.0135,-4.4375 4.46875,-4.4375 z m -41.43751,0.25 c 2.45525,0 4.4375,1.98226 4.4375,4.4375 0,2.45525 -1.98226,4.4375 -4.4375,4.4375 -2.45524,0 -4.46875,-1.98226 -4.46875,-4.4375 0,-2.45524 2.01351,-4.4375 4.46875,-4.4375 z"
       id="path3452"
       inkscape:export-filename="/home/popeye/Bureau/ondemand.png"
       inkscape:export-xdpi="161.67108"
       inkscape:export-ydpi="161.67108" />
  </g>
</svg>
