<?xml version="1.0" encoding="UTF-8" standalone="no"?>
<!-- Created with Inkscape (http://www.inkscape.org/) -->

<svg
   xmlns:dc="http://purl.org/dc/elements/1.1/"
   xmlns:cc="http://creativecommons.org/ns#"
   xmlns:rdf="http://www.w3.org/1999/02/22-rdf-syntax-ns#"
   xmlns:svg="http://www.w3.org/2000/svg"
   xmlns="http://www.w3.org/2000/svg"
   xmlns:sodipodi="http://sodipodi.sourceforge.net/DTD/sodipodi-0.dtd"
   xmlns:inkscape="http://www.inkscape.org/namespaces/inkscape"
   width="320"
   height="320"
   id="svg3064"
   version="1.1"
   inkscape:version="0.48.2 r9819"
   sodipodi:docname="ondemand.svg"
   inkscape:export-filename="/home/tai/svgc2c/ondemand.png"
   inkscape:export-xdpi="4.5"
   inkscape:export-ydpi="4.5">
  <defs
     id="defs3066" />
  <sodipodi:namedview
     id="base"
     pagecolor="#ffffff"
     bordercolor="#666666"
     borderopacity="1.0"
     inkscape:pageopacity="0.0"
     inkscape:pageshadow="2"
     inkscape:zoom="0.98994949"
     inkscape:cx="-29.729764"
     inkscape:cy="253.78228"
     inkscape:document-units="px"
     inkscape:current-layer="layer1"
     showgrid="false"
     fit-margin-top="0"
     fit-margin-left="0"
     fit-margin-right="0"
     fit-margin-bottom="0"
     inkscape:showpageshadow="false"
     inkscape:window-width="1280"
     inkscape:window-height="776"
     inkscape:window-x="0"
     inkscape:window-y="24"
     inkscape:window-maximized="1" />
  <metadata
     id="metadata3069">
    <rdf:RDF>
      <cc:Work
         rdf:about="">
        <dc:format>image/svg+xml</dc:format>
        <dc:type
           rdf:resource="http://purl.org/dc/dcmitype/StillImage" />
        <dc:title></dc:title>
      </cc:Work>
    </rdf:RDF>
  </metadata>
  <g
     inkscape:label="Calque 1"
     inkscape:groupmode="layer"
     id="layer1"
     transform="translate(-344.90604,-248.00298)">
    <path
       inkscape:connector-curvature="0"
       style="fill:#545455;fill-opacity:1;fill-rule:evenodd;stroke:#545455;stroke-width:4.4908638px;stroke-linecap:butt;stroke-linejoin:miter;stroke-opacity:1"
       d="m 391.31278,250.24841 0,12.7709 21.75262,0 0,52.76764 16.84074,0 0,-52.76764 21.75262,0 0,-12.7709 -60.34598,0 z m 78.44977,0 -24.27873,65.53854 16.98108,0 4.21018,-11.92885 26.38387,0 4.06985,11.92885 16.98108,0 -24.27873,-65.53854 -20.0686,0 z m 47.29446,0 21.89296,32.13775 -22.735,33.40079 17.68278,0 15.15666,-22.31397 15.29701,22.31397 17.68277,0 -22.735,-33.40079 21.75263,-32.13775 -17.68278,0 -14.31463,21.19127 -14.31463,-21.19127 -17.68277,0 z m 74.94129,0 0,65.53854 16.98107,0 0,-65.53854 -16.98107,0 z m -112.13126,15.43735 8.84139,25.9628 -17.82316,0 8.98177,-25.9628 z m -57.25856,61.04768 c -5.98376,1.61504 -18.49414,7.33057 -23.01567,18.10379 -9.08543,32.22163 -20.1704,69.26654 -26.66451,95.00984 -1.49299,8.16677 -0.91739,39.68765 -0.70169,70.0294 -0.81294,10.60244 4.04954,13.85189 6.73629,18.24414 4.80922,1.52316 9.82071,0.54411 14.59531,1.12271 0.18233,11.49347 -1.22084,29.03636 2.24543,33.96216 3.46623,3.10139 28.85393,3.48038 33.96216,0.56136 5.47306,-4.01358 2.66645,-23.9703 2.66645,-35.64623 49.4401,0.18233 98.89879,0.37903 148.33889,0.56136 0.18233,11.49346 -0.23847,27.91372 3.2278,32.83944 4.56088,3.83115 29.96255,4.40657 34.52352,1.12271 3.10512,-3.77219 0.74,-22.38736 0.56136,-33.82181 2.60362,-1.76765 10.23791,0.23532 13.89361,-1.82442 4.64346,-2.32281 2.90024,-6.8985 4.49086,-10.80614 0.47729,-24.01274 0.55112,-59.01889 0.14012,-72.1345 -3.10297,-12.69343 -16.20924,-60.36938 -24.55941,-91.08033 -2.56065,-7.7634 -5.26038,-12.86237 -10.52547,-19.64753 -4.86859,-2.76291 -7.67026,-4.97022 -16.27938,-6.0346 -54.54827,-0.18233 -148.49373,-0.37903 -163.63589,-0.56135 z m 156.47858,18.10379 c 8.87543,2.0495 14.01716,8.4496 17.54244,16.41972 4.56595,8.65928 5.09875,18.76952 7.85901,28.0679 1.78148,10.36366 6.22528,20.87623 6.31528,31.15537 -1.36976,8.82284 -7.08178,19.55888 -17.54244,17.82311 -58.34669,0 -116.6567,0 -175.00339,0 -9.37149,-1.29552 -17.16238,-9.8949 -16.41972,-19.22651 3.79752,-20.02323 7.71036,-40.04207 11.50784,-60.0653 4.81586,-7.78756 11.11439,-12.08016 20.20888,-13.19191 48.52792,-0.36511 97.00423,-0.61754 145.5321,-0.98238 z m 22.735,105.67564 c 11.02615,4e-5 19.92821,8.90206 19.92821,19.92821 0,11.02619 -8.90206,20.06854 -19.92821,20.06854 -11.02619,0 -20.06855,-9.0424 -20.06855,-20.06854 0,-11.02615 9.04236,-19.92821 20.06855,-19.92821 z m -186.09021,1.12271 c 11.02619,0 19.92821,8.90206 19.92821,19.92821 0,11.0262 -8.90206,19.92821 -19.92821,19.92821 -11.02615,0 -20.06855,-8.90206 -20.06855,-19.92821 0,-11.02615 9.0424,-19.92821 20.06855,-19.92821 z"
       id="path3452"
       inkscape:export-filename="/home/popeye/Bureau/ondemand.png"
       inkscape:export-xdpi="161.67108"
       inkscape:export-ydpi="161.67108" />
  </g>
</svg>
