<?xml version="1.0" encoding="UTF-8" standalone="no"?>
<!-- Created with Inkscape (http://www.inkscape.org/) -->

<svg
   xmlns:dc="http://purl.org/dc/elements/1.1/"
   xmlns:cc="http://creativecommons.org/ns#"
   xmlns:rdf="http://www.w3.org/1999/02/22-rdf-syntax-ns#"
   xmlns:svg="http://www.w3.org/2000/svg"
   xmlns="http://www.w3.org/2000/svg"
   xmlns:sodipodi="http://sodipodi.sourceforge.net/DTD/sodipodi-0.dtd"
   xmlns:inkscape="http://www.inkscape.org/namespaces/inkscape"
   width="320"
   height="320"
   id="svg3109"
   version="1.1"
   inkscape:version="0.48.2 r9819"
   sodipodi:docname="ondemand.svg"
   inkscape:export-filename="/tmp/bus-16.png"
   inkscape:export-xdpi="4.5"
   inkscape:export-ydpi="4.5">
  <defs
     id="defs3111" />
  <sodipodi:namedview
     id="base"
     pagecolor="#ffffff"
     bordercolor="#666666"
     borderopacity="1.0"
     inkscape:pageopacity="0.0"
     inkscape:pageshadow="2"
     inkscape:zoom="1.4"
     inkscape:cx="156.87309"
     inkscape:cy="117.31467"
     inkscape:document-units="px"
     inkscape:current-layer="layer1"
     showgrid="false"
     inkscape:showpageshadow="false"
     fit-margin-top="0"
     fit-margin-left="0"
     fit-margin-right="0"
     fit-margin-bottom="0"
     inkscape:window-width="1280"
     inkscape:window-height="1002"
     inkscape:window-x="-8"
     inkscape:window-y="48"
     inkscape:window-maximized="1" />
  <metadata
     id="metadata3114">
    <rdf:RDF>
      <cc:Work
         rdf:about="">
        <dc:format>image/svg+xml</dc:format>
        <dc:type
           rdf:resource="http://purl.org/dc/dcmitype/StillImage" />
        <dc:title />
      </cc:Work>
    </rdf:RDF>
  </metadata>
  <g
     inkscape:label="Calque 1"
     inkscape:groupmode="layer"
     id="layer1"
     transform="translate(-342.38565,-248.18833)">
    <path
       inkscape:connector-curvature="0"
       style="fill:#545455;fill-opacity:1;fill-rule:evenodd;stroke:#545455;stroke-width:3.47566533px;stroke-linecap:butt;stroke-linejoin:miter;stroke-opacity:1"
       d="m 483.77976,254.27479 c -6.31024,0.47606 -12.72514,0.0872 -19.00755,1.30337 -5.24067,2.09927 -8.17416,3.43014 -12.7079,7.05995 -4.7482,5.58925 -8.47954,10.2767 -10.64422,19.65923 -3.0216,56.03655 -6.10209,111.99007 -9.12365,168.02669 -0.59462,8.6339 2.12916,10.2399 4.45322,11.83898 4.38564,2.28856 8.2959,1.36956 12.27345,2.28091 0.21375,7.69499 0.43789,15.33126 0.65169,23.02629 0.0397,4.09015 -0.40686,8.95428 4.23596,10.75283 6.72447,1.16056 11.97694,0.46161 20.74539,0.65169 7.09761,-0.0883 9.75184,1.16466 10.86145,-3.14982 0,-10.44838 -4e-5,-20.83262 0,-31.28099 39.25207,0 78.48604,0 117.73816,0 0.46504,8.37097 0.29508,17.0448 0.7603,25.4158 -1.11496,5.00276 1.46217,9.41902 5.97379,9.55809 15.65347,0.13068 24.65857,1.00212 26.8278,-0.54308 3.26521,-1.68117 1.71778,-27.05729 2.17229,-35.0825 15.69954,-0.77577 -1.17033,7.7e-4 10.31838,-0.32567 7.30633,-0.74702 5.13189,-2.95559 6.08241,-8.68916 -3.37521,-56.25347 -5.53117,-112.20768 -8.90639,-168.46115 -1.14471,-8.14977 -4.83753,-16.22315 -10.97007,-23.02628 -6.05214,-8.08561 -13.28327,-7.82219 -21.28845,-9.01501 -43.48787,0 -86.95823,-3e-5 -130.44606,0 z m 120.12768,14.88019 c 5.7408,1.64455 6.39279,10.64416 3.25844,16.94387 -2.524,3.67554 -8.29979,2.08991 -17.81279,2.49813 -34.18709,-0.0139 -69.53979,0.0209 -103.72687,0 -5.27617,-1.08243 -8.00412,-5.72254 -6.95134,-12.49067 0.58565,-2.68071 1.69137,-5.22532 5.43072,-6.29964 39.93581,-0.19951 79.86603,-0.45201 119.80184,-0.65169 z m -125.44978,30.84653 c 46.38288,0.45889 92.75778,0.70536 139.13521,1.30338 8.59883,0.83041 13.6453,9.43587 13.25097,17.48694 2.11419,20.08451 4.18547,40.19655 6.29965,60.28106 0.25025,7.59975 -6.87292,17.80163 -15.42326,21.39707 -7.85059,0.80785 -15.86951,-0.36286 -23.78659,0.10844 -44.04578,-0.16822 -88.02953,-0.37499 -132.07528,-0.54307 -10.25658,-3.05233 -15.82585,-14.61041 -13.90266,-24.76412 1.72831,-21.96934 3.1436,-43.99587 5.10489,-65.92902 2.49998,-9.29498 13.66578,-9.27568 21.39707,-9.34086 z M 472.158,412.41755 c 9.59285,0 17.37833,7.78553 17.37833,17.37833 -3e-5,9.59281 -7.78548,17.37833 -17.37833,17.37833 -9.59286,0 -17.37832,-7.78552 -17.37832,-17.37833 -4e-5,-9.5928 7.78546,-17.37833 17.37832,-17.37833 z m 150.97422,0 c 9.59283,-3e-5 17.37832,7.7855 17.37832,17.37833 0,9.59281 -7.78549,17.37833 -17.37832,17.37833 -9.59284,-4e-5 -17.37833,-7.78549 -17.37833,-17.37833 0,-9.59287 7.78549,-17.37833 17.37833,-17.37833 z"
       id="path3433"
       inkscape:export-filename="/home/popeye/Bureau/bus.png"
       inkscape:export-xdpi="160.81393"
       inkscape:export-ydpi="160.81393" />
    <path
       transform="translate(342.38565,248.18833)"
       style="opacity:1;fill:#545455;fill-opacity:1;fill-rule:nonzero;stroke:none"
       d="m 192.84711,270.68444 c 0,4.48863 -0.69467,12.48807 -3.60137,19.52908 -2.35175,5.69674 -6.41317,10.37357 -10.67018,15.14005 -7.3597,8.24052 -13.72676,11.13784 -19.25129,12.2367 -7.06625,1.40551 -27.0919,-2.81573 -47.64252,-11.61968 C 91.678629,297.40118 72.840414,284.06796 59.87799,273.95294 24.09554,246.03068 3.6992373,202.46376 2.4365466,191.82941 1.5605872,184.4521 6.5937193,171.37576 15.433579,161.4854 c 8.293205,-9.27875 21.641877,-17.06689 29.995991,-17.06689 2.933908,0 6.292492,10.5326 12.286998,27.05254 1.933873,5.32946 8.014629,21.0404 7.933131,25.45203 -0.06371,3.44864 -21.006418,8.10217 -19.648509,13.46352 0.611832,2.41566 11.333488,10.71806 18.378857,16.56768 10.065722,8.35736 17.704009,14.42868 22.635494,18.4029 5.498945,4.43152 19.962389,15.9639 30.045549,24.08826 6.27076,5.05258 11.17475,8.36161 13.03452,8.3017 2.49078,-0.0802 3.70815,-3.41873 3.88586,-6.93427 0.16654,-3.2944 0.64495,-7.95218 2.70619,-9.2729 2.10424,-1.34829 8.79768,-1.4379 15.14515,-2.00557 8.40595,-0.75176 17.67531,-1.617 20.71917,-1.8418 6.30084,-0.46534 14.29237,-1.44883 16.96278,0.0786 2.78966,1.59561 3.33235,9.70083 3.33235,12.91327 z"
       id="path2992"
       inkscape:connector-curvature="0"
       sodipodi:nodetypes="ssssssssssssssssssssss" />
  </g>
</svg>
