<?xml version="1.0" encoding="UTF-8" standalone="no"?>
<!-- Created with Inkscape (http://www.inkscape.org/) -->

<svg
   xmlns:dc="http://purl.org/dc/elements/1.1/"
   xmlns:cc="http://creativecommons.org/ns#"
   xmlns:rdf="http://www.w3.org/1999/02/22-rdf-syntax-ns#"
   xmlns:svg="http://www.w3.org/2000/svg"
   xmlns="http://www.w3.org/2000/svg"
   xmlns:sodipodi="http://sodipodi.sourceforge.net/DTD/sodipodi-0.dtd"
   xmlns:inkscape="http://www.inkscape.org/namespaces/inkscape"
   width="320"
   height="320"
   id="svg3109"
   version="1.1"
   inkscape:version="0.48.4 r9939"
   sodipodi:docname="bus.svg"
   inkscape:export-filename="/tmp/bus-16.png"
   inkscape:export-xdpi="4.5"
   inkscape:export-ydpi="4.5">
  <defs
     id="defs3111" />
  <sodipodi:namedview
     id="base"
     pagecolor="#ffffff"
     bordercolor="#666666"
     borderopacity="1.0"
     inkscape:pageopacity="0.0"
     inkscape:pageshadow="2"
     inkscape:zoom="0.98994949"
     inkscape:cx="47.731106"
     inkscape:cy="182.75056"
     inkscape:document-units="px"
     inkscape:current-layer="layer1"
     showgrid="false"
     inkscape:showpageshadow="false"
     fit-margin-top="0"
     fit-margin-left="0"
     fit-margin-right="0"
     fit-margin-bottom="0"
     inkscape:window-width="1280"
     inkscape:window-height="968"
     inkscape:window-x="-4"
     inkscape:window-y="-6"
     inkscape:window-maximized="1" />
  <metadata
     id="metadata3114">
    <rdf:RDF>
      <cc:Work
         rdf:about="">
        <dc:format>image/svg+xml</dc:format>
        <dc:type
           rdf:resource="http://purl.org/dc/dcmitype/StillImage" />
        <dc:title></dc:title>
      </cc:Work>
    </rdf:RDF>
  </metadata>
  <g
     inkscape:label="Calque 1"
     inkscape:groupmode="layer"
     id="layer1"
     transform="translate(-342.38565,-248.18833)">
    <path
       inkscape:connector-curvature="0"
       style="fill:#545455;fill-opacity:1;fill-rule:evenodd;stroke:#545455;stroke-width:3.47566533px;stroke-linecap:butt;stroke-linejoin:miter;stroke-opacity:1"
       d="m 483.77976,254.27479 c -6.31024,0.47606 -12.72514,0.0872 -19.00755,1.30337 -5.24067,2.09927 -8.17416,3.43014 -12.7079,7.05995 -4.7482,5.58925 -8.47954,10.2767 -10.64422,19.65923 -3.0216,56.03655 -6.10209,111.99007 -9.12365,168.02669 -0.59462,8.6339 2.12916,10.2399 4.45322,11.83898 4.38564,2.28856 8.2959,1.36956 12.27345,2.28091 0.21375,7.69499 0.43789,15.33126 0.65169,23.02629 0.0397,4.09015 -0.40686,8.95428 4.23596,10.75283 6.72447,1.16056 11.97694,0.46161 20.74539,0.65169 7.09761,-0.0883 9.75184,1.16466 10.86145,-3.14982 0,-10.44838 -4e-5,-20.83262 0,-31.28099 39.25207,0 78.48604,0 117.73816,0 0.46504,8.37097 0.29508,17.0448 0.7603,25.4158 -1.11496,5.00276 1.46217,9.41902 5.97379,9.55809 15.65347,0.13068 24.65857,1.00212 26.8278,-0.54308 3.26521,-1.68117 1.71778,-27.05729 2.17229,-35.0825 15.69954,-0.77577 -1.17033,7.7e-4 10.31838,-0.32567 7.30633,-0.74702 5.13189,-2.95559 6.08241,-8.68916 -3.37521,-56.25347 -5.53117,-112.20768 -8.90639,-168.46115 -1.14471,-8.14977 -4.83753,-16.22315 -10.97007,-23.02628 -6.05214,-8.08561 -13.28327,-7.82219 -21.28845,-9.01501 -43.48787,0 -86.95823,-3e-5 -130.44606,0 z m 120.12768,14.88019 c 5.7408,1.64455 6.39279,10.64416 3.25844,16.94387 -2.524,3.67554 -8.29979,2.08991 -17.81279,2.49813 -34.18709,-0.0139 -69.53979,0.0209 -103.72687,0 -5.27617,-1.08243 -8.00412,-5.72254 -6.95134,-12.49067 0.58565,-2.68071 1.69137,-5.22532 5.43072,-6.29964 39.93581,-0.19951 79.86603,-0.45201 119.80184,-0.65169 z m -125.44978,30.84653 c 46.38288,0.45889 92.75778,0.70536 139.13521,1.30338 8.59883,0.83041 13.6453,9.43587 13.25097,17.48694 2.11419,20.08451 4.18547,40.19655 6.29965,60.28106 0.25025,7.59975 -6.87292,17.80163 -15.42326,21.39707 -7.85059,0.80785 -15.86951,-0.36286 -23.78659,0.10844 -44.04578,-0.16822 -88.02953,-0.37499 -132.07528,-0.54307 -10.25658,-3.05233 -15.82585,-14.61041 -13.90266,-24.76412 1.72831,-21.96934 3.1436,-43.99587 5.10489,-65.92902 2.49998,-9.29498 13.66578,-9.27568 21.39707,-9.34086 z M 472.158,412.41755 c 9.59285,0 17.37833,7.78553 17.37833,17.37833 -3e-5,9.59281 -7.78548,17.37833 -17.37833,17.37833 -9.59286,0 -17.37832,-7.78552 -17.37832,-17.37833 -4e-5,-9.5928 7.78546,-17.37833 17.37832,-17.37833 z m 150.97422,0 c 9.59283,-3e-5 17.37832,7.7855 17.37832,17.37833 0,9.59281 -7.78549,17.37833 -17.37832,17.37833 -9.59284,-4e-5 -17.37833,-7.78549 -17.37833,-17.37833 0,-9.59287 7.78549,-17.37833 17.37833,-17.37833 z"
       id="path3433"
       inkscape:export-filename="/home/popeye/Bureau/bus.png"
       inkscape:export-xdpi="160.81393"
       inkscape:export-ydpi="160.81393" />
    <g
       transform="matrix(0.91006286,0,0,0.91006286,340.67018,380.48653)"
       style="fill:#545455"
       id="g1934">
      <path
         inkscape:connector-curvature="0"
         d="m 153.5,200.52489 c -16.41348,-4.5935 -26.86405,-8.53958 -41,-15.48139 C 86.549663,172.29995 61.998653,153.47249 44.130703,132.61304 29.664393,115.72475 20.478691,102.0456 11.256914,83.658121 6.1428303,73.461048 5.6224169,71.805351 5.2147223,64.434873 4.7960949,56.866746 4.9820936,55.911585 8.233044,48.934873 15.317026,33.732272 26.387536,22.679091 40.857899,16.361088 49.544301,12.568459 52.063214,12.26384 54.180081,14.75 56.137804,17.049251 74,66.434787 74,69.548261 c 0,2.885807 -1.899493,4.200264 -12.35462,8.549452 -8.03914,3.344171 -10.764366,6.122504 -9.006159,9.181665 0.473429,0.823733 20.643757,17.522852 44.822953,37.109162 C 125.70798,147.26899 142.21671,160 143.64075,160 c 3.13972,0 5.35741,-2.61048 5.37026,-6.32143 0.0201,-5.80637 1.24291,-10.74415 2.87602,-11.61355 1.78814,-0.95193 5.58689,-1.38686 31.11297,-3.56225 24.36424,-2.07637 26.62184,-2.01699 28.40683,0.74723 0.79911,1.2375 1.75918,5.42678 2.13349,9.30952 1.62211,16.82624 -5.08213,32.64003 -19.27232,45.45908 -12.16339,10.9881 -20.18132,12.2677 -40.768,6.50629 z"
         style="fill:#545455;fill-opacity:1"
         id="path1950" />
      <path
         inkscape:connector-curvature="0"
         d="M 153.5,200.52489 C 120.14863,191.19112 92.215853,176.4888 66.5,154.73272 43.977536,135.67831 25.28483,111.62866 11.256914,83.658121 6.1428303,73.461048 5.6224169,71.805351 5.2147223,64.434873 4.7960949,56.866746 4.9820936,55.911585 8.233044,48.934873 15.375261,33.607296 27.026987,22.135667 41.680482,16.004423 49.960091,12.540109 52.114363,12.323913 54.180081,14.75 56.137804,17.049251 74,66.434787 74,69.548261 c 0,2.885807 -1.899493,4.200264 -12.35462,8.549452 -8.03914,3.344171 -10.764366,6.122504 -9.006159,9.181665 0.473429,0.823733 20.643757,17.522852 44.822953,37.109162 C 125.70798,147.26899 142.21671,160 143.64075,160 c 3.26923,0 5.35851,-2.65654 5.36483,-6.82143 0.008,-5.43443 1.8176,-10.98997 3.77554,-11.59259 2.26853,-0.6982 46.93878,-4.58598 52.6926,-4.58598 6.03012,0 7.50898,2.33437 8.01658,12.65413 0.35832,7.28481 -0.72812,14.80671 -3.34197,23.13798 -1.53394,4.88918 -9.32833,15.30759 -15.88033,21.22649 -12.16339,10.9881 -20.18132,12.2677 -40.768,6.50629 z"
         style="fill:#545455;fill-opacity:1"
         id="path1948" />
      <path
         inkscape:connector-curvature="0"
         d="m 153.5,200.52489 c -16.13617,-4.5159 -26.66821,-8.4974 -41,-15.49954 C 67.809114,163.19054 29.905112,124.3607 9.0026732,79 6.2367119,72.997545 5.4712655,69.960165 5.1691677,63.788206 c -0.3590824,-7.336175 -0.1804685,-8.115488 3.6671,-16 C 16.093805,32.91592 27.386445,21.988222 41.680482,16.005412 45.629748,14.352435 49.517395,13 50.319698,13 c 3.107368,0 5.596568,3.93069 9.499094,15 2.229903,6.325 6.332908,17.736852 9.117788,25.35967 5.266376,14.415204 5.91364,17.708857 3.81342,19.404861 -0.6875,0.555182 -5.242363,2.734518 -10.121917,4.842971 -9.021724,3.898281 -11.774975,6.56416 -9.988862,9.671876 0.473429,0.823733 20.643757,17.522852 44.822953,37.109162 45.731416,37.04463 47.919546,38.50376 50.502646,33.6772 0.56935,-1.06384 1.03769,-3.42634 1.04076,-5.25 0.009,-5.10835 1.86942,-10.64309 3.77554,-11.22976 2.26853,-0.6982 46.93878,-4.58598 52.6926,-4.58598 3.56147,0 4.76945,0.46139 5.89084,2.25 3.27657,5.22611 2.78998,21.56284 -0.97406,32.70293 -3.35914,9.94175 -16.95116,24.92956 -26.8905,29.65193 -7.16395,3.40374 -14.98482,3.12219 -30,-1.07997 z"
         style="fill:#545455;fill-opacity:1"
         id="path1946" />
      <path
         inkscape:connector-curvature="0"
         d="m 164.5,203.50211 c -0.55,-0.187 -6.175,-1.77132 -12.5,-3.52071 C 90.841499,183.06595 39.453849,140.63493 11.617924,84.067266 5.9806426,72.611285 5.4721769,71.023385 5.14585,63.855472 4.8092614,56.462157 4.9922601,55.665421 8.8362677,47.788206 15.761371,33.597152 25.759138,23.557909 39.49481,17.002477 47.460148,13.200972 50.985084,12.493921 53.323941,14.228558 55.283842,15.682139 74,65.761898 74,69.552524 c 0,2.924909 -1.019646,3.64605 -10.991079,7.773398 -9.015165,3.731533 -11.905934,6.410201 -10.399339,9.636321 C 53.099312,88.010918 63.625,97.062729 76,107.07738 c 12.375,10.01465 26.71052,21.63164 31.85672,25.81554 C 138.41087,157.73368 141.44692,160 144.17039,160 c 3.23291,0 4.82709,-2.36868 4.83519,-7.18426 0.009,-5.10547 1.86876,-10.64205 3.77554,-11.23742 2.15116,-0.67168 47.21076,-4.56226 52.94583,-4.57151 6.25364,-0.0101 7.55058,2.51261 7.60255,14.78775 0.0728,17.19537 -5.57592,29.8664 -18.63225,41.79515 -8.41906,7.69196 -14.39589,10.40992 -22.69725,10.32157 -3.575,-0.038 -6.95,-0.22217 -7.5,-0.40917 z"
         style="fill:#545455;fill-opacity:1"
         id="path1944" />
      <path
         inkscape:connector-curvature="0"
         d="M 159.39125,201.99936 C 137.2025,196.73912 108.87031,184.35761 89,171.23753 55.952752,149.4169 29.800532,120.00969 11.902632,84.544359 L 5.5,71.857314 5.5,63.178657 C 5.5,55.320879 5.8225459,53.846636 8.9100818,47.592376 12.152651,41.024074 19.039282,31.6043 23.458311,27.692802 27.975155,23.694723 38.836386,17.159807 44.367742,15.112149 50.534525,12.829263 53.422223,13.023099 54.879141,15.817725 56.922306,19.736874 74,67.894014 74,69.736355 c 0,2.706738 -1.145415,3.505791 -10.5,7.3249 -9.660442,3.943978 -11.989077,5.853971 -11.160754,9.154273 0.40713,1.622134 14.531741,13.698298 43.675032,37.340982 23.690312,19.21892 44.339162,35.48099 45.886322,36.13793 4.68241,1.9882 6.67541,-0.25115 7.43173,-8.35035 0.4207,-4.50515 1.21886,-7.31853 2.39906,-8.45622 1.40831,-1.35758 6.04673,-2.07195 22.76861,-3.50662 11.55,-0.99095 24.36481,-1.81962 28.47735,-1.84149 7.30133,-0.0388 7.51073,0.0294 8.8952,2.89933 2.21238,4.58612 1.78505,20.56177 -0.76591,28.63309 -3.79267,12.00014 -15.7658,26.16678 -27.07878,32.0397 -5.8901,3.05773 -14.21679,3.35768 -24.63661,0.88748 z"
         style="fill:#545455;fill-opacity:1"
         id="path1942" />
      <path
         inkscape:connector-curvature="0"
         d="M 156.5,201.0153 C 94.86623,185.05979 43.844349,144.65402 13.791337,88 3.2179331,68.067693 2.5486406,60.439339 10.09979,45.925076 15.206054,36.110192 24.269158,26.027465 32.373618,21.145387 c 7.587655,-4.570758 17.306699,-8.381626 19.555656,-7.667834 1.991567,0.632098 4.710939,6.29467 9.13527,19.022447 1.529494,4.4 5.077511,14.3 7.884483,22 2.916135,7.999454 4.882158,14.915289 4.58697,16.13548 -0.384619,1.58986 -3.080121,3.230089 -10.54983,6.419633 -7.851589,3.352607 -10.160269,4.790384 -10.617537,6.612285 -0.321378,1.280471 -0.345737,2.949878 -0.05413,3.709792 0.291606,0.759914 5.852637,5.685726 12.357847,10.94625 C 71.177556,103.58396 85.725,115.36689 97,124.50772 136.11535,156.21917 142.19019,161 143.36954,161 c 0.652,0 2.1392,-0.66804 3.30491,-1.48453 1.67085,-1.17031 2.26957,-2.97927 2.82867,-8.54651 0.57107,-5.68652 1.12676,-7.32111 2.85304,-8.39247 3.09794,-1.92261 54.74374,-6.12858 57.45257,-4.67886 3.68235,1.97074 4.54481,16.30262 1.72527,28.66985 -1.87946,8.24379 -6.84849,16.45654 -14.7406,24.36309 -13.64616,13.67113 -20.15087,15.29915 -40.2934,10.08473 z"
         style="fill:#545455;fill-opacity:1"
         id="path1940" />
      <path
         inkscape:connector-curvature="0"
         d="M 163,202.43702 C 116.45799,192.38411 71.809186,164.97022 39.321962,126.5 24.90691,109.43021 6.384578,76.431647 5.3207864,65.925023 4.207624,54.930783 10.537732,41.510992 22.5,29.505192 c 8.288536,-8.318699 19.863289,-14.77706 26.73594,-14.917844 5.161588,-0.105734 5.139383,-0.143149 13.310428,22.428641 9.688262,26.762969 11.476789,32.33569 10.930414,34.057164 -0.309476,0.975073 -4.590822,3.346715 -10.254048,5.680207 -7.879407,3.246654 -9.905043,4.512956 -10.684333,6.679181 -0.63527,1.765883 -0.609312,3.248973 0.07649,4.370228 1.094279,1.789099 80.214769,66.559201 86.608289,70.899811 6.74193,4.57715 10.75447,0.94078 10.77124,-9.76145 0.0104,-6.62432 0.96869,-7.07665 18.09537,-8.54115 8.47562,-0.72474 20.97486,-1.83408 27.7761,-2.46519 15.71512,-1.45825 16.09576,-1.20531 16.84869,11.19623 1.06607,17.55936 -3.33124,28.66217 -16.62316,41.97194 -6.86325,6.87246 -9.75558,9.03483 -14.37893,10.75 -6.61852,2.45532 -9.61595,2.54888 -18.71249,0.58406 z"
         style="fill:#545455;fill-opacity:1"
         id="path1938" />
      <path
         inkscape:connector-curvature="0"
         d="M 160.27206,201.50437 C 130.48288,194.5771 101.25594,180.5893 74.464072,160.43731 58.290691,148.27221 36.258198,124.05357 24.106197,105.08273 17.875417,95.355684 8.832708,78.203485 7.0657431,72.760423 3.3577197,61.338009 6.1975749,50.473109 16.719131,35.82787 25.516082,23.583157 49.729733,10.006056 53.603027,15.146298 c 1.189702,1.578851 3.748672,8.1977 13.420944,34.713652 8.083118,22.159382 8.071442,22.56555 -0.73613,25.608155 -9.773771,3.376382 -13.765975,5.857392 -14.101803,8.763759 -0.442503,3.829581 0.26719,4.731758 9.813962,12.475712 31.297959,25.387634 67.49577,54.714544 72.9499,59.102894 3.54745,2.85424 7.39894,5.18953 8.55888,5.18953 4.53679,0 6.25019,-2.97432 6.41691,-11.13922 0.13535,-6.62875 2.29521,-8.00547 14.14075,-9.01351 47.89429,-4.07575 44.28884,-3.91829 46.19891,-2.01765 2.83074,2.81677 3.41589,15.79357 1.179,26.14655 -2.19094,10.14029 -8.24503,19.96081 -17.42863,28.27148 -11.3514,10.27243 -18.03882,11.90878 -33.74366,8.25672 z"
         style="fill:#545455;fill-opacity:1"
         id="path1936" />
    </g>
  </g>
</svg>
