<?xml version="1.0" encoding="UTF-8" standalone="no"?>
<!-- Created with Inkscape (http://www.inkscape.org/) -->

<svg
   xmlns:dc="http://purl.org/dc/elements/1.1/"
   xmlns:cc="http://creativecommons.org/ns#"
   xmlns:rdf="http://www.w3.org/1999/02/22-rdf-syntax-ns#"
   xmlns:svg="http://www.w3.org/2000/svg"
   xmlns="http://www.w3.org/2000/svg"
   xmlns:sodipodi="http://sodipodi.sourceforge.net/DTD/sodipodi-0.dtd"
   xmlns:inkscape="http://www.inkscape.org/namespaces/inkscape"
   id="svg2985"
   version="1.1"
   inkscape:version="0.48.2 r9819"
   width="320"
   height="320"
   sodipodi:docname="paragliding_light.svg"
   inkscape:export-filename="C:\Users\meije\Desktop\parapente_light.png"
   inkscape:export-xdpi="4.5"
   inkscape:export-ydpi="4.5">
  <metadata
     id="metadata2991">
    <rdf:RDF>
      <cc:Work
         rdf:about="">
        <dc:format>image/svg+xml</dc:format>
        <dc:type
           rdf:resource="http://purl.org/dc/dcmitype/StillImage" />
        <dc:title></dc:title>
      </cc:Work>
    </rdf:RDF>
  </metadata>
  <defs
     id="defs2989" />
  <sodipodi:namedview
     pagecolor="#ffffff"
     bordercolor="#666666"
     borderopacity="1"
     objecttolerance="10"
     gridtolerance="10"
     guidetolerance="10"
     inkscape:pageopacity="0"
     inkscape:pageshadow="2"
     inkscape:window-width="1223"
     inkscape:window-height="809"
     id="namedview2987"
     showgrid="false"
     inkscape:zoom="0.70710678"
     inkscape:cx="-3.8688767"
     inkscape:cy="243.10979"
     inkscape:window-x="1878"
     inkscape:window-y="72"
     inkscape:window-maximized="0"
     inkscape:current-layer="svg2985"
     fit-margin-top="0"
     fit-margin-left="0"
     fit-margin-right="0"
     fit-margin-bottom="0" />
  <path
     style="fill:#a9a9aa;fill-opacity:1"
     d="M 5.9531087,101.70644 C 2.6788995,98.69761 0,91.359308 0,85.399103 0,72.900346 13.133193,45.971059 41.387868,27.383002 87.570402,0.02076428 129.00678,-3.4192344 170.47538,2.408716 c 40.84995,5.7410015 62.84725,13.080975 91.90077,30.665102 38.176,23.105334 57.40585,52.575207 57.62111,88.304712 0.14494,24.06405 -5.42919,34.12403 -25.55149,46.11407 -21.97773,13.0956 -46.75937,12.98778 -60.50598,-0.26324 -6.15817,-5.93614 -12.91218,-19.49249 -17.7764,-35.67992 C 207.00657,101.07676 190.62882,75.421913 166.37746,55.556617 147.80708,40.344857 118.87905,26.579072 106.60588,23.514167 92.714636,20.045191 78.466161,29.639993 80.590718,29.206352 92.894097,26.69512 121.09943,42.483107 131.3664,48.522679 c 6.92011,4.070773 9.38885,4.594492 -3.50932,8.395581 -4.4209,1.302839 -22.72758,9.67367 -38.890155,18.607141 C 78.934658,81.070494 61.108699,91.398635 49.461957,99.893858 37.815216,108.38908 13.93194,109.03858 5.9531087,101.70644 z"
     inkscape:connector-curvature="0"
     sodipodi:nodetypes="sscsssssssssssszs"
     id="path2995" />
  <path
     sodipodi:type="arc"
     style="fill:#a9a9aa;fill-opacity:1;stroke:none"
     id="path2996"
     sodipodi:cx="211.42857"
     sodipodi:cy="-2.1428576"
     sodipodi:rx="23.571428"
     sodipodi:ry="23.571428"
     d="m 235,-2.1428576 a 23.571428,23.571428 0 1 1 -47.14285,0 23.571428,23.571428 0 1 1 47.14285,0 z"
     transform="matrix(0.5685493,0.43220705,-0.43220704,0.5685493,8.7106821,65.083119)"
     inkscape:export-xdpi="4"
     inkscape:export-ydpi="4" />
  <rect
     style="fill:#a9a9aa;fill-opacity:1;stroke:none"
     id="rect3769"
     width="35.704956"
     height="84.217377"
     x="155.64491"
     y="112.87232"
     ry="19.259554"
     transform="matrix(0.92606461,0.377365,-0.31654427,0.94857774,0,0)" />
  <rect
     style="fill:#a9a9aa;fill-opacity:1;stroke:none"
     id="rect3769-1"
     width="30.359974"
     height="75.351013"
     x="-97.703766"
     y="232.89066"
     ry="17.231918"
     transform="matrix(0.7985733,-0.60189757,0.68499879,0.72854421,0,0)" />
  <rect
     style="fill:#a9a9aa;fill-opacity:1;stroke:none"
     id="rect3769-1-7"
     width="26.274706"
     height="65.211708"
     x="229.48779"
     y="143.03386"
     ry="14.913175"
     transform="matrix(0.84965772,0.52733458,-0.432022,0.90186307,0,0)" />
  <path
     style="fill:#a9a9aa;fill-opacity:1;stroke:none"
     d="m 122.39142,206.99999 c 0,18.57187 12.01987,59.68097 -4.54423,59.68097 -16.5641,0 -36.656838,-11.42009 -35.445042,-38.47454 0.83102,-18.55326 12.886011,-53.98439 29.386052,-55.43967 6.86973,-0.60589 10.60322,15.66137 10.60322,34.23324 z"
     id="path3830"
     inkscape:connector-curvature="0"
     sodipodi:nodetypes="sssss" />
</svg>
