<?xml version="1.0" encoding="UTF-8" standalone="no"?>
<!-- Created with Inkscape (http://www.inkscape.org/) -->

<svg
   xmlns:dc="http://purl.org/dc/elements/1.1/"
   xmlns:cc="http://creativecommons.org/ns#"
   xmlns:rdf="http://www.w3.org/1999/02/22-rdf-syntax-ns#"
   xmlns:svg="http://www.w3.org/2000/svg"
   xmlns="http://www.w3.org/2000/svg"
   xmlns:sodipodi="http://sodipodi.sourceforge.net/DTD/sodipodi-0.dtd"
   xmlns:inkscape="http://www.inkscape.org/namespaces/inkscape"
   id="svg2985"
   version="1.1"
   inkscape:version="0.48.2 r9819"
   width="91.891983"
   height="91.919846"
   sodipodi:docname="paragliding_light.svg"
   inkscape:export-filename="C:\Documents and Settings\Compaq_Propriétaire\Mes documents\Camptocamp\V5\Design\Pictos\parapente.png"
   inkscape:export-xdpi="156.70573"
   inkscape:export-ydpi="156.70573">
  <metadata
     id="metadata2991">
    <rdf:RDF>
      <cc:Work
         rdf:about="">
        <dc:format>image/svg+xml</dc:format>
        <dc:type
           rdf:resource="http://purl.org/dc/dcmitype/StillImage" />
        <dc:title></dc:title>
      </cc:Work>
    </rdf:RDF>
  </metadata>
  <defs
     id="defs2989" />
  <sodipodi:namedview
     pagecolor="#ffffff"
     bordercolor="#666666"
     borderopacity="1"
     objecttolerance="10"
     gridtolerance="10"
     guidetolerance="10"
     inkscape:pageopacity="0"
     inkscape:pageshadow="2"
     inkscape:window-width="1280"
     inkscape:window-height="964"
     id="namedview2987"
     showgrid="false"
     inkscape:zoom="6.6017699"
     inkscape:cx="48.710456"
     inkscape:cy="46.633294"
     inkscape:window-x="-4"
     inkscape:window-y="-4"
     inkscape:window-maximized="1"
     inkscape:current-layer="svg2985"
     fit-margin-top="0"
     fit-margin-left="0"
     fit-margin-right="0"
     fit-margin-bottom="0" />
  <path
     style="fill:#a9a9aa;fill-opacity:1"
     d="m 31.848374,87.886504 c -1.229216,-2.914133 -1.118348,-4.687211 0.457235,-7.312562 1.94131,-3.234753 1.736824,-3.742559 -3.068953,-7.621268 -4.739884,-3.825525 -5.087659,-4.654592 -4.378513,-10.437942 0.423684,-3.45529 2.939719,-5.694453 4.182509,-6.5298 1.242788,-0.835349 1.598041,-2.973994 1.9164,-4.493566 0.422292,-2.015668 1.620718,-5.189442 4.892838,-4.669896 2.378505,0.377658 3.230999,0.681077 4.737498,3.814074 1.244725,3.307312 -0.58827,5.418032 -2.151887,7.633485 -4.849551,6.871206 2.844526,11.688294 4.737732,13.611289 3.445813,3.500042 3.212234,8.236634 -0.496147,10.060996 -1.992931,0.980433 -3.043574,2.928982 -3.043574,5.644685 0,5.620227 -5.452441,5.830687 -7.785138,0.300505 z"
     id="path2999"
     inkscape:connector-curvature="0" />
  <path
     style="fill:#a9a9aa;fill-opacity:1"
     d="M 14.103197,28.945499 C 9.5279538,31.201035 4.0007298,31.321282 1.7095092,29.215127 0.7692793,28.350842 0,26.242918 0,24.530852 0,20.94059 3.7713598,13.205165 11.885041,7.8657545 25.14693,0.00596453 37.0459,-0.98217347 48.954125,0.69190253 60.684696,2.3410025 67.001494,4.4494065 75.344576,9.5004385 86.307288,16.137435 91.829378,24.602642 91.891194,34.865925 c 0.04162,6.912387 -1.559061,9.802113 -7.33743,13.246244 C 78.242586,51.873874 71.126231,51.842905 67.17872,48.036556 65.410326,46.3314 63.470826,42.437346 62.074007,37.787514 59.444511,29.034252 54.741438,21.664909 47.777356,15.958612 42.444642,11.589041 33.9001,8.3016075 30.613203,6.7544335 c -3.286895,-1.547174 -8.30883,2.887198 -7.901182,3.3580245 1.696465,1.959385 16.535754,7.36983 9.943729,8.206368 -2.127949,0.270039 -2.949801,0.977277 -5.309313,1.94191 -2.359513,0.964633 -3.589321,2.131203 -6.824202,3.888328"
     id="path2995"
     inkscape:connector-curvature="0"
     sodipodi:nodetypes="csscsssssssssssc" />
</svg>
