<?xml version="1.0" encoding="UTF-8" standalone="no"?>
<!-- Created with Inkscape (http://www.inkscape.org/) -->

<svg
   xmlns:dc="http://purl.org/dc/elements/1.1/"
   xmlns:cc="http://creativecommons.org/ns#"
   xmlns:rdf="http://www.w3.org/1999/02/22-rdf-syntax-ns#"
   xmlns:svg="http://www.w3.org/2000/svg"
   xmlns="http://www.w3.org/2000/svg"
   xmlns:xlink="http://www.w3.org/1999/xlink"
   xmlns:sodipodi="http://sodipodi.sourceforge.net/DTD/sodipodi-0.dtd"
   xmlns:inkscape="http://www.inkscape.org/namespaces/inkscape"
   width="320"
   height="320"
   id="svg2"
   version="1.1"
   inkscape:version="0.48.2 r9819"
   sodipodi:docname="people.svg"
   inkscape:export-filename="/home/tai/svgc2c/people.png"
   inkscape:export-xdpi="4.5"
   inkscape:export-ydpi="4.5">
  <defs
     id="defs4">
    <linearGradient
       id="linearGradient3849">
      <stop
         style="stop-color:#f0933b;stop-opacity:1;"
         offset="0"
         id="stop3851" />
      <stop
         style="stop-color:#f6c392;stop-opacity:1;"
         offset="1"
         id="stop3853" />
    </linearGradient>
    <linearGradient
       id="linearGradient3811">
      <stop
         style="stop-color:#dadbc5;stop-opacity:1;"
         offset="0"
         id="stop3813" />
      <stop
         style="stop-color:#f5f7e6;stop-opacity:1;"
         offset="1"
         id="stop3815" />
    </linearGradient>
    <linearGradient
       id="linearGradient3802">
      <stop
         style="stop-color:#ce9f16;stop-opacity:1;"
         offset="0"
         id="stop3804" />
      <stop
         style="stop-color:#e2b126;stop-opacity:1;"
         offset="1"
         id="stop3806" />
    </linearGradient>
    <linearGradient
       inkscape:collect="always"
       xlink:href="#linearGradient3802"
       id="linearGradient3950"
       gradientUnits="userSpaceOnUse"
       gradientTransform="matrix(0.77162659,0,0,0.77162659,13.091085,805.17481)"
       x1="213.40758"
       y1="85.29306"
       x2="157.57539"
       y2="38.826046" />
    <linearGradient
       inkscape:collect="always"
       xlink:href="#linearGradient3811"
       id="linearGradient3953"
       gradientUnits="userSpaceOnUse"
       gradientTransform="matrix(0.80463732,0,0,0.80463732,-0.59420418,803.30321)"
       x1="119.24062"
       y1="103.95077"
       x2="223.55612"
       y2="128.16853" />
    <linearGradient
       inkscape:collect="always"
       xlink:href="#linearGradient3849"
       id="linearGradient3956"
       gradientUnits="userSpaceOnUse"
       x1="160.89984"
       y1="300.12253"
       x2="160.89984"
       y2="137.48018"
       gradientTransform="matrix(0.77162659,0,0,0.77162659,16.97691,813.8856)" />
    <linearGradient
       inkscape:collect="always"
       xlink:href="#linearGradient3802"
       id="linearGradient3965"
       gradientUnits="userSpaceOnUse"
       gradientTransform="matrix(0.77162659,0,0,0.77162659,84.893145,758.70779)"
       x1="213.40758"
       y1="85.29306"
       x2="157.57539"
       y2="38.826046" />
    <linearGradient
       inkscape:collect="always"
       xlink:href="#linearGradient3811"
       id="linearGradient3968"
       gradientUnits="userSpaceOnUse"
       gradientTransform="matrix(0.80463732,0,0,0.80463732,71.207856,756.83619)"
       x1="119.24062"
       y1="103.95077"
       x2="223.55612"
       y2="128.16853" />
    <linearGradient
       inkscape:collect="always"
       xlink:href="#linearGradient3849"
       id="linearGradient3971"
       gradientUnits="userSpaceOnUse"
       x1="160.89984"
       y1="300.12253"
       x2="160.89984"
       y2="137.48018"
       gradientTransform="matrix(0.77162659,0,0,0.77162659,86.738491,768.6287)" />
    <linearGradient
       inkscape:collect="always"
       xlink:href="#linearGradient3802"
       id="linearGradient3980"
       gradientUnits="userSpaceOnUse"
       gradientTransform="matrix(0.77162659,0,0,0.77162659,-24.325165,717.29153)"
       x1="213.40758"
       y1="85.29306"
       x2="157.57539"
       y2="38.826046" />
    <linearGradient
       inkscape:collect="always"
       xlink:href="#linearGradient3811"
       id="linearGradient3983"
       gradientUnits="userSpaceOnUse"
       gradientTransform="matrix(0.80463732,0,0,0.80463732,-38.010454,715.41993)"
       x1="119.24062"
       y1="103.95077"
       x2="223.55612"
       y2="128.16853" />
    <linearGradient
       inkscape:collect="always"
       xlink:href="#linearGradient3849"
       id="linearGradient3986"
       gradientUnits="userSpaceOnUse"
       x1="160.89984"
       y1="300.12253"
       x2="160.89984"
       y2="137.48018"
       gradientTransform="matrix(0.77162659,0,0,0.77162659,-19.229182,727.21244)" />
  </defs>
  <sodipodi:namedview
     id="base"
     pagecolor="#ffffff"
     bordercolor="#666666"
     borderopacity="1.0"
     inkscape:pageopacity="0.0"
     inkscape:pageshadow="2"
     inkscape:zoom="0.49497475"
     inkscape:cx="-144.53614"
     inkscape:cy="294.10882"
     inkscape:document-units="px"
     inkscape:current-layer="layer1"
     showgrid="false"
     inkscape:window-width="1280"
     inkscape:window-height="776"
     inkscape:window-x="0"
     inkscape:window-y="24"
     inkscape:window-maximized="1">
    <inkscape:grid
       type="xygrid"
       id="grid3846"
       empspacing="5"
       visible="true"
       enabled="true"
       snapvisiblegridlinesonly="true" />
  </sodipodi:namedview>
  <metadata
     id="metadata7">
    <rdf:RDF>
      <cc:Work
         rdf:about="">
        <dc:format>image/svg+xml</dc:format>
        <dc:type
           rdf:resource="http://purl.org/dc/dcmitype/StillImage" />
        <dc:title></dc:title>
      </cc:Work>
    </rdf:RDF>
  </metadata>
  <g
     inkscape:label="Calque 1"
     inkscape:groupmode="layer"
     id="layer1"
     transform="translate(0,-732.36218)">
    <path
       sodipodi:nodetypes="cccssccccccsscccc"
       inkscape:connector-curvature="0"
       id="path3022"
       d="m 102.63959,811.36796 c -19.745173,0.41631 -32.34349,12.30531 -44.947246,24.90908 -34.102551,33.83693 -41.11323,41.11323 -41.11323,41.11323 -11.6754257,11.67542 -14.0493102,28.10078 -5.304932,36.84516 8.744378,8.74439 25.193855,6.39461 36.869283,-5.28081 l 1.736159,-1.73616 0,52.4706 52.976986,0 3.68934,0 57.60675,0 0,-52.4706 1.73616,1.73616 c 11.67543,11.67542 28.12491,14.0252 36.86928,5.28081 8.74439,-8.74438 6.3705,-25.16974 -5.30493,-36.84516 0,0 -7.01067,-7.2763 -41.11323,-41.11323 -12.60375,-12.60377 -29.83183,-24.49277 -49.57701,-24.90908 -1.39582,0.002 -2.77791,-0.0136 -4.12338,0 z"
       style="fill:url(#linearGradient3986);fill-opacity:1;stroke:#c2742a;stroke-width:12;stroke-miterlimit:4;stroke-opacity:1;stroke-dasharray:none;stroke-dashoffset:0" />
    <path
       sodipodi:nodetypes="cscsc"
       inkscape:connector-curvature="0"
       id="path3024"
       d="m 152.80354,801.3437 c 0,27.45689 -22.25821,49.71509 -49.71509,49.71509 -27.456884,0 -49.715094,-22.2582 -49.715094,-49.71509 -2.33838,-57.46611 22.25821,-49.71509 49.715094,-49.71509 27.45688,0 50.49455,-26.84781 49.71509,49.71509 z"
       style="fill:url(#linearGradient3983);fill-opacity:1;stroke:#a8a8a8;stroke-width:10;stroke-miterlimit:4;stroke-opacity:1;stroke-dashoffset:0;stroke-dasharray:none" />
    <path
       sodipodi:nodetypes="sssssss"
       inkscape:connector-curvature="0"
       id="path3026"
       d="m 152.25534,767.16021 c 0,7.54451 3.2488,22.4063 -2.09725,22.17185 -11.92369,-0.52293 -32.83213,1.27356 -40.59009,-1.04669 -11.855082,-3.54563 -21.157434,-20.97528 -27.651559,-24.38029 -12.64804,-6.63167 -27.728739,29.87326 -28.118473,11.78191 -0.563804,-26.17218 19.710027,-37.72689 45.888285,-37.72689 26.178247,0 52.569087,3.02186 52.569087,29.20011 z"
       style="fill:url(#linearGradient3980);fill-opacity:1;stroke:#c09107;stroke-width:10;stroke-miterlimit:4;stroke-opacity:1;stroke-dashoffset:0;stroke-dasharray:none" />
    <path
       style="fill:url(#linearGradient3971);fill-opacity:1;stroke:#c2742a;stroke-width:12;stroke-miterlimit:4;stroke-opacity:1;stroke-dasharray:none;stroke-dashoffset:0"
       d="m 208.60726,852.78422 c -19.74517,0.41631 -32.34349,12.30531 -44.94724,24.90908 -34.10256,33.83693 -41.11323,41.11323 -41.11323,41.11323 -11.67543,11.67542 -14.04931,28.10078 -5.30494,36.84516 8.74438,8.74439 25.19386,6.39461 36.86929,-5.28081 l 1.73616,-1.73616 0,52.47058 52.97698,0 3.68934,0 57.60675,0 0,-52.47058 1.73616,1.73616 c 11.67543,11.67542 28.12491,14.0252 36.86928,5.28081 8.74439,-8.74438 6.3705,-25.16974 -5.30493,-36.84516 0,0 -7.01067,-7.2763 -41.11323,-41.11323 -12.60375,-12.60377 -29.83183,-24.49277 -49.57701,-24.90908 -1.39582,0.002 -2.77791,-0.0136 -4.12338,0 z"
       id="path3036"
       inkscape:connector-curvature="0"
       sodipodi:nodetypes="cccssccccccsscccc" />
    <path
       style="fill:url(#linearGradient3968);fill-opacity:1;stroke:#a8a8a8;stroke-width:10;stroke-miterlimit:4;stroke-opacity:1;stroke-dashoffset:0;stroke-dasharray:none"
       d="m 262.02185,842.75996 c 0,27.45689 -22.25821,49.71509 -49.71509,49.71509 -27.45688,0 -49.71509,-22.2582 -49.71509,-49.71509 -2.33838,-57.46611 22.25821,-49.71509 49.71509,-49.71509 27.45688,0 50.49455,-26.84781 49.71509,49.71509 z"
       id="path3038"
       inkscape:connector-curvature="0"
       sodipodi:nodetypes="cscsc" />
    <path
       style="fill:url(#linearGradient3965);fill-opacity:1;stroke:#c09107;stroke-width:10;stroke-miterlimit:4;stroke-opacity:1;stroke-dashoffset:0;stroke-dasharray:none"
       d="m 261.47365,808.57647 c 0,7.54451 3.2488,22.4063 -2.09725,22.17185 -11.92369,-0.52293 -32.83213,1.27356 -40.59009,-1.04669 -11.85508,-3.54563 -21.15743,-20.97528 -27.65156,-24.38029 -12.64804,-6.63167 -27.72874,29.87326 -28.11847,11.78191 -0.56381,-26.17218 19.71003,-37.72689 45.88828,-37.72689 26.17825,0 52.56909,3.02186 52.56909,29.20011 z"
       id="path3040"
       inkscape:connector-curvature="0"
       sodipodi:nodetypes="sssssss" />
    <path
       style="fill:url(#linearGradient3956);fill-opacity:1;stroke:#c2742a;stroke-width:12;stroke-miterlimit:4;stroke-opacity:1;stroke-dasharray:none;stroke-dashoffset:0"
       d="m 138.84568,898.04112 c -19.74517,0.41631 -32.34349,12.30531 -44.947244,24.90908 -34.102551,33.83693 -41.11323,41.11323 -41.11323,41.11323 -11.675426,11.67542 -14.04931,28.10078 -5.304932,36.84517 8.744378,8.7444 25.193855,6.3946 36.869283,-5.28082 l 1.736159,-1.73616 0,52.47058 52.976984,0 3.68934,0 57.60675,0 0,-52.47058 1.73616,1.73616 c 11.67543,11.67542 28.12491,14.02522 36.86928,5.28082 8.74439,-8.74439 6.3705,-25.16975 -5.30493,-36.84517 0,0 -7.01067,-7.2763 -41.11323,-41.11323 -12.60375,-12.60377 -29.83183,-24.49277 -49.57701,-24.90908 -1.39582,0.002 -2.77791,-0.0136 -4.12338,0 z"
       id="rect3766"
       inkscape:connector-curvature="0"
       sodipodi:nodetypes="cccssccccccsscccc" />
    <path
       style="fill:url(#linearGradient3953);fill-opacity:1;stroke:#a8a8a8;stroke-width:10;stroke-miterlimit:4;stroke-opacity:1;stroke-dashoffset:0;stroke-dasharray:none"
       d="m 190.21979,889.22698 c 0,27.45689 -22.25821,49.71509 -49.71509,49.71509 -27.45688,0 -49.715094,-22.2582 -49.715094,-49.71509 -2.33838,-57.46611 22.258214,-49.71509 49.715094,-49.71509 27.45688,0 50.49455,-26.84781 49.71509,49.71509 z"
       id="path3764"
       inkscape:connector-curvature="0"
       sodipodi:nodetypes="cscsc" />
    <path
       style="fill:url(#linearGradient3950);fill-opacity:1;stroke:#c09107;stroke-width:10;stroke-miterlimit:4;stroke-opacity:1;stroke-dashoffset:0;stroke-dasharray:none"
       d="m 189.67159,855.04349 c 0,7.54451 3.2488,22.4063 -2.09725,22.17185 -11.92369,-0.52293 -32.83213,1.27356 -40.59009,-1.04669 -11.85508,-3.54563 -21.15743,-20.97528 -27.65156,-24.38029 -12.64804,-6.63167 -27.728738,29.87326 -28.118472,11.78191 -0.563804,-26.17218 19.710032,-37.72689 45.888282,-37.72689 26.17825,0 52.56909,3.02186 52.56909,29.20011 z"
       id="path3799"
       inkscape:connector-curvature="0"
       sodipodi:nodetypes="sssssss" />
  </g>
</svg>
