<?xml version="1.0" encoding="UTF-8" standalone="no"?>
<!-- Created with Inkscape (http://www.inkscape.org/) -->

<svg
   xmlns:dc="http://purl.org/dc/elements/1.1/"
   xmlns:cc="http://creativecommons.org/ns#"
   xmlns:rdf="http://www.w3.org/1999/02/22-rdf-syntax-ns#"
   xmlns:svg="http://www.w3.org/2000/svg"
   xmlns="http://www.w3.org/2000/svg"
   xmlns:sodipodi="http://sodipodi.sourceforge.net/DTD/sodipodi-0.dtd"
   xmlns:inkscape="http://www.inkscape.org/namespaces/inkscape"
   width="320"
   height="320"
   id="svg2"
   version="1.1"
   inkscape:version="0.48.2 r9819"
   sodipodi:docname="rock_climbing_light.svg"
   inkscape:export-filename="/home/tai/svgc2c/rock_climbing_light.png"
   inkscape:export-xdpi="4.5"
   inkscape:export-ydpi="4.5">
  <defs
     id="defs4" />
  <sodipodi:namedview
     id="base"
     pagecolor="#ffffff"
     bordercolor="#666666"
     borderopacity="1.0"
     inkscape:pageopacity="0.0"
     inkscape:pageshadow="2"
     inkscape:zoom="0.98994949"
     inkscape:cx="90.982093"
     inkscape:cy="103.63873"
     inkscape:document-units="px"
     inkscape:current-layer="layer1"
     showgrid="false"
     inkscape:window-width="1280"
     inkscape:window-height="748"
     inkscape:window-x="0"
     inkscape:window-y="26"
     inkscape:window-maximized="1" />
  <metadata
     id="metadata7">
    <rdf:RDF>
      <cc:Work
         rdf:about="">
        <dc:format>image/svg+xml</dc:format>
        <dc:type
           rdf:resource="http://purl.org/dc/dcmitype/StillImage" />
        <dc:title></dc:title>
      </cc:Work>
    </rdf:RDF>
  </metadata>
  <g
     inkscape:label="Calque 1"
     inkscape:groupmode="layer"
     id="layer1"
     transform="translate(0,-732.36218)">
    <path
       sodipodi:type="arc"
       style="fill:#a9a9aa;fill-opacity:1;stroke:none"
       id="path2996"
       sodipodi:cx="211.42857"
       sodipodi:cy="-2.1428576"
       sodipodi:rx="23.571428"
       sodipodi:ry="23.571428"
       d="m 235,-2.1428576 a 23.571428,23.571428 0 1 1 -47.14285,0 23.571428,23.571428 0 1 1 47.14285,0 z"
       transform="matrix(0.72210885,0.6066047,-0.5489419,0.79796171,125.78971,732.72722)" />
    <rect
       style="fill:#a9a9aa;fill-opacity:1;stroke:none"
       id="rect3769"
       width="47.703949"
       height="112.51945"
       x="502.59738"
       y="718.72723"
       ry="25.731913"
       transform="matrix(0.92606461,0.377365,-0.31654427,0.94857774,0,0)" />
    <rect
       ry="14.149402"
       y="-306.38269"
       x="863.53223"
       height="76.972748"
       width="20.116646"
       id="rect3775"
       style="fill:#a9a9aa;fill-opacity:1;stroke:none"
       transform="matrix(-0.06696841,0.9977551,-0.99665806,-0.08168663,0,0)" />
    <rect
       style="fill:#a9a9aa;fill-opacity:1;stroke:none"
       id="rect3777"
       width="13.942814"
       height="85.942337"
       x="-440.04755"
       y="-895.21234"
       ry="15.798224"
       transform="matrix(-0.90199799,-0.43174022,0.21328442,-0.97699015,0,0)" />
    <rect
       style="fill:#a9a9aa;fill-opacity:1;stroke:none"
       id="rect3779"
       width="26.208759"
       height="77.081062"
       x="979.32715"
       y="-120.50806"
       ry="14.169312"
       transform="matrix(0.1223621,0.99248552,-0.98885639,0.14887258,0,0)" />
    <rect
       ry="11.519256"
       y="298.37723"
       x="903.41058"
       height="62.664749"
       width="25.622908"
       id="rect3793"
       style="fill:#a9a9aa;fill-opacity:1;stroke:none"
       transform="matrix(0.47416594,0.88043549,-0.83551284,0.54947092,0,0)" />
    <path
       transform="translate(0,732.36218)"
       style="fill:#a9a9aa;fill-opacity:1;stroke:none"
       d="m 0,0 167.14286,0 c 0,0 10.35175,32.156812 12.73124,54.871088 2.37949,22.714276 1.81963,62.523992 -1.55208,80.687812 -3.37171,18.16382 -55.27896,111.94201 -60.48054,129.75175 C 112.6399,283.12039 114.10985,320 114.10985,320 L 0,320 z"
       id="rect3831"
       inkscape:connector-curvature="0"
       sodipodi:nodetypes="cczzzccc" />
    <rect
       style="fill:#a9a9aa;fill-opacity:1;stroke:none"
       id="rect3777-7"
       width="19.113806"
       height="76.631744"
       x="624.38171"
       y="-632.09357"
       ry="14.086718"
       transform="matrix(-0.45193329,0.89205174,-0.8504175,-0.52610842,0,0)" />
  </g>
</svg>
