<?xml version="1.0" encoding="UTF-8" standalone="no"?>
<!-- Created with Inkscape (http://www.inkscape.org/) -->

<svg
   xmlns:dc="http://purl.org/dc/elements/1.1/"
   xmlns:cc="http://creativecommons.org/ns#"
   xmlns:rdf="http://www.w3.org/1999/02/22-rdf-syntax-ns#"
   xmlns:svg="http://www.w3.org/2000/svg"
   xmlns="http://www.w3.org/2000/svg"
   xmlns:sodipodi="http://sodipodi.sourceforge.net/DTD/sodipodi-0.dtd"
   xmlns:inkscape="http://www.inkscape.org/namespaces/inkscape"
   width="320"
   height="320"
   id="svg2"
   version="1.1"
   inkscape:version="0.48.2 r9819"
   inkscape:export-filename="/home/tai/svgc2c/skitouring_big.png"
   inkscape:export-xdpi="7.0300002"
   inkscape:export-ydpi="7.0300002"
   sodipodi:docname="skitouring.svg">
  <defs
     id="defs4" />
  <sodipodi:namedview
     id="base"
     pagecolor="#ffffff"
     bordercolor="#666666"
     borderopacity="1.0"
     inkscape:pageopacity="0.0"
     inkscape:pageshadow="2"
     inkscape:zoom="0.49497475"
     inkscape:cx="-64.705414"
     inkscape:cy="194.67693"
     inkscape:document-units="px"
     inkscape:current-layer="layer1"
     showgrid="false"
     inkscape:window-width="1280"
     inkscape:window-height="776"
     inkscape:window-x="0"
     inkscape:window-y="24"
     inkscape:window-maximized="1" />
  <metadata
     id="metadata7">
    <rdf:RDF>
      <cc:Work
         rdf:about="">
        <dc:format>image/svg+xml</dc:format>
        <dc:type
           rdf:resource="http://purl.org/dc/dcmitype/StillImage" />
        <dc:title></dc:title>
      </cc:Work>
    </rdf:RDF>
  </metadata>
  <g
     inkscape:label="Calque 1"
     inkscape:groupmode="layer"
     id="layer1"
     transform="translate(0,-732.36218)">
    <path
       sodipodi:type="arc"
       style="opacity:1;fill:#545455;fill-opacity:1;stroke:none"
       id="path2996"
       sodipodi:cx="90.35714"
       sodipodi:cy="76.071426"
       sodipodi:rx="31.071428"
       sodipodi:ry="31.071428"
       d="m 121.42857,76.071426 a 31.071428,31.071428 0 1 1 -62.142859,0 31.071428,31.071428 0 1 1 62.142859,0 z"
       transform="translate(-7.8571429,725.21932)" />
    <rect
       style="fill:#545455;fill-opacity:1;stroke:none"
       id="rect3766"
       width="107.73049"
       height="35.68428"
       x="136.07143"
       y="739.50507"
       ry="15"
       rx="13.355901" />
    <rect
       style="fill:#545455;fill-opacity:1;stroke:none"
       id="rect3766-9"
       width="159.85039"
       height="60.202141"
       x="117.51273"
       y="783.44861"
       ry="24.538336"
       rx="27.650753" />
    <rect
       ry="15.714286"
       rx="23.070435"
       y="361.74237"
       x="794.34979"
       height="37.702297"
       width="101.24797"
       id="rect3799"
       style="fill:#545455;fill-opacity:1;stroke:none"
       transform="matrix(0.57271019,0.81975792,-0.81975792,0.57271019,0,0)" />
    <rect
       ry="18.507936"
       rx="21.196562"
       y="795.34857"
       x="-395.53766"
       height="44.862736"
       width="160.24019"
       id="rect3801"
       style="fill:#545455;fill-opacity:1;stroke:none"
       transform="matrix(0.8219371,-0.56957827,0.56957827,0.8219371,0,0)" />
    <rect
       rx="11.086713"
       ry="11.641048"
       y="361.17844"
       x="-805.85077"
       height="34.472889"
       width="89.426918"
       id="rect3805"
       style="fill:#545455;fill-opacity:1;stroke:none"
       transform="matrix(0.30494543,-0.95236983,0.95236983,0.30494543,0,0)" />
    <rect
       style="fill:#545455;fill-opacity:1;stroke:none"
       id="rect3807"
       width="81.695892"
       height="30.555109"
       x="-394.28833"
       y="802.3858"
       ry="11.641048"
       rx="18.881935"
       transform="matrix(0.86853372,-0.49563009,0.49563009,0.86853372,0,0)" />
    <rect
       rx="0"
       ry="0"
       y="954.95575"
       x="-384.03381"
       height="16.522343"
       width="283.59769"
       id="rect3809"
       style="fill:#545455;fill-opacity:1;stroke:none"
       transform="matrix(0.90604844,-0.423174,0.423174,0.90604844,0,0)" />
    <rect
       transform="matrix(0.85348825,-0.52111209,0.52111209,0.85348825,0,0)"
       style="fill:#545455;fill-opacity:1;stroke:none"
       id="rect3811"
       width="235.65254"
       height="9.4648714"
       x="-371.15277"
       y="798.40778"
       ry="0"
       rx="0" />
    <rect
       rx="0"
       ry="0"
       y="-152.96994"
       x="-817.08508"
       height="7.9538755"
       width="29.086668"
       id="rect3832"
       style="fill:#545455;fill-opacity:1;stroke:none"
       transform="matrix(-0.52111209,-0.85348825,0.85348825,-0.52111209,0,0)" />
    <path
       transform="matrix(0.90604844,-0.423174,0.423174,0.90604844,0,0)"
       style="fill:#545455;fill-opacity:1;stroke:none"
       d="m -422.75932,949.63467 26.73429,5.64376 12.93301,-0.32878 0,16.52234 -11.60959,-0.49982 z"
       id="rect3836"
       inkscape:connector-curvature="0"
       sodipodi:nodetypes="cccccc" />
  </g>
</svg>
