<?xml version="1.0" encoding="UTF-8" standalone="no"?>
<!-- Created with Inkscape (http://www.inkscape.org/) -->
<svg
   xmlns:dc="http://purl.org/dc/elements/1.1/"
   xmlns:cc="http://creativecommons.org/ns#"
   xmlns:rdf="http://www.w3.org/1999/02/22-rdf-syntax-ns#"
   xmlns:svg="http://www.w3.org/2000/svg"
   xmlns="http://www.w3.org/2000/svg"
   xmlns:sodipodi="http://sodipodi.sourceforge.net/DTD/sodipodi-0.dtd"
   xmlns:inkscape="http://www.inkscape.org/namespaces/inkscape"
   id="svg2466"
   sodipodi:version="0.32"
   inkscape:version="0.46"
   width="80"
   height="80"
   version="1.0"
   sodipodi:docname="snowshoeing-normal.svg"
   inkscape:export-filename="/home/meije/Desktop/snowshoeing16.png"
   inkscape:export-xdpi="17.98"
   inkscape:export-ydpi="17.98"
   inkscape:output_extension="org.inkscape.output.svg.inkscape">
  <metadata
     id="metadata2471">
    <rdf:RDF>
      <cc:Work
         rdf:about="">
        <dc:format>image/svg+xml</dc:format>
        <dc:type
           rdf:resource="http://purl.org/dc/dcmitype/StillImage" />
      </cc:Work>
    </rdf:RDF>
  </metadata>
  <defs
     id="defs2469">
    <inkscape:perspective
       sodipodi:type="inkscape:persp3d"
       inkscape:vp_x="0 : 526.18109 : 1"
       inkscape:vp_y="0 : 1000 : 0"
       inkscape:vp_z="744.09448 : 526.18109 : 1"
       inkscape:persp3d-origin="372.04724 : 350.78739 : 1"
       id="perspective2473" />
  </defs>
  <sodipodi:namedview
     inkscape:window-height="956"
     inkscape:window-width="1274"
     inkscape:pageshadow="2"
     inkscape:pageopacity="0.0"
     guidetolerance="10.0"
     gridtolerance="10.0"
     objecttolerance="10.0"
     borderopacity="1.0"
     bordercolor="#666666"
     pagecolor="#ffffff"
     id="base"
     showgrid="false"
     inkscape:zoom="4.3934901"
     inkscape:cx="17.411683"
     inkscape:cy="30.406356"
     inkscape:window-x="0"
     inkscape:window-y="0"
     inkscape:current-layer="svg2466" />
  <path
     style="fill:#cecccc;fill-opacity:1;stroke:#cecccc;stroke-width:2;stroke-linecap:butt;stroke-miterlimit:4;stroke-dashoffset:0;stroke-opacity:1"
     d="M 1.0242428,54.621544 L 79.000014,59.856562 L 79.113818,79.075756 L 1.1380475,79.075756 L 1.0242428,54.621544 z"
     id="rect2387"
     sodipodi:nodetypes="ccccc" />
  <g
     id="g3982"
     transform="matrix(0.9753191,0,0,0.9763025,5.2480364,1.9609286)">
    <path
       transform="matrix(-3.2153196,-0.5273108,-0.526725,3.2117479,183.76874,-12.482642)"
       d="M 46.995709,12.8353 A 1.8910944,1.8910944 0 1 1 43.21352,12.8353 A 1.8910944,1.8910944 0 1 1 46.995709,12.8353 z"
       sodipodi:ry="1.8910944"
       sodipodi:rx="1.8910944"
       sodipodi:cy="12.8353"
       sodipodi:cx="45.104614"
       id="path2477"
       style="fill:#555555;fill-opacity:1;fill-rule:nonzero;stroke:#555555;stroke-width:0.47192761;stroke-miterlimit:4;stroke-dasharray:none;stroke-dashoffset:0;stroke-opacity:1"
       sodipodi:type="arc" />
    <path
       sodipodi:nodetypes="cccccccccccccccccccccccc"
       id="path2481"
       d="M 49.499985,72.834904 L 42.451727,21.753578 C 45.094505,23.787559 47.126839,25.329252 50.044379,27.957695 L 53.658925,40.324272 C 54.088682,41.246028 56.935719,41.40291 58.108878,39.618553 C 56.705027,34.99392 55.716706,30.223127 54.22736,26.074357 C 50.084276,21.730789 44.072509,15.355813 42.770807,14.447184 C 38.460105,11.889649 38.417103,12.194663 36.470066,12.406501 C 34.280432,12.921615 28.452647,13.362988 28.026108,17.708293 C 27.27305,20.006354 26.64938,23.108564 25.766934,24.602471 C 24.671133,25.888989 17.981231,28.463536 14.170888,31.053473 C 13.367078,32.253528 13.91398,35.087139 15.381131,35.174011 C 19.505152,33.220033 27.814761,29.598283 28.549089,28.637394 C 29.246662,27.550297 29.92894,26.239831 30.59708,24.204709 L 31.551854,23.735024 C 32.288202,27.814009 32.801436,34.411587 33.474881,38.439095 C 29.223476,40.914946 25.163707,42.940807 22.255627,44.716599 C 21.6713,49.507527 20.991628,56.763187 20.772172,63.198606 L 25.656354,63.386746 L 27.217986,47.597053 L 36.965114,42.955255 C 38.323283,41.991771 38.966257,43.361562 39.767798,43.957113 L 44.764179,73.646446 L 49.499985,72.834904 z"
       style="fill:#555555;fill-opacity:1;fill-rule:evenodd;stroke:#555555;stroke-width:1.53681433px;stroke-linecap:butt;stroke-linejoin:round;stroke-opacity:1" />
    <path
       sodipodi:nodetypes="ccccc"
       id="path2483"
       d="M 67.467957,74.363778 C 61.286192,75.345522 45.640367,80.82881 33.345845,78.662766 C 24.483597,76.401805 26.234592,72.474498 26.267916,71.740345 C 27.683486,71.161682 31.279865,72.126593 34.549183,72.472205 C 45.888769,73.612648 56.495032,73.733253 67.467957,74.363778 z"
       style="fill:#555555;fill-opacity:1;fill-rule:evenodd;stroke:#555555;stroke-width:1.53681433px;stroke-linecap:butt;stroke-linejoin:round;stroke-opacity:1" />
    <path
       sodipodi:nodetypes="cccccc"
       id="path2485"
       d="M 47.427595,65.81654 C 35.656007,66.289313 23.397145,67.297725 13.376104,66.244262 C 9.013895,65.445361 3.0321902,66.031836 3.8749687,58.423425 C 4.1734345,57.622958 11.782346,60.033363 12.728859,60.251218 L 19.546916,61.494629 L 47.427595,65.81654 z"
       style="fill:#555555;fill-opacity:1;fill-rule:evenodd;stroke:#555555;stroke-width:1.53681433px;stroke-linecap:butt;stroke-linejoin:round;stroke-opacity:1" />
  </g>
  <rect
     style="fill:#555555;fill-opacity:1;stroke:#555555;stroke-width:2;stroke-linecap:square;stroke-linejoin:miter;stroke-miterlimit:4;stroke-dasharray:none;stroke-opacity:1"
     id="rect2443"
     width="0.45521897"
     height="30.954889"
     x="32.027454"
     y="62.576427"
     ry="0.22760949"
     transform="matrix(0.8750377,-0.4840548,0.4840548,0.8750377,0,0)" />
  <rect
     style="fill:#555555;fill-opacity:1;stroke:#555555;stroke-width:2;stroke-linecap:square;stroke-linejoin:miter;stroke-miterlimit:4;stroke-dasharray:none;stroke-opacity:1"
     id="rect3215"
     width="0.455219"
     height="30.954891"
     x="24.278311"
     y="30.655024"
     ry="0.2276095"
     transform="matrix(0.9906448,0.136466,-0.136466,0.9906448,0,0)" />
</svg>
