<?xml version="1.0" encoding="UTF-8" standalone="no"?>
<!-- Created with Inkscape (http://www.inkscape.org/) -->

<svg
   xmlns:dc="http://purl.org/dc/elements/1.1/"
   xmlns:cc="http://creativecommons.org/ns#"
   xmlns:rdf="http://www.w3.org/1999/02/22-rdf-syntax-ns#"
   xmlns:svg="http://www.w3.org/2000/svg"
   xmlns="http://www.w3.org/2000/svg"
   xmlns:sodipodi="http://sodipodi.sourceforge.net/DTD/sodipodi-0.dtd"
   xmlns:inkscape="http://www.inkscape.org/namespaces/inkscape"
   width="320"
   height="320"
   id="svg2"
   version="1.1"
   inkscape:version="0.48.3.1 r9886"
   inkscape:export-filename="/home/tai/svgc2c/snow_ice_mixed_mini.png"
   inkscape:export-xdpi="4.5"
   inkscape:export-ydpi="4.5"
   sodipodi:docname="snow_ice_mixed.svg">
  <defs
     id="defs4" />
  <sodipodi:namedview
     id="base"
     pagecolor="#ffffff"
     bordercolor="#666666"
     borderopacity="1.0"
     inkscape:pageopacity="0.0"
     inkscape:pageshadow="2"
     inkscape:zoom="0.98994949"
     inkscape:cx="311.62578"
     inkscape:cy="90.161708"
     inkscape:document-units="px"
     inkscape:current-layer="layer1"
     showgrid="false"
     inkscape:window-width="1280"
     inkscape:window-height="747"
     inkscape:window-x="0"
     inkscape:window-y="27"
     inkscape:window-maximized="1"
     showguides="true"
     inkscape:guide-bbox="true">
    <sodipodi:guide
       orientation="-0.70710678,0.70710678"
       position="-331.33003,419.21331"
       id="guide3850" />
  </sodipodi:namedview>
  <metadata
     id="metadata7">
    <rdf:RDF>
      <cc:Work
         rdf:about="">
        <dc:format>image/svg+xml</dc:format>
        <dc:type
           rdf:resource="http://purl.org/dc/dcmitype/StillImage" />
        <dc:title></dc:title>
      </cc:Work>
    </rdf:RDF>
  </metadata>
  <g
     inkscape:label="Calque 1"
     inkscape:groupmode="layer"
     id="layer1"
     transform="translate(0,-732.36218)">
    <path
       sodipodi:type="arc"
       style="opacity:0.98999999;fill:#545455;fill-opacity:1;stroke:none"
       id="path2996"
       sodipodi:cx="211.42857"
       sodipodi:cy="-2.1428576"
       sodipodi:rx="23.571428"
       sodipodi:ry="23.571428"
       d="m 235,-2.1428576 a 23.571428,23.571428 0 1 1 -47.14285,0 23.571428,23.571428 0 1 1 47.14285,0 z"
       transform="matrix(1.0242425,0,0,1.0242425,-44.839836,761.55698)" />
    <path
       style="fill:#cecccc;fill-opacity:1;stroke:none"
       d="m 0,873.51606 70.592917,22.28013 53.427543,78.76577 66.83224,42.51424 25.64967,-12.6037 65.78349,49.3183 L 0,1052.3622 z"
       id="rect3766"
       inkscape:connector-curvature="0"
       sodipodi:nodetypes="cccccccc" />
    <rect
       style="fill:#545455;fill-opacity:1;stroke:none"
       id="rect3769"
       width="53.322289"
       height="122.30377"
       x="46.470768"
       y="805.09937"
       ry="27.969471"
       transform="matrix(0.99056496,-0.13704404,0.12431229,0.99224314,0,0)" />
    <rect
       style="fill:#545455;fill-opacity:1;stroke:none"
       id="rect3771"
       width="44.198265"
       height="103.5651"
       x="93.884949"
       y="793.53259"
       ry="19.037703"
       transform="matrix(0.99568041,-0.09284675,0.13695634,0.99057708,0,0)" />
    <rect
       style="fill:#545455;fill-opacity:1;stroke:none"
       id="rect3779"
       width="24.636864"
       height="78.31823"
       x="728.84381"
       y="443.22968"
       ry="14.396734"
       transform="matrix(0.66973642,0.7425989,-0.69627483,0.71777528,0,0)" />
    <rect
       ry="11.677011"
       y="783.24231"
       x="458.82898"
       height="63.522945"
       width="24.555189"
       id="rect3793"
       style="fill:#545455;fill-opacity:1;stroke:none"
       transform="matrix(0.92560397,0.37849346,-0.3707467,0.92873402,0,0)" />
    <rect
       ry="6.1266689"
       y="798.39545"
       x="-121.72012"
       height="126.96082"
       width="12.738742"
       id="rect3793-8"
       style="fill:#545455;fill-opacity:1;stroke:none"
       transform="matrix(0.97390511,-0.2269556,0.24190415,0.97030015,0,0)" />
    <rect
       style="fill:#545455;fill-opacity:1;stroke:none"
       id="rect3779-5"
       width="25.740551"
       height="77.399345"
       x="454.54147"
       y="806.77814"
       ry="14.227821"
       transform="matrix(0.96853372,0.24888236,-0.31488674,0.94912925,0,0)" />
    <rect
       ry="12.084037"
       y="934.60944"
       x="165.99443"
       height="65.737167"
       width="26.90917"
       id="rect3793-84"
       style="fill:#545455;fill-opacity:1;stroke:none"
       transform="matrix(0.99999972,7.5462043e-4,-8.3170058e-4,0.99999965,0,0)" />
    <rect
       style="fill:#545455;fill-opacity:1;stroke:none"
       id="rect3777-4"
       width="20.854"
       height="41.955677"
       x="820.7782"
       y="-128.75642"
       ry="10.427"
       transform="matrix(0.01233207,0.99992396,-0.99999863,-0.00165736,0,0)" />
    <path
       style="fill:#545455;fill-opacity:1;stroke:none"
       d="m 40.769734,825.71808 c 21.290282,-20.73291 30.225238,-19.26975 40.670768,-22.94492 7.982937,-2.80871 30.148908,-3.82779 30.148908,-3.82779 l 1.42356,12.46485 c 0,0 -19.959136,0.76959 -25.648913,1.80936 -11.962242,2.18597 -21.899709,2.89052 -41.965979,18.75951 -2.040283,-2.88258 -3.438778,-4.68075 -4.628344,-6.26101 z"
       id="path3887"
       inkscape:connector-curvature="0"
       sodipodi:nodetypes="csccscc" />
    <rect
       style="fill:#545455;fill-opacity:1;stroke:none"
       id="rect3777-4-4"
       width="20.854679"
       height="50.144695"
       x="823.16565"
       y="92.21299"
       ry="12.46217"
       transform="matrix(0.30581035,0.95209245,-0.95689989,0.29041797,0,0)" />
  </g>
</svg>
