<?xml version="1.0" encoding="UTF-8" standalone="no"?>
<!-- Generator: Adobe Illustrator 16.0.0, SVG Export Plug-In . SVG Version: 6.00 Build 0)  -->

<svg
   xmlns:dc="http://purl.org/dc/elements/1.1/"
   xmlns:cc="http://creativecommons.org/ns#"
   xmlns:rdf="http://www.w3.org/1999/02/22-rdf-syntax-ns#"
   xmlns:svg="http://www.w3.org/2000/svg"
   xmlns="http://www.w3.org/2000/svg"
   xmlns:sodipodi="http://sodipodi.sourceforge.net/DTD/sodipodi-0.dtd"
   xmlns:inkscape="http://www.inkscape.org/namespaces/inkscape"
   version="1.1"
   x="0px"
   y="0px"
   width="13.37275"
   height="13.37275"
   viewBox="0 0 13.37275 13.37275"
   xml:space="preserve"
   id="svg2"
   inkscape:version="0.48.4 r9939"
   sodipodi:docname="tag.svg"><metadata
   id="metadata15"><rdf:RDF><cc:Work
       rdf:about=""><dc:format>image/svg+xml</dc:format><dc:type
         rdf:resource="http://purl.org/dc/dcmitype/StillImage" /></cc:Work></rdf:RDF></metadata><defs
   id="defs13" /><sodipodi:namedview
   pagecolor="#ffffff"
   bordercolor="#666666"
   borderopacity="1"
   objecttolerance="10"
   gridtolerance="10"
   guidetolerance="10"
   inkscape:pageopacity="0"
   inkscape:pageshadow="2"
   inkscape:window-width="640"
   inkscape:window-height="480"
   id="namedview11"
   showgrid="false"
   fit-margin-top="0"
   fit-margin-left="0"
   fit-margin-right="0"
   fit-margin-bottom="0"
   inkscape:zoom="13.906433"
   inkscape:cx="5.9113305"
   inkscape:cy="7.0964855"
   inkscape:window-x="32"
   inkscape:window-y="400"
   inkscape:window-maximized="0"
   inkscape:current-layer="svg2" />
<g
   id="Icons"
   style="opacity:0.75"
   transform="translate(-5.667,-5)">
	<g
   id="tag">
		<g
   id="g6">
			<path
   d="m 18.748,11.717 c 0.389,0.389 0.389,1.025 0,1.414 l -4.949,4.95 c -0.389,0.389 -1.025,0.389 -1.414,0 l -6.01,-6.01 C 5.986,11.682 5.668,10.914 5.668,10.364 L 5.667,6 c 0,-0.55 0.45,-1 1,-1 h 4.364 c 0.55,0 1.318,0.318 1.707,0.707 l 6.01,6.01 z M 8.104,7.456 C 7.525,8.032 7.526,8.97 8.103,9.549 c 0.578,0.577 1.516,0.577 2.095,0.001 0.576,-0.578 0.576,-1.517 0,-2.095 C 9.617,6.879 8.68,6.878 8.104,7.456 z"
   id="path8"
   inkscape:connector-curvature="0" />
		</g>
	</g>
</g>
<g
   id="Guides"
   style="display:none"
   transform="translate(-5.667,-5)">
</g>
</svg>