<?xml version="1.0" encoding="UTF-8" standalone="no"?>
<!-- Created with Inkscape (http://www.inkscape.org/) -->

<svg
   xmlns:dc="http://purl.org/dc/elements/1.1/"
   xmlns:cc="http://creativecommons.org/ns#"
   xmlns:rdf="http://www.w3.org/1999/02/22-rdf-syntax-ns#"
   xmlns:svg="http://www.w3.org/2000/svg"
   xmlns="http://www.w3.org/2000/svg"
   xmlns:xlink="http://www.w3.org/1999/xlink"
   xmlns:sodipodi="http://sodipodi.sourceforge.net/DTD/sodipodi-0.dtd"
   xmlns:inkscape="http://www.inkscape.org/namespaces/inkscape"
   width="320"
   height="320"
   id="svg2"
   version="1.1"
   inkscape:version="0.48.2 r9819"
   sodipodi:docname="tools.svg"
   inkscape:export-filename="/home/tai/svgc2c/tools.png"
   inkscape:export-xdpi="4.5"
   inkscape:export-ydpi="4.5">
  <defs
     id="defs4">
    <linearGradient
       id="linearGradient3815">
      <stop
         style="stop-color:#ff9c56;stop-opacity:1;"
         offset="0"
         id="stop3817" />
      <stop
         style="stop-color:#ffcea8;stop-opacity:1;"
         offset="1"
         id="stop3819" />
    </linearGradient>
    <linearGradient
       id="linearGradient3807">
      <stop
         style="stop-color:#c0c0c0;stop-opacity:1;"
         offset="0"
         id="stop3809" />
      <stop
         style="stop-color:#e4e4e4;stop-opacity:1;"
         offset="1"
         id="stop3811" />
    </linearGradient>
    <linearGradient
       inkscape:collect="always"
       xlink:href="#linearGradient3807"
       id="linearGradient3813"
       x1="250.80428"
       y1="141.46075"
       x2="206.49886"
       y2="44.486111"
       gradientUnits="userSpaceOnUse" />
    <linearGradient
       inkscape:collect="always"
       xlink:href="#linearGradient3815"
       id="linearGradient3821"
       x1="127.27922"
       y1="1000.3569"
       x2="57.942936"
       y2="923.58527"
       gradientUnits="userSpaceOnUse" />
  </defs>
  <sodipodi:namedview
     id="base"
     pagecolor="#ffffff"
     bordercolor="#666666"
     borderopacity="1.0"
     inkscape:pageopacity="0.0"
     inkscape:pageshadow="2"
     inkscape:zoom="0.35"
     inkscape:cx="442.30651"
     inkscape:cy="427.45461"
     inkscape:document-units="px"
     inkscape:current-layer="layer1"
     showgrid="false"
     inkscape:window-width="1280"
     inkscape:window-height="776"
     inkscape:window-x="0"
     inkscape:window-y="24"
     inkscape:window-maximized="1" />
  <metadata
     id="metadata7">
    <rdf:RDF>
      <cc:Work
         rdf:about="">
        <dc:format>image/svg+xml</dc:format>
        <dc:type
           rdf:resource="http://purl.org/dc/dcmitype/StillImage" />
        <dc:title></dc:title>
      </cc:Work>
    </rdf:RDF>
  </metadata>
  <g
     inkscape:label="Calque 1"
     inkscape:groupmode="layer"
     id="layer1"
     transform="translate(0,-732.3622)">
    <path
       style="fill:url(#linearGradient3813);stroke:#747171;stroke-width:10;stroke-miterlimit:4;stroke-opacity:1;stroke-dasharray:none;stroke-dashoffset:0;fill-opacity:1"
       d="M 241.6875 7.40625 C 200.27408 7.40625 166.71875 40.96159 166.71875 82.375 C 166.71875 94.081985 169.37206 105.15887 174.15625 115.03125 L 144.6875 144.5 L 174.6875 174.5 L 202.75 146.4375 C 214.10337 153.35376 227.42084 157.34375 241.6875 157.34375 C 283.10092 157.34375 316.65625 123.78842 316.65625 82.375 C 316.65625 78.58939 316.35388 74.85366 315.8125 71.21875 L 271.96875 71.21875 C 271.98955 71.59541 272 71.96187 272 72.34375 C 272 83.54864 262.92365 92.625 251.71875 92.625 C 240.51384 92.625 231.4375 83.54864 231.4375 72.34375 C 231.4375 61.44659 240.03379 52.5739 250.8125 52.09375 L 250.8125 7.96875 C 247.81546 7.60438 244.78289 7.40625 241.6875 7.40625 z "
       transform="translate(0,732.3622)"
       id="path3769" />
    <path
       style="fill:url(#linearGradient3821);fill-opacity:1;stroke:#c56d1b;stroke-width:10;stroke-miterlimit:4;stroke-opacity:1;stroke-dasharray:none;stroke-dashoffset:0"
       d="M 43.706927,1041.0005 C 30.581675,1035.5119 16.799214,1024.6822 11.255914,1011.5799 6.0627095,999.30523 4.3721984,977.44825 10.318087,971.60663 91.723746,891.62854 135.07863,847.71881 135.07863,847.71881 l 69.28566,69.49492 c -0.11346,-0.22693 -81.18295,86.53717 -118.663713,124.72457 -5.64649,5.7529 -28.302783,4.7873 -41.99365,-0.9378 z"
       id="rect2996"
       inkscape:connector-curvature="0"
       sodipodi:nodetypes="sssccss" />
    <path
       style="fill:none;stroke:#e0832c;stroke-width:10;stroke-linecap:butt;stroke-linejoin:miter;stroke-miterlimit:4;stroke-opacity:1;stroke-dasharray:none"
       d="m 47.47717,270.50253 95.45942,-98.48988"
       id="path2999"
       inkscape:connector-curvature="0"
       transform="translate(0,732.3622)"
       sodipodi:nodetypes="cc" />
  </g>
</svg>
