<?xml version="1.0" encoding="UTF-8" standalone="no"?>
<!-- Created with Inkscape (http://www.inkscape.org/) -->

<svg
   xmlns:dc="http://purl.org/dc/elements/1.1/"
   xmlns:cc="http://creativecommons.org/ns#"
   xmlns:rdf="http://www.w3.org/1999/02/22-rdf-syntax-ns#"
   xmlns:svg="http://www.w3.org/2000/svg"
   xmlns="http://www.w3.org/2000/svg"
   xmlns:sodipodi="http://sodipodi.sourceforge.net/DTD/sodipodi-0.dtd"
   xmlns:inkscape="http://www.inkscape.org/namespaces/inkscape"
   width="320"
   height="320"
   id="svg3019"
   version="1.1"
   inkscape:version="0.48.2 r9819"
   sodipodi:docname="train.svg"
   inkscape:export-filename="/home/tai/svgc2c/train.png"
   inkscape:export-xdpi="4.5"
   inkscape:export-ydpi="4.5">
  <defs
     id="defs3021" />
  <sodipodi:namedview
     id="base"
     pagecolor="#ffffff"
     bordercolor="#666666"
     borderopacity="1.0"
     inkscape:pageopacity="0.0"
     inkscape:pageshadow="2"
     inkscape:zoom="1.4"
     inkscape:cx="64.032934"
     inkscape:cy="162.74834"
     inkscape:document-units="px"
     inkscape:current-layer="layer1"
     showgrid="false"
     fit-margin-top="0"
     fit-margin-left="0"
     fit-margin-right="0"
     fit-margin-bottom="0"
     inkscape:window-width="1280"
     inkscape:window-height="776"
     inkscape:window-x="0"
     inkscape:window-y="24"
     inkscape:window-maximized="1" />
  <metadata
     id="metadata3024">
    <rdf:RDF>
      <cc:Work
         rdf:about="">
        <dc:format>image/svg+xml</dc:format>
        <dc:type
           rdf:resource="http://purl.org/dc/dcmitype/StillImage" />
        <dc:title></dc:title>
      </cc:Work>
    </rdf:RDF>
  </metadata>
  <g
     inkscape:label="Calque 1"
     inkscape:groupmode="layer"
     id="layer1"
     transform="translate(-346.4375,-249.25)">
    <path
       inkscape:connector-curvature="0"
       style="fill:#545455;fill-opacity:1;stroke:#545455;stroke-width:4.64965916;stroke-linecap:round;stroke-miterlimit:4;stroke-opacity:1;stroke-dashoffset:0"
       d="m 444.76506,251.57483 c -44.53441,0.80139 -54.96848,6.4272 -55.76988,55.76982 l 0,140.03519 c 0.8014,42.93162 11.23546,55.76983 55.76987,55.76983 l 122.53079,0 c 45.3357,-0.80135 55.76982,-6.4272 55.76982,-55.76983 l 0,-140.03519 c -0.80139,-46.93849 -12.83825,-54.96843 -55.76982,-55.76982 l -122.53079,0 z m -24.69618,24.01766 c 25.1099,0.53422 49.65709,0.009 74.7669,0.54277 0.13374,28.84959 0.40903,58.67878 0.54277,87.92907 -28.62632,0.22319 -27.40035,0.009 -85.89372,0.13548 -0.15632,-26.33478 -0.25054,-52.63851 -0.40686,-78.97333 0.35171,-9.11923 5.88386,-9.76304 10.99113,-9.63421 z m 170.97324,0.13547 c 5.10731,-0.12896 10.63933,0.51499 10.99114,9.63421 -0.15633,26.33482 -0.38647,52.63855 -0.54278,78.97333 -58.49328,-0.12592 -57.13166,0.0877 -85.75798,-0.13547 0.13374,-29.25025 0.40902,-58.94379 0.54277,-87.79338 25.10981,-0.53422 49.657,-0.14416 74.76685,-0.67847 z m -11.94099,142.07059 c 11.98437,0 21.71088,9.72647 21.71088,21.71088 0,11.98436 -9.72652,21.71088 -21.71088,21.71088 -11.98441,0 -21.71087,-9.72647 -21.71087,-21.71088 0,-11.98445 9.72646,-21.71088 21.71087,-21.71088 z m -140.84934,2.44247 c 11.98437,-4e-5 21.71088,9.72643 21.71088,21.71088 0,11.98441 -9.72652,21.71089 -21.71088,21.71089 -11.98449,-5e-5 -21.71092,-9.72644 -21.71092,-21.71089 0,-11.98449 9.72643,-21.71088 21.71092,-21.71088 z m -4.61356,83.31551 -46.54275,63.36864 21.03242,-0.54278 43.15042,-62.82586 -17.64009,0 z m 128.0942,0 43.15038,62.82586 20.89672,0.54278 -46.40701,-63.36864 -17.64009,0 z"
       id="path3410"
       inkscape:export-filename="/var/www/camptocamp.org/web/static/images/picto/train_big.png"
       inkscape:export-xdpi="19.539782"
       inkscape:export-ydpi="19.539782" />
  </g>
</svg>
