<?xml version="1.0" encoding="UTF-8" standalone="no"?>
<!-- Created with Inkscape (http://www.inkscape.org/) -->

<svg
   xmlns:dc="http://purl.org/dc/elements/1.1/"
   xmlns:cc="http://creativecommons.org/ns#"
   xmlns:rdf="http://www.w3.org/1999/02/22-rdf-syntax-ns#"
   xmlns:svg="http://www.w3.org/2000/svg"
   xmlns="http://www.w3.org/2000/svg"
   xmlns:sodipodi="http://sodipodi.sourceforge.net/DTD/sodipodi-0.dtd"
   xmlns:inkscape="http://www.inkscape.org/namespaces/inkscape"
   width="57.125"
   height="73.75"
   id="svg3019"
   version="1.1"
   inkscape:version="0.48.2 r9819"
   sodipodi:docname="Nouveau document 2">
  <defs
     id="defs3021" />
  <sodipodi:namedview
     id="base"
     pagecolor="#ffffff"
     bordercolor="#666666"
     borderopacity="1.0"
     inkscape:pageopacity="0.0"
     inkscape:pageshadow="2"
     inkscape:zoom="1.4"
     inkscape:cx="4.0445596"
     inkscape:cy="48.462627"
     inkscape:document-units="px"
     inkscape:current-layer="layer1"
     showgrid="false"
     fit-margin-top="0"
     fit-margin-left="0"
     fit-margin-right="0"
     fit-margin-bottom="0"
     inkscape:window-width="570"
     inkscape:window-height="505"
     inkscape:window-x="235"
     inkscape:window-y="75"
     inkscape:window-maximized="0" />
  <metadata
     id="metadata3024">
    <rdf:RDF>
      <cc:Work
         rdf:about="">
        <dc:format>image/svg+xml</dc:format>
        <dc:type
           rdf:resource="http://purl.org/dc/dcmitype/StillImage" />
        <dc:title></dc:title>
      </cc:Work>
    </rdf:RDF>
  </metadata>
  <g
     inkscape:label="Calque 1"
     inkscape:groupmode="layer"
     id="layer1"
     transform="translate(-346.4375,-495.5)">
    <path
       inkscape:connector-curvature="0"
       style="fill:#545455;fill-opacity:1;stroke:#545455;stroke-width:1.07081306;stroke-linecap:round;stroke-miterlimit:4;stroke-opacity:1;stroke-dashoffset:0"
       d="m 360.79688,496.04971 c -10.25624,0.18456 -12.6592,1.48018 -12.84376,12.84375 l 0,32.25 c 0.18456,9.88712 2.58752,12.84375 12.84376,12.84375 l 28.21875,0 c 10.44078,-0.18455 12.84375,-1.48018 12.84375,-12.84375 l 0,-32.25 c -0.18456,-10.8099 -2.95664,-12.65919 -12.84375,-12.84375 l -28.21875,0 z m -5.68751,5.53125 c 5.78279,0.12303 11.43599,0.002 17.21876,0.125 0.0308,6.64404 0.0942,13.51368 0.125,20.25 -6.59262,0.0514 -6.31028,0.002 -19.78126,0.0312 -0.036,-6.06488 -0.0577,-12.12261 -0.0937,-18.1875 0.081,-2.10015 1.35505,-2.24842 2.53125,-2.21875 z m 39.37501,0.0312 c 1.17621,-0.0297 2.45023,0.1186 2.53125,2.21875 -0.036,6.06489 -0.089,12.12262 -0.125,18.1875 -13.47096,-0.029 -13.15738,0.0202 -19.75,-0.0312 0.0308,-6.73631 0.0942,-13.57471 0.125,-20.21875 5.78277,-0.12303 11.43597,-0.0332 17.21875,-0.15625 z m -2.75,32.71875 c 2.75999,0 5,2.24 5,5 0,2.75999 -2.24001,5 -5,5 -2.76,0 -5,-2.24 -5,-5 0,-2.76001 2.24,-5 5,-5 z m -32.4375,0.5625 c 2.75999,-10e-6 5,2.23999 5,5 0,2.76 -2.24001,5 -5,5 -2.76002,-10e-6 -5.00001,-2.23999 -5.00001,-5 0,-2.76002 2.23999,-5 5.00001,-5 z m -1.0625,19.1875 -10.71876,14.59375 4.84375,-0.125 9.93751,-14.46875 -4.0625,0 z m 29.5,0 9.9375,14.46875 4.8125,0.125 -10.6875,-14.59375 -4.0625,0 z"
       id="path3410"
       inkscape:export-filename="/var/www/camptocamp.org/web/static/images/picto/train_big.png"
       inkscape:export-xdpi="19.539782"
       inkscape:export-ydpi="19.539782" />
  </g>
</svg>
