<?xml version="1.0" encoding="UTF-8" standalone="no"?>
<!-- Created with Inkscape (http://www.inkscape.org/) -->

<svg
   xmlns:dc="http://purl.org/dc/elements/1.1/"
   xmlns:cc="http://creativecommons.org/ns#"
   xmlns:rdf="http://www.w3.org/1999/02/22-rdf-syntax-ns#"
   xmlns:svg="http://www.w3.org/2000/svg"
   xmlns="http://www.w3.org/2000/svg"
   xmlns:xlink="http://www.w3.org/1999/xlink"
   xmlns:sodipodi="http://sodipodi.sourceforge.net/DTD/sodipodi-0.dtd"
   xmlns:inkscape="http://www.inkscape.org/namespaces/inkscape"
   width="320"
   height="320"
   id="svg3034"
   version="1.1"
   inkscape:version="0.48.2 r9819"
   sodipodi:docname="warning.svg"
   inkscape:export-filename="/home/tai/svgc2c/warning.png"
   inkscape:export-xdpi="9"
   inkscape:export-ydpi="9">
  <defs
     id="defs3036">
    <linearGradient
       id="linearGradient5032">
      <stop
         style="stop-color:#ce1212;stop-opacity:1"
         offset="0"
         id="stop5034" />
      <stop
         style="stop-color:#ff1212;stop-opacity:1"
         offset="1"
         id="stop5036" />
    </linearGradient>
    <linearGradient
       inkscape:collect="always"
       xlink:href="#linearGradient5032"
       id="linearGradient3886"
       gradientUnits="userSpaceOnUse"
       gradientTransform="matrix(4.2974557,-1.7856979,1.7800629,4.3110598,354.7813,837.1057)"
       x1="-6.6274176"
       y1="48.000011"
       x2="15.999988"
       y2="-6.6274176" />
    <linearGradient
       inkscape:collect="always"
       xlink:href="#linearGradient5032"
       id="linearGradient3914"
       gradientUnits="userSpaceOnUse"
       gradientTransform="matrix(3.8677867,-1.6020887,1.6020883,3.8677877,-15.035881,819.85988)"
       x1="-6.6274176"
       y1="48.000011"
       x2="15.999988"
       y2="-6.6274176" />
  </defs>
  <sodipodi:namedview
     id="base"
     pagecolor="#ffffff"
     bordercolor="#666666"
     borderopacity="1.0"
     inkscape:pageopacity="0.0"
     inkscape:pageshadow="2"
     inkscape:zoom="0.49497475"
     inkscape:cx="-88.893022"
     inkscape:cy="59.847155"
     inkscape:document-units="px"
     inkscape:current-layer="layer1"
     showgrid="true"
     inkscape:window-width="1280"
     inkscape:window-height="776"
     inkscape:window-x="0"
     inkscape:window-y="24"
     inkscape:window-maximized="1">
    <inkscape:grid
       type="xygrid"
       id="grid3918"
       empspacing="5"
       visible="true"
       enabled="true"
       snapvisiblegridlinesonly="true" />
  </sodipodi:namedview>
  <metadata
     id="metadata3039">
    <rdf:RDF>
      <cc:Work
         rdf:about="">
        <dc:format>image/svg+xml</dc:format>
        <dc:type
           rdf:resource="http://purl.org/dc/dcmitype/StillImage" />
        <dc:title></dc:title>
      </cc:Work>
    </rdf:RDF>
  </metadata>
  <g
     inkscape:label="Calque 1"
     inkscape:groupmode="layer"
     id="layer1"
     transform="translate(0,-732.36218)">
    <path
       inkscape:connector-curvature="0"
       id="path3717"
       style="fill:#000000;fill-opacity:1"
       d="m 93.725933,732.36218 132.548317,7e-5 93.72576,93.72588 -7e-5,132.54837 -93.72586,93.7257 -132.548317,0 L -2.554188e-6,958.63636 6.7447198e-5,826.08797 93.725933,732.36218 z" />
    <path
       inkscape:connector-curvature="0"
       id="path3741"
       style="fill:#ffffff;fill-opacity:1"
       d="m 97.60129,741.71796 124.79774,6e-5 88.24529,88.24539 -6e-5,124.79784 -88.24537,88.24515 -124.79773,0 -88.2452973,-88.24529 5e-5,-124.79782 88.2453773,-88.24533 z" />
    <path
       inkscape:connector-curvature="0"
       id="path3743"
       style="fill:url(#linearGradient3914);fill-opacity:1"
       d="m 108.73328,768.59303 102.53373,4e-5 72.50227,72.50233 -4e-5,102.53378 -72.5023,72.50232 -102.53373,0 -72.502267,-72.50245 3.6e-5,-102.53372 72.502301,-72.50229 z" />
    <path
       inkscape:connector-curvature="0"
       id="path14158"
       style="fill:#ffffff;fill-opacity:1;fill-rule:evenodd;stroke:#000000;stroke-width:9.21879101;stroke-linecap:butt;stroke-linejoin:round;stroke-miterlimit:4;stroke-opacity:1;stroke-dasharray:none"
       d="m 161.52731,994.11739 c -36.57813,0 -71.155853,0 -71.155853,-97.58345 -0.0739,-88.28977 16.048993,-71.26886 23.718363,-64.03363 l 0.48931,-15.2374 c 0.36228,-11.2803 27.18122,-10.59975 27.20697,-1.70471 l 0.0656,-13.97195 c 0.0694,-14.78565 31.09535,-13.29191 31.35237,-3.48132 l 0.49936,19.06112 c 0.28574,-10.74581 24.39656,-14.80527 25.1148,6.09899 0,32.52779 -0.28271,67.54172 -0.71291,77.91572 12.57372,13.94048 26.43188,-54.10077 50.72201,-41.61239 10.85916,11.32663 -31.4343,91.194 -36.00653,99.61641 -4.36547,8.04137 -23.85996,34.93261 -51.29356,34.93261 z" />
    <path
       inkscape:connector-curvature="0"
       id="path16444"
       style="color:#000000;fill:#ffffff;fill-opacity:1;fill-rule:evenodd;stroke:#000000;stroke-width:4.64682961;stroke-linecap:butt;stroke-linejoin:miter;stroke-miterlimit:4;stroke-opacity:1;stroke-dasharray:none;stroke-dashoffset:0;marker:none;visibility:visible;display:inline;overflow:visible;font-family:Bitstream Vera Sans"
       d="m 143.73615,803.59733 0,83.64295" />
    <path
       inkscape:connector-curvature="0"
       id="path16442"
       style="fill:#ffffff;fill-opacity:1;fill-rule:evenodd;stroke:#000000;stroke-width:4.64682961;stroke-linecap:butt;stroke-linejoin:miter;stroke-miterlimit:4;stroke-opacity:1;stroke-dasharray:none"
       d="m 171.03625,803.59733 0.58086,88.28977" />
    <path
       inkscape:connector-curvature="0"
       id="path14918"
       style="fill:none;stroke:#000000;stroke-width:4.64682961px;stroke-linecap:butt;stroke-linejoin:miter;stroke-opacity:1"
       d="m 185.55759,917.44467 c 0,0 -23.23412,4.64684 -32.52777,51.11508" />
    <path
       inkscape:connector-curvature="0"
       id="path16438"
       style="color:#000000;fill:#ffffff;fill-opacity:1;fill-rule:evenodd;stroke:#000000;stroke-width:4.64682961;stroke-linecap:butt;stroke-linejoin:miter;stroke-miterlimit:4;stroke-opacity:1;stroke-dasharray:none;stroke-dashoffset:0;marker:none;visibility:visible;display:inline;overflow:visible;font-family:Bitstream Vera Sans"
       d="m 115.85516,826.83148 0,70.28333" />
    <path
       inkscape:connector-curvature="0"
       id="path16448"
       style="fill:none;stroke:#000000;stroke-width:4.64682961px;stroke-linecap:butt;stroke-linejoin:miter;stroke-opacity:1"
       d="m 103.65723,906.40845 c 19.74906,-21.39481 57.50455,-20.42667 77.83441,-13.35966" />
  </g>
</svg>
