<?xml version="1.0" encoding="UTF-8" standalone="no"?>
<!-- Created with Inkscape (http://www.inkscape.org/) -->

<svg
   xmlns:dc="http://purl.org/dc/elements/1.1/"
   xmlns:cc="http://creativecommons.org/ns#"
   xmlns:rdf="http://www.w3.org/1999/02/22-rdf-syntax-ns#"
   xmlns:svg="http://www.w3.org/2000/svg"
   xmlns="http://www.w3.org/2000/svg"
   xmlns:xlink="http://www.w3.org/1999/xlink"
   xmlns:sodipodi="http://sodipodi.sourceforge.net/DTD/sodipodi-0.dtd"
   xmlns:inkscape="http://www.inkscape.org/namespaces/inkscape"
   width="48px"
   height="48px"
   id="svg1306"
   sodipodi:version="0.32"
   inkscape:version="0.48.2 r9819"
   sodipodi:docname="wether.svg"
   inkscape:output_extension="org.inkscape.output.svg.inkscape"
   sodipodi:modified="true"
   inkscape:export-filename="/home/tai/svgc2c/weather.png"
   inkscape:export-xdpi="30"
   inkscape:export-ydpi="30"
   version="1.1">
  <defs
     id="defs1308">
    <linearGradient
       inkscape:collect="always"
       id="linearGradient6549">
      <stop
         style="stop-color:#ffffff;stop-opacity:1;"
         offset="0"
         id="stop6551" />
      <stop
         style="stop-color:#ffffff;stop-opacity:0;"
         offset="1"
         id="stop6553" />
    </linearGradient>
    <linearGradient
       id="linearGradient6527">
      <stop
         style="stop-color:#ffffff;stop-opacity:1;"
         offset="0"
         id="stop6530" />
      <stop
         style="stop-color:#ffffff;stop-opacity:0;"
         offset="1"
         id="stop6532" />
    </linearGradient>
    <linearGradient
       id="linearGradient6538">
      <stop
         style="stop-color:#ffffff;stop-opacity:1;"
         offset="0"
         id="stop6540" />
      <stop
         style="stop-color:#ffffff;stop-opacity:0;"
         offset="1"
         id="stop6542" />
    </linearGradient>
    <linearGradient
       inkscape:collect="always"
       id="linearGradient6513">
      <stop
         style="stop-color:#ffffff;stop-opacity:1;"
         offset="0"
         id="stop6515" />
      <stop
         style="stop-color:#ffffff;stop-opacity:0;"
         offset="1"
         id="stop6517" />
    </linearGradient>
    <linearGradient
       inkscape:collect="always"
       id="linearGradient6497">
      <stop
         style="stop-color:#ffffff;stop-opacity:1;"
         offset="0"
         id="stop6499" />
      <stop
         style="stop-color:#ffffff;stop-opacity:0;"
         offset="1"
         id="stop6501" />
    </linearGradient>
    <linearGradient
       inkscape:collect="always"
       xlink:href="#linearGradient6497"
       id="linearGradient3848"
       gradientUnits="userSpaceOnUse"
       x1="287.51730"
       y1="-439.75281"
       x2="289.67633"
       y2="-436.32199" />
    <linearGradient
       inkscape:collect="always"
       xlink:href="#linearGradient6497"
       id="linearGradient3990"
       gradientUnits="userSpaceOnUse"
       x1="287.51730"
       y1="-439.75281"
       x2="289.67633"
       y2="-436.32199" />
    <linearGradient
       inkscape:collect="always"
       xlink:href="#linearGradient6513"
       id="linearGradient3992"
       gradientUnits="userSpaceOnUse"
       x1="286.51172"
       y1="-441.29074"
       x2="289.85379"
       y2="-436.14453" />
    <linearGradient
       inkscape:collect="always"
       xlink:href="#linearGradient6538"
       id="linearGradient3994"
       gradientUnits="userSpaceOnUse"
       x1="285.94086"
       y1="-439.93900"
       x2="289.39124"
       y2="-436.44290" />
    <linearGradient
       inkscape:collect="always"
       xlink:href="#linearGradient6549"
       id="linearGradient3998"
       gradientUnits="userSpaceOnUse"
       x1="286.51434"
       y1="-439.46155"
       x2="289.80893"
       y2="-436.17844" />
    <linearGradient
       inkscape:collect="always"
       xlink:href="#linearGradient6527"
       id="linearGradient4006"
       gradientUnits="userSpaceOnUse"
       gradientTransform="matrix(1.2408425,0,0,1.2198492,-310.47255,567.06658)"
       x1="275.94193"
       y1="-437.10501"
       x2="279.97546"
       y2="-431.91833" />
    <linearGradient
       inkscape:collect="always"
       xlink:href="#linearGradient6538"
       id="linearGradient4072"
       gradientUnits="userSpaceOnUse"
       x1="284.80219"
       y1="-441.23294"
       x2="288.89954"
       y2="-436.83109" />
    <filter
       inkscape:collect="always"
       id="filter4074">
      <feGaussianBlur
         inkscape:collect="always"
         stdDeviation="0.066252411"
         id="feGaussianBlur4076" />
    </filter>
  </defs>
  <sodipodi:namedview
     id="base"
     pagecolor="#ffffff"
     bordercolor="#666666"
     borderopacity="1.0"
     inkscape:pageopacity="0.0"
     inkscape:pageshadow="2"
     inkscape:zoom="7.45386"
     inkscape:cx="51.986567"
     inkscape:cy="18.682736"
     inkscape:current-layer="layer1"
     showgrid="true"
     inkscape:grid-bbox="true"
     inkscape:document-units="px"
     inkscape:window-width="1280"
     inkscape:window-height="776"
     inkscape:window-x="0"
     inkscape:window-y="24"
     inkscape:showpageshadow="false"
     inkscape:window-maximized="1" />
  <metadata
     id="metadata1311">
    <rdf:RDF>
      <cc:Work
         rdf:about="">
        <dc:format>image/svg+xml</dc:format>
        <dc:type
           rdf:resource="http://purl.org/dc/dcmitype/StillImage" />
        <dc:title></dc:title>
        <dc:date>January 2006</dc:date>
        <dc:creator>
          <cc:Agent>
            <dc:title>Ryan Collier (pseudo)</dc:title>
          </cc:Agent>
        </dc:creator>
        <dc:publisher>
          <cc:Agent>
            <dc:title>http://www.tango-project.org</dc:title>
          </cc:Agent>
        </dc:publisher>
        <dc:source>http://www.pseudocode.org</dc:source>
        <dc:subject>
          <rdf:Bag>
            <rdf:li>weather</rdf:li>
            <rdf:li>applet</rdf:li>
            <rdf:li>notification</rdf:li>
          </rdf:Bag>
        </dc:subject>
        <cc:license
           rdf:resource="http://creativecommons.org/licenses/by-sa/2.0/" />
        <dc:contributor>
          <cc:Agent>
            <dc:title>Garrett LeSage</dc:title>
          </cc:Agent>
        </dc:contributor>
      </cc:Work>
      <cc:License
         rdf:about="http://creativecommons.org/licenses/by-sa/2.0/">
        <cc:permits
           rdf:resource="http://web.resource.org/cc/Reproduction" />
        <cc:permits
           rdf:resource="http://web.resource.org/cc/Distribution" />
        <cc:requires
           rdf:resource="http://web.resource.org/cc/Notice" />
        <cc:requires
           rdf:resource="http://web.resource.org/cc/Attribution" />
        <cc:permits
           rdf:resource="http://web.resource.org/cc/DerivativeWorks" />
        <cc:requires
           rdf:resource="http://web.resource.org/cc/ShareAlike" />
      </cc:License>
    </rdf:RDF>
  </metadata>
  <g
     id="layer1"
     inkscape:label="Layer 1"
     inkscape:groupmode="layer">
    <path
       inkscape:connector-curvature="0"
       style="opacity:1;fill:#f18321;fill-opacity:1;stroke:#f68712;stroke-width:0.59437722000000004;stroke-linecap:square;stroke-linejoin:miter;stroke-miterlimit:4;stroke-opacity:1;stroke-dasharray:none"
       d="m 18.365393,0.75942525 -2.05016,7.02600215 c 0.626345,-0.099072 1.524172,-0.2779224 2.178483,-0.2779224 0.65431,0 1.423815,-0.075849 2.05016,0.023224 L 18.365393,0.75942525 z M 6.0757382,5.8036503 9.4268631,11.864795 C 10.183691,10.828701 11.498854,9.6508571 12.542863,8.8997673 L 6.0757382,5.8036503 z m 24.6045978,0 -6.749055,3.2234663 c -0.36512,1.9941524 1.078045,3.9080714 3.500964,3.4744224 L 30.680336,5.8036503 z M 8.1756892,15.965517 l -7.207997,2.034618 7.207997,2.544012 c -0.097235,-0.613723 -0.6650105,-1.750876 -0.6650105,-2.391568 0,-0.658008 0.5625551,-1.557606 0.6650105,-2.187062 z m 20.3794078,0.152444 c 0.09983,0.621596 -0.122501,1.075257 0.280047,2.416664 0.499255,1.663667 -0.308539,0.776278 -0.408368,1.397874 L 35.763094,18.02523 28.555097,16.117961 z M 9.8118281,23.803619 6.0757382,30.221715 12.671184,27.023344 c 0.371433,-1.999721 -0.442326,-3.648178 -2.8593559,-3.219725 z m 18.3903469,1.273488 c -0.749688,1.02632 -1.673928,1.938226 -2.705747,2.685234 l 5.183908,2.459374 -2.478161,-5.144608 z m -11.758621,4.84346 1.921839,5.370468 1.921839,-5.370468 c -0.626344,0.09907 -1.267528,0.150574 -1.921839,0.150574 -0.65431,0 -1.295494,-0.0515 -1.921839,-0.150574 z"
       id="path7492"
       sodipodi:nodetypes="ccscccccccccccccsccsccccccccccccccsc" />
    <path
       sodipodi:type="arc"
       style="fill:#f18321;fill-opacity:1;stroke:none"
       id="path7500"
       sodipodi:cx="-32"
       sodipodi:cy="-17.5"
       sodipodi:rx="9.5"
       sodipodi:ry="9.5"
       d="m -22.5,-17.5 a 9.5,9.5 0 1 1 -19,0 9.5,9.5 0 1 1 19,0 z"
       transform="matrix(1.1075317,-0.14814679,0.19283628,1.1058374,57.060022,32.49838)"
       inkscape:r_cx="true"
       inkscape:r_cy="true" />
    <path
       inkscape:export-ydpi="30.959663"
       inkscape:export-xdpi="30.959663"
       inkscape:export-filename="C:\Users\picheral\Downloads\Weather-sun-unsettled_orange.png"
       style="fill:#e09859;fill-opacity:1;stroke:#99683d;stroke-width:1.45108783000000008;stroke-linecap:butt;stroke-linejoin:miter;stroke-miterlimit:2;stroke-opacity:1;stroke-dasharray:none;stroke-dashoffset:0"
       d="m 29.103372,24.314533 c -2.817742,0 -4.704046,2.753675 -5.459521,5.284521 -0.860189,-0.443818 -2.22653,-0.500992 -3.226376,-0.762406 -4.755641,-1.243368 -7.331952,1.678903 -6.204213,6.099246 0.175257,0.68697 0.201662,1.351227 0.42654,1.982255 -1.70426,0.940186 -4.8867481,2.793479 -4.8867481,4.850145 0,3.030105 4.4800621,5.366104 7.5623141,5.366092 0.219791,0 23.356218,0 23.576008,0 3.08224,0 6.507102,-2.335987 6.507102,-5.366092 0,-2.056666 -2.127275,-3.909959 -3.831535,-4.850145 0.22489,-0.631016 0.274215,-1.287277 0.426539,-1.982255 0.871197,-3.97483 -1.58943,-6.86759 -6.204212,-6.099246 -1.017419,0.169397 -1.970483,0.318588 -2.830672,0.762406 -0.755475,-2.530846 -3.037483,-5.284521 -5.855226,-5.284521 z"
       id="path3818"
       sodipodi:nodetypes="ccsscsssscsscc"
       inkscape:connector-curvature="0" />
    <path
       inkscape:export-ydpi="30.959663"
       inkscape:export-xdpi="30.959663"
       inkscape:export-filename="C:\Users\picheral\Downloads\Weather-sun-unsettled_orange.png"
       style="fill:#f8bb80;fill-opacity:1;stroke:none"
       d="m 29.506224,24.801228 c -2.736715,0 -5.185183,2.057459 -6.024985,5.205841 -0.835447,-0.4314 -1.934176,-1.04624 -2.942596,-1.04624 -3.395094,0 -6.072026,0.513788 -6.072013,3.786411 0,0.686446 0.463008,3.721211 0.681409,4.3346 -1.655284,0.913899 -5.038367,2.62708 -5.038367,4.487728 0,2.945363 3.925219,4.955332 7.416044,4.955332 0.213487,0 22.68471,0 22.898173,0 3.463216,0 6.486069,-2.263613 6.486069,-5.208975 0,-1.99915 -2.453108,-3.474741 -4.108379,-4.388652 0.218413,-0.613364 1.410497,-2.929241 1.371404,-3.615194 -0.139378,-2.445642 -2.527974,-4.505805 -5.854226,-4.505818 -1.00842,0 -2.959715,0.741669 -3.795161,1.173068 -0.810928,-3.040132 -2.280644,-5.178101 -5.017372,-5.178101 z"
       id="path3820"
       sodipodi:nodetypes="ccsscsssscsscc"
       inkscape:connector-curvature="0" />
    <path
       inkscape:export-ydpi="30.959663"
       inkscape:export-xdpi="30.959663"
       inkscape:export-filename="C:\Users\picheral\Downloads\Weather-sun-unsettled_orange.png"
       sodipodi:type="arc"
       style="opacity:0.47777776;fill:url(#linearGradient3990);fill-opacity:1;stroke:none"
       id="path3824"
       sodipodi:cx="288.375"
       sodipodi:cy="-437.59375"
       sodipodi:rx="3.3125"
       sodipodi:ry="3.3125"
       d="m 291.6875,-437.59375 a 3.3125,3.3125 0 1 1 -6.625,0 3.3125,3.3125 0 1 1 6.625,0 z"
       transform="matrix(1.3110791,0,0,1.2888975,-359.3505,597.05805)" />
    <path
       inkscape:export-ydpi="30.959663"
       inkscape:export-xdpi="30.959663"
       inkscape:export-filename="C:\Users\picheral\Downloads\Weather-sun-unsettled_orange.png"
       sodipodi:type="arc"
       style="opacity:0.47777776;fill:url(#linearGradient3992);fill-opacity:1;stroke:none"
       id="path3832"
       sodipodi:cx="288.375"
       sodipodi:cy="-437.59375"
       sodipodi:rx="3.3125"
       sodipodi:ry="3.3125"
       d="m 291.6875,-437.59375 a 3.3125,3.3125 0 1 1 -6.625,0 3.3125,3.3125 0 1 1 6.625,0 z"
       transform="matrix(1.3110791,0,0,1.2888975,-348.83097,592.75688)" />
    <path
       inkscape:export-ydpi="30.959663"
       inkscape:export-xdpi="30.959663"
       inkscape:export-filename="C:\Users\picheral\Downloads\Weather-sun-unsettled_orange.png"
       sodipodi:type="arc"
       style="opacity:0.47777776;fill:url(#linearGradient3994);fill-opacity:1;stroke:none"
       id="path3836"
       sodipodi:cx="288.375"
       sodipodi:cy="-437.59375"
       sodipodi:rx="3.3125"
       sodipodi:ry="3.3125"
       d="m 291.6875,-437.59375 a 3.3125,3.3125 0 1 1 -6.625,0 3.3125,3.3125 0 1 1 6.625,0 z"
       transform="matrix(1.3110791,0,0,1.2888975,-363.25899,606.11813)" />
    <path
       inkscape:export-ydpi="30.959663"
       inkscape:export-xdpi="30.959663"
       inkscape:export-filename="C:\Users\picheral\Downloads\Weather-sun-unsettled_orange.png"
       sodipodi:type="arc"
       style="opacity:0.47777776000000000;fill:url(#linearGradient3998);fill-opacity:1;stroke:none;filter:url(#filter4074)"
       id="path3842"
       sodipodi:cx="288.375"
       sodipodi:cy="-437.59375"
       sodipodi:rx="3.3125"
       sodipodi:ry="3.3125"
       d="m 291.6875,-437.59375 a 3.3125,3.3125 0 1 1 -6.625,0 3.3125,3.3125 0 1 1 6.625,0 z"
       transform="matrix(1.5490391,0,0,1.5228315,-421.6447,706.82958)" />
    <path
       inkscape:export-ydpi="30.959663"
       inkscape:export-xdpi="30.959663"
       inkscape:export-filename="C:\Users\picheral\Downloads\Weather-sun-unsettled_orange.png"
       sodipodi:type="arc"
       style="opacity:0.47777776;fill:url(#linearGradient4072);fill-opacity:1;stroke:none"
       id="path3846"
       sodipodi:cx="288.375"
       sodipodi:cy="-437.59375"
       sodipodi:rx="3.3125"
       sodipodi:ry="3.3125"
       d="m 291.6875,-437.59375 a 3.3125,3.3125 0 1 1 -6.625,0 3.3125,3.3125 0 1 1 6.625,0 z"
       transform="matrix(1.4983756,0,0,1.4730252,-391.38818,686.58015)" />
    <path
       style="fill:none;stroke:#99683d;stroke-width:1px;stroke-linecap:butt;stroke-linejoin:miter;stroke-opacity:1"
       d="m 35.119814,29.185233 c -2.159243,0.65525 -4.92582,2.626696 -5.657837,5.163198 -0.732017,2.536502 -0.714272,5.557238 1.241984,7.700965 1.956256,2.143727 3.824184,2.832474 4.5358,2.92797"
       id="path4023"
       inkscape:connector-curvature="0"
       sodipodi:nodetypes="czzc" />
    <path
       style="fill:none;stroke:#99683d;stroke-width:1px;stroke-linecap:butt;stroke-linejoin:miter;stroke-opacity:1"
       d="m 28.575799,36.462354 c -2.468682,-1.964696 -6.435986,-1.911452 -8.153879,1.289522 -1.41584,3.509131 0.490534,6.843203 3.527378,7.571724"
       id="path4041"
       inkscape:connector-curvature="0"
       sodipodi:nodetypes="ccc" />
    <path
       inkscape:export-ydpi="30.959663"
       inkscape:export-xdpi="30.959663"
       inkscape:export-filename="C:\Users\picheral\Downloads\Weather-sun-unsettled_orange.png"
       style="opacity:0.47777776;fill:url(#linearGradient4006);fill-opacity:1;stroke:none"
       d="m 37.583767,29.113046 c -4.452143,0 -8.065477,3.552213 -8.065477,7.92902 0,2.898849 1.668747,5.326251 4.032738,6.70917 l 8.065478,0 c 2.363991,-1.382919 4.032738,-3.810321 4.032738,-6.70917 0,-4.376819 -3.613334,-7.929008 -8.065477,-7.92902 z"
       id="path3840"
       inkscape:connector-curvature="0" />
  </g>
</svg>
