<?xml version="1.0" encoding="UTF-8" standalone="no"?>
<!-- Created with Inkscape (http://www.inkscape.org/) -->

<svg
   xmlns:dc="http://purl.org/dc/elements/1.1/"
   xmlns:cc="http://creativecommons.org/ns#"
   xmlns:rdf="http://www.w3.org/1999/02/22-rdf-syntax-ns#"
   xmlns:svg="http://www.w3.org/2000/svg"
   xmlns="http://www.w3.org/2000/svg"
   xmlns:sodipodi="http://sodipodi.sourceforge.net/DTD/sodipodi-0.dtd"
   xmlns:inkscape="http://www.inkscape.org/namespaces/inkscape"
   id="svg2"
   version="1.1"
   inkscape:version="0.47 r22583"
   width="765"
   height="990"
   xml:space="preserve"
   sodipodi:docname="logo_c2c_blanc.ai"><metadata
     id="metadata8"><rdf:RDF><cc:Work
         rdf:about=""><dc:format>image/svg+xml</dc:format><dc:type
           rdf:resource="http://purl.org/dc/dcmitype/StillImage" /><dc:title></dc:title></cc:Work></rdf:RDF></metadata><defs
     id="defs6"><inkscape:perspective
       sodipodi:type="inkscape:persp3d"
       inkscape:vp_x="0 : 0.5 : 1"
       inkscape:vp_y="0 : 1000 : 0"
       inkscape:vp_z="1 : 0.5 : 1"
       inkscape:persp3d-origin="0.5 : 0.33333333 : 1"
       id="perspective10" /><clipPath
       clipPathUnits="userSpaceOnUse"
       id="clipPath18"><path
         d="M 0,792 612,792 612,0 0,0 0,792 z"
         id="path20" /></clipPath></defs><sodipodi:namedview
     pagecolor="#ffffff"
     bordercolor="#666666"
     borderopacity="1"
     objecttolerance="10"
     gridtolerance="10"
     guidetolerance="10"
     inkscape:pageopacity="0"
     inkscape:pageshadow="2"
     inkscape:window-width="640"
     inkscape:window-height="484"
     id="namedview4"
     showgrid="false"
     inkscape:zoom="0.23838384"
     inkscape:cx="382.5"
     inkscape:cy="495"
     inkscape:window-x="203"
     inkscape:window-y="30"
     inkscape:window-maximized="0"
     inkscape:current-layer="g12" /><g
     id="g12"
     inkscape:groupmode="layer"
     inkscape:label="logo_c2c_blanc"
     transform="matrix(1.25,0,0,-1.25,0,990)"><g
       id="g14"><g
         id="g16"
         clip-path="url(#clipPath18)"><g
           id="g22"
           transform="translate(359.0605,492.5557)"><path
             d="M 0,0 1.64,-1.101 C 1.719,-1.159 4.794,-3.448 4.794,-3.448 5.216,-3.762 5.5,-4.243 5.603,-4.802 5.692,-5.346 5.589,-5.924 5.32,-6.397 c -15.821,-26.394 -63.363,-48.337 -71.004,-43.029 -0.423,0.295 -0.745,0.775 -0.847,1.326 -0.037,0.18 -0.051,0.367 -0.037,0.551 0.01,0.373 0.101,0.725 0.281,1.046 l 1.667,3 c 0.038,1.025 0.244,2.789 1.18,3.975 l 2.255,1.218 c 2.668,0.469 45.376,15.546 58.622,37.669 C -1.987,0.295 -0.872,0.583 0,0"
             style="fill:#ffffff;fill-opacity:1;fill-rule:nonzero;stroke:none"
             id="path24" /></g><g
           id="g26"
           transform="translate(217.3843,530.0898)"><path
             d="m 0,0 c -16.631,-32.129 -78.725,-70.383 -82.07,-71.119 l -2.834,-1.796 c -1.193,-1.724 -1.449,-4.268 -1.488,-5.742 l -2.089,-4.366 c -0.231,-0.456 -0.347,-0.981 -0.36,-1.508 -0.011,-0.269 0.013,-0.537 0.065,-0.802 0.141,-0.781 0.526,-1.454 1.064,-1.878 9.655,-7.455 69.531,25.228 89.379,63.57 0.346,0.685 0.474,1.506 0.346,2.301 -0.128,0.795 7.782,17.034 7.256,17.475 0,0 -3.885,3.219 -3.988,3.295 L 3.217,0.981 C 2.115,1.796 0.705,1.366 0,0"
             style="fill:#f68712;fill-opacity:1;fill-rule:nonzero;stroke:none"
             id="path28" /></g><g
           id="g30"
           transform="translate(245.834,554.811)"><path
             d="m 0,0 0.463,-5.77 c 0.267,-0.026 26.655,-3.129 40.566,-37.066 18.848,-45.966 60.979,-70.738 161.037,-94.615 l 1.36,5.921 c -0.129,0.04 -12.272,3.854 -58.236,27.189 -9.962,5.063 -30.976,20.931 -39.555,27.522 -11.845,9.089 -21.757,21.224 -31.361,32.963 -6.988,8.565 -13.59,16.655 -20.45,22.886 C 19.321,10.424 0.771,0.442 0,0"
             style="fill:#f68712;fill-opacity:1;fill-rule:nonzero;stroke:none"
             id="path32" /></g><g
           id="g34"
           transform="translate(86.8804,396.2549)"><path
             d="m 0,0 -21.335,0 c -2.975,0 -5.34,1.052 -7.089,3.155 -1.661,1.974 -2.494,4.461 -2.494,7.487 l 0,26.277 c 0,4.116 0.807,6.949 2.429,8.501 1.615,1.558 4.507,2.334 8.661,2.334 L 0,47.754 0,37.495 c 0.135,0 -1.141,0.098 -3.814,0.283 -2.667,0.186 -5.033,0.284 -7.09,0.284 -6.577,0 -9.86,-0.898 -9.86,-2.702 l 0,-20.896 c 0,-1.63 0.243,-2.72 0.724,-3.297 0.481,-0.577 1.532,-0.858 3.154,-0.858 L 0,10.309 0,0"
             style="fill:#ffffff;fill-opacity:1;fill-rule:nonzero;stroke:none"
             id="path36" /></g><g
           id="g38"
           transform="translate(119.6709,404.666)"><path
             d="M 0,0 C 0,-2.358 -0.769,-4.359 -2.294,-5.975 -3.826,-7.59 -5.775,-8.411 -8.135,-8.411 l -12.334,0 c -2.711,0 -4.859,0.666 -6.43,1.973 -1.795,1.399 -2.693,3.438 -2.693,6.103 l 0,7.284 c 0,3.449 1.244,5.873 3.732,7.283 1.878,1.05 4.648,1.571 8.308,1.571 1.052,0 2.558,-0.057 4.519,-0.181 1.963,-0.122 3.315,-0.185 4.058,-0.185 0.046,1.339 -0.025,2.161 -0.198,2.474 -0.307,0.577 -1.052,0.865 -2.237,0.865 l -18.182,0 0,8.618 20.495,0 C -3.031,27.394 0,24.591 0,18.987 L 0,0 m -8.975,2.487 0,2.616 c 0,1.256 -0.788,1.871 -2.365,1.871 l -7.501,0 c -1.185,0 -1.775,-0.577 -1.775,-1.744 l 0,-2.743 c 0,-0.55 0.231,-1.038 0.692,-1.461 0.462,-0.411 0.994,-0.615 1.609,-0.615 l 7.167,0 c 1.449,0 2.173,0.692 2.173,2.076"
             style="fill:#ffffff;fill-opacity:1;fill-rule:nonzero;stroke:none"
             id="path40" /></g><g
           id="g42"
           transform="translate(168.207,423.4561)"><path
             d="m 0,0 0,-27.201 -8.976,0 0,24.053 c 0,1.884 -1.217,2.828 -3.647,2.828 -0.308,0 -0.775,-0.019 -1.404,-0.065 -0.628,-0.045 -1.077,-0.07 -1.333,-0.07 -1.52,0 -2.283,-0.764 -2.283,-2.295 l 0,-24.451 -8.974,0 0,24.451 c 0,1.531 -0.757,2.295 -2.264,2.295 -0.256,0 -0.692,0.025 -1.294,0.07 -0.603,0.046 -1.078,0.065 -1.423,0.065 -2.456,0 -3.687,-0.944 -3.687,-2.828 l 0,-24.053 -8.974,0 0,27.201 c 0,2.582 0.73,4.661 2.192,6.237 1.461,1.578 3.481,2.367 6.058,2.367 l 6.872,0 c 3.449,0 5.782,-1.06 7.007,-3.174 1.135,2.114 3.468,3.174 7.006,3.174 l 6.873,0 c 2.577,0 4.596,-0.789 6.059,-2.367 C -0.731,4.661 0,2.582 0,0"
             style="fill:#ffffff;fill-opacity:1;fill-rule:nonzero;stroke:none"
             id="path44" /></g><g
           id="g46"
           transform="translate(203.1191,404.3457)"><path
             d="m 0,0 c 0,-5.551 -4.397,-8.347 -13.2,-8.347 -1.006,0 -2.359,0.05 -4.07,0.128 -1.705,0.091 -2.821,0.128 -3.346,0.128 l 0,-13.386 c -1.225,0.181 -4.213,0.181 -8.975,0 l 0,39.671 c 0,2.8 0.634,5.032 1.903,6.691 1.398,1.886 3.456,2.829 6.168,2.829 l 12.859,0 c 2.848,0 5.001,-0.821 6.462,-2.464 C -0.731,23.61 0,21.385 0,18.584 L 0,0 m -8.975,3.165 0,13.63 c 0,0.486 -0.211,0.912 -0.621,1.283 -0.424,0.372 -0.891,0.558 -1.418,0.558 l -7.038,0 c -0.699,0 -1.302,-0.265 -1.808,-0.789 -0.507,-0.526 -0.756,-1.155 -0.756,-1.897 l 0,-12.194 c 0,-1.847 0.941,-2.768 2.826,-2.768 l 6.84,0 c 0.481,0 0.93,0.242 1.354,0.73 0.41,0.475 0.621,0.963 0.621,1.447"
             style="fill:#ffffff;fill-opacity:1;fill-rule:nonzero;stroke:none"
             id="path48" /></g><g
           id="g50"
           transform="translate(289.3867,324.0449)"><path
             d="m 0,0 -27.733,0 c -3.871,0 -6.943,1.371 -9.218,4.104 -2.16,2.564 -3.244,5.806 -3.244,9.731 l 0,34.144 c 0,5.346 1.051,9.025 3.16,11.051 2.102,2.025 5.86,3.027 11.264,3.027 L 0,62.057 0,48.721 c 0.174,0 -1.481,0.129 -4.948,0.359 -3.469,0.244 -6.547,0.36 -9.213,0.36 -8.539,0 -12.803,-1.154 -12.803,-3.488 l 0,-27.182 c 0,-2.101 0.316,-3.526 0.936,-4.27 0.628,-0.73 1.994,-1.113 4.096,-1.113 L 0,13.387 0,0"
             style="fill:#ffffff;fill-opacity:1;fill-rule:nonzero;stroke:none"
             id="path52" /></g><g
           id="g54"
           transform="translate(359.9883,349.0986)"><path
             d="m 0,0 c 0,-5.206 -1.692,-9.577 -5.064,-13.143 -3.374,-3.564 -7.657,-5.345 -12.847,-5.345 l -27.158,0 c -5.966,0 -10.686,1.448 -14.148,4.345 -3.948,3.077 -5.924,7.552 -5.924,13.437 l 0,16.04 c 0,7.615 2.739,12.975 8.207,16.051 4.121,2.31 10.212,3.464 18.276,3.464 2.303,0 5.616,-0.117 9.931,-0.359 4.314,-0.232 7.288,-0.361 8.93,-0.361 0.089,2.874 -0.051,4.642 -0.435,5.322 -0.681,1.242 -2.322,1.859 -4.924,1.859 l -39.985,0 0,18.873 45.114,0 C -6.681,60.183 0,54.027 0,41.72 L 0,0 m -19.797,5.513 0,5.768 c 0,2.795 -1.744,4.182 -5.206,4.182 l -16.443,0 c -2.597,0 -3.898,-1.295 -3.898,-3.887 l 0,-6.063 c 0,-1.244 0.507,-2.333 1.512,-3.231 1.015,-0.924 2.193,-1.385 3.54,-1.385 l 15.726,0 c 3.178,0 4.769,1.54 4.769,4.616"
             style="fill:#ffffff;fill-opacity:1;fill-rule:nonzero;stroke:none"
             id="path56" /></g><g
           id="g58"
           transform="translate(359.832,349.0986)"><path
             d="m 0,0 c 0,-5.128 -1.69,-9.514 -5.021,-13.035 -3.327,-3.516 -7.612,-5.297 -12.734,-5.297 l -27.158,0 c -5.904,0 -10.631,1.449 -14.047,4.31 -3.894,3.035 -5.868,7.513 -5.868,13.316 l 0,16.04 c 0,7.527 2.734,12.882 8.127,15.915 4.077,2.285 10.201,3.443 18.199,3.443 2.357,0 5.696,-0.121 9.923,-0.358 4.635,-0.25 7.391,-0.361 8.938,-0.361 l 0.152,0 0.005,0.152 c 0.089,2.932 -0.059,4.699 -0.456,5.403 -0.703,1.285 -2.406,1.938 -5.06,1.938 l -39.984,0 0.156,-0.156 0,18.873 -0.156,-0.157 45.113,0 C -6.687,60.026 0,53.867 0,41.72 L 0,0 m 0.313,41.72 c 0,6.17 -1.704,10.868 -5.059,13.962 -3.353,3.09 -8.442,4.657 -15.125,4.657 l -45.27,0 0,-19.186 40.141,0 c 2.531,0 4.141,-0.596 4.787,-1.777 0.364,-0.645 0.504,-2.408 0.416,-5.242 l 0.156,0.151 c -1.541,0 -4.292,0.111 -8.921,0.361 -4.233,0.238 -7.576,0.359 -9.94,0.359 -8.054,0 -14.228,-1.172 -18.352,-3.484 -5.499,-3.092 -8.287,-8.539 -8.287,-16.187 l 0,-16.041 c 0,-5.903 2.014,-10.465 5.985,-13.559 3.469,-2.906 8.263,-4.38 14.243,-4.38 l 27.158,0 c 5.212,0 9.573,1.816 12.961,5.396 3.389,3.583 5.107,8.04 5.107,13.25 l 0,41.72 z"
             style="fill:#ffffff;fill-opacity:1;fill-rule:nonzero;stroke:none"
             id="path60" /></g><g
           id="g62"
           transform="translate(340.3477,354.6113)"><path
             d="m 0,0 0,5.769 c 0,2.877 -1.805,4.337 -5.362,4.337 l -16.444,0 c -2.69,0 -4.053,-1.36 -4.053,-4.043 l 0,-6.063 c 0,-1.295 0.526,-2.422 1.564,-3.347 1.036,-0.946 2.264,-1.424 3.645,-1.424 l 15.724,0 C -1.657,-4.771 0,-3.166 0,0 m -4.926,-4.459 -15.724,0 c -1.302,0 -2.457,0.451 -3.436,1.344 -0.97,0.866 -1.461,1.912 -1.461,3.115 l 0,6.063 c 0,2.51 1.225,3.731 3.741,3.731 l 16.444,0 c 3.399,0 5.049,-1.316 5.049,-4.025 l 0,-5.769 c 0,-3.001 -1.508,-4.459 -4.613,-4.459"
             style="fill:#ffffff;fill-opacity:1;fill-rule:nonzero;stroke:none"
             id="path64" /></g><g
           id="g66"
           transform="translate(447.9434,379.5488)"><path
             d="m 0,0 0,-48.938 -16.208,0 0,43.233 c 0,3.385 -2.192,5.077 -6.563,5.077 -0.552,0 -1.385,-0.024 -2.514,-0.116 -1.142,-0.076 -1.947,-0.113 -2.41,-0.113 -2.744,0 -4.103,-1.388 -4.103,-4.13 l 0,-43.951 -16.206,0 0,43.951 c 0,2.742 -1.359,4.13 -4.078,4.13 -0.461,0 -1.23,0.037 -2.32,0.113 -1.091,0.092 -1.936,0.116 -2.565,0.116 -4.424,0 -6.629,-1.692 -6.629,-5.077 l 0,-43.233 -16.206,0 0,48.938 c 0,4.655 1.322,8.398 3.95,11.219 2.642,2.847 6.283,4.258 10.924,4.258 l 12.398,0 c 6.217,0 10.424,-1.899 12.629,-5.682 2.052,3.783 6.256,5.682 12.63,5.682 l 12.398,0 c 4.641,0 8.283,-1.411 10.923,-4.258 C -1.321,8.398 0,4.655 0,0"
             style="fill:#ffffff;fill-opacity:1;fill-rule:nonzero;stroke:none"
             id="path68" /></g><g
           id="g70"
           transform="translate(510.7676,345.124)"><path
             d="m 0,0 c 0,-10.014 -7.923,-15.026 -23.772,-15.026 -1.806,0 -4.255,0.089 -7.332,0.255 -3.078,0.179 -5.078,0.257 -6.027,0.257 l 0,-24.104 c -2.205,0.32 -7.616,0.32 -16.206,0 l 0,71.389 c 0,5.039 1.14,9.052 3.437,12.051 2.513,3.385 6.216,5.079 11.103,5.079 l 23.18,0 c 5.129,0 9.014,-1.475 11.655,-4.436 C -1.321,42.515 0,38.515 0,33.464 L 0,0 m -16.206,5.705 0,24.579 c 0,0.872 -0.372,1.642 -1.129,2.307 -0.743,0.666 -1.59,1 -2.54,1 l -12.641,0 c -1.268,0 -2.346,-0.461 -3.256,-1.411 -0.91,-0.948 -1.359,-2.089 -1.359,-3.435 l 0,-21.975 c 0,-3.308 1.693,-4.975 5.076,-4.975 l 12.311,0 c 0.857,0 1.666,0.435 2.409,1.308 0.757,0.872 1.129,1.73 1.129,2.602"
             style="fill:#ffffff;fill-opacity:1;fill-rule:nonzero;stroke:none"
             id="path72" /></g><g
           id="g74"
           transform="translate(412.166,494.5576)"><path
             d="m 0,0 c 6.014,-3.739 12.064,-8.789 18.476,-14.137 8.795,-7.321 17.86,-14.892 28.143,-20.207 7.436,-3.846 25.631,-13.096 33.989,-15.784 38.591,-12.372 48.541,-14.025 48.631,-14.032 l -0.448,-4.204 C 47.631,-60.012 11.886,-46.344 -7.757,-16.137 -22.283,6.165 -43.374,6.16 -43.579,6.153 l -0.976,3.955 C -43.978,10.474 -30.45,18.877 0,0"
             style="fill:#ffffff;fill-opacity:1;fill-rule:nonzero;stroke:none"
             id="path76" /></g><g
           id="g78"
           transform="translate(225.0156,477.916)"><path
             d="m 0,0 2.549,-4.084 c -0.12,-0.08 -11.338,-8.511 -1.741,-35.2 13,-36.151 4.601,-63.255 -32.125,-103.552 l -3.5,3.752 c 0.041,0.058 4.061,5.579 14.991,32.606 2.368,5.866 4.868,21.804 5.833,28.389 1.347,9.083 0.289,19.802 -0.718,30.178 -0.75,7.564 -1.458,14.71 -1.144,20.636 C -14.313,2.574 -0.584,0.122 0,0"
             style="fill:#f68712;fill-opacity:1;fill-rule:nonzero;stroke:none"
             id="path80" /></g><g
           id="g82"
           transform="translate(268.5566,471.8311)"><path
             d="M 0,0 1.269,-1.515 C 1.328,-1.594 3.646,-4.647 3.646,-4.647 3.964,-5.066 4.101,-5.608 4.044,-6.173 3.979,-6.72 3.719,-7.246 3.329,-7.626 c -22.548,-20.942 -74.32,-28.775 -80.18,-21.548 -0.325,0.402 -0.5,0.951 -0.445,1.509 0.014,0.184 0.054,0.366 0.117,0.54 0.116,0.354 0.301,0.667 0.563,0.926 l 2.436,2.417 c 0.323,0.974 1.012,2.611 2.24,3.488 l 2.506,0.543 c 2.694,-0.293 47.911,2.292 66.793,19.85 C -1.826,0.838 -0.675,0.803 0,0"
             style="fill:#f68712;fill-opacity:1;fill-rule:nonzero;stroke:none"
             id="path84" /></g><g
           id="g86"
           transform="translate(271.3164,444.8047)"><path
             d="m 0,0 c 5.449,0 8.176,-0.643 8.176,-1.928 0,-1.469 -1.225,-2.259 -3.669,-2.369 -2.958,-0.182 -5.714,-1.025 -8.269,-2.526 -2.555,-1.502 -4.826,-3.554 -6.816,-6.155 -1.99,-2.599 -3.541,-5.53 -4.655,-8.79 -1.113,-3.258 -1.67,-6.702 -1.67,-10.328 0,-3.991 0.929,-7.205 2.791,-9.64 1.86,-2.438 4.286,-3.654 7.279,-3.654 2.773,0 5.198,1.428 7.278,4.284 2.08,2.858 3.12,6.19 3.12,9.999 0,3.114 -0.648,6.034 -1.947,8.761 -1.299,2.729 -3.192,5.028 -5.679,6.896 -1.062,0.843 -1.592,1.446 -1.592,1.812 0,0.513 0.75,1.301 2.251,2.364 1.683,1.134 3.569,2.086 5.655,2.855 2.086,0.77 3.844,1.154 5.271,1.154 1.648,0 3.212,-0.431 4.695,-1.291 1.482,-0.861 2.792,-2.089 3.927,-3.68 1.134,-1.592 2.003,-3.424 2.608,-5.492 0.602,-2.069 0.905,-4.274 0.905,-6.617 0,-3.883 -0.732,-7.718 -2.196,-11.506 -1.464,-3.79 -3.385,-6.856 -5.763,-9.2 -3.073,-2.967 -6.778,-5.391 -11.115,-7.276 -4.335,-1.887 -8.461,-2.829 -12.376,-2.829 -3.806,0 -7.584,0.66 -11.334,1.977 -3.75,1.32 -6.724,3.058 -8.918,5.22 -2.928,2.931 -4.392,7.087 -4.392,12.471 0,4.247 1.042,8.496 3.128,12.745 2.085,4.247 4.91,8.102 8.476,11.564 3.567,3.46 7.499,6.189 11.799,8.186 C -8.734,-0.998 -4.39,0 0,0"
             style="fill:#f68712;fill-opacity:1;fill-rule:nonzero;stroke:none"
             id="path88" /></g><g
           id="g90"
           transform="translate(502.2197,305.8213)"><path
             d="m 0,0 c -1.473,0 -2.208,0.495 -2.208,1.487 0,0.308 0.083,0.78 0.246,1.414 0.163,0.635 0.335,1.147 0.516,1.536 0.489,1.123 0.939,1.853 1.348,2.194 0.474,0.423 1.181,0.798 2.121,1.124 0.94,0.325 1.77,0.486 2.491,0.486 1.013,0 1.52,-0.584 1.52,-1.756 C 6.034,5.38 5.715,4.031 5.077,2.438 4.915,1.983 4.722,1.646 4.501,1.426 4.281,1.206 3.917,0.999 3.409,0.804 2.02,0.268 0.884,0 0,0"
             style="fill:#f68712;fill-opacity:1;fill-rule:nonzero;stroke:none"
             id="path92" /></g><g
           id="g94"
           transform="translate(526.3643,330.3916)"><path
             d="m 0,0 c 2.425,0 3.638,-0.288 3.638,-0.859 0,-0.654 -0.544,-1.006 -1.634,-1.055 -1.317,-0.083 -2.545,-0.459 -3.683,-1.128 -1.139,-0.668 -2.151,-1.583 -3.037,-2.742 -0.887,-1.16 -1.578,-2.466 -2.073,-3.92 -0.497,-1.452 -0.745,-2.987 -0.745,-4.604 0,-1.78 0.415,-3.213 1.247,-4.298 0.831,-1.085 1.913,-1.629 3.251,-1.629 1.237,0 2.321,0.638 3.249,1.915 0.93,1.274 1.393,2.764 1.393,4.466 0,1.39 -0.289,2.695 -0.866,3.914 -0.579,1.218 -1.422,2.246 -2.526,3.081 -0.473,0.375 -0.709,0.645 -0.709,0.808 0,0.23 0.334,0.58 1.001,1.057 0.748,0.505 1.585,0.931 2.513,1.273 0.927,0.346 1.709,0.517 2.343,0.517 0.733,0 1.427,-0.192 2.087,-0.576 0.658,-0.384 1.241,-0.932 1.743,-1.642 0.505,-0.71 0.892,-1.527 1.161,-2.45 0.268,-0.922 0.402,-1.907 0.402,-2.952 0,-1.732 -0.326,-3.443 -0.977,-5.135 -0.652,-1.688 -1.506,-3.059 -2.564,-4.104 -1.369,-1.323 -3.017,-2.405 -4.946,-3.248 -1.93,-0.838 -3.767,-1.259 -5.506,-1.259 -1.696,0 -3.377,0.294 -5.044,0.88 -1.67,0.587 -2.994,1.362 -3.971,2.326 -1.301,1.303 -1.953,3.156 -1.953,5.553 0,1.893 0.465,3.786 1.393,5.678 0.927,1.894 2.183,3.611 3.769,5.154 1.587,1.54 3.337,2.756 5.249,3.645 C -3.884,-0.446 -1.951,0 0,0"
             style="fill:#f68712;fill-opacity:1;fill-rule:nonzero;stroke:none"
             id="path96" /></g><g
           id="g98"
           transform="translate(544.7393,313.251)"><path
             d="m 0,0 -0.097,-0.488 c 0,-0.276 -0.031,-0.675 -0.094,-1.196 -0.067,-0.795 -0.156,-1.446 -0.269,-1.951 -0.113,-0.504 -0.285,-0.923 -0.514,-1.256 -0.227,-0.334 -0.537,-0.687 -0.928,-1.061 -1.189,-1.09 -2.388,-1.634 -3.593,-1.634 -0.978,0 -1.698,0.357 -2.164,1.072 -0.465,0.717 -0.695,1.873 -0.695,3.467 0,1.27 0.14,2.836 0.426,4.699 0.283,1.864 0.629,3.536 1.035,5.016 l 0.196,0.635 c 0,0.097 0.049,0.301 0.146,0.61 0.601,2.215 1.153,3.853 1.657,4.92 0.504,1.063 1.114,1.924 1.829,2.573 0.632,0.505 1.347,0.758 2.144,0.758 1.154,0 1.854,-0.7 2.098,-2.101 0.228,0.196 0.447,0.424 0.658,0.685 0.474,0.569 0.84,0.948 1.102,1.135 0.259,0.186 0.56,0.281 0.903,0.281 1.401,0 2.101,-1.385 2.101,-4.152 0,-1.516 -0.163,-2.981 -0.49,-4.397 C 5.124,6.199 4.711,5.043 4.213,4.147 3.713,3.253 3.219,2.804 2.728,2.804 c -0.54,0 -0.809,1.017 -0.809,3.051 0,1.071 -0.061,1.914 -0.18,2.524 C 1.619,8.988 1.432,9.464 1.177,9.807 0.696,8.896 0.385,6.813 0.241,3.563 0.129,1.675 0.049,0.489 0,0"
             style="fill:#f68712;fill-opacity:1;fill-rule:nonzero;stroke:none"
             id="path100" /></g><g
           id="g102"
           transform="translate(568.9619,312.4912)"><path
             d="m 0,0 -0.659,-0.489 c -0.049,-0.048 -0.127,-0.114 -0.233,-0.195 -0.106,-0.083 -0.241,-0.187 -0.404,-0.317 -2.819,-2.198 -5.03,-3.744 -6.636,-4.639 -1.604,-0.895 -3.004,-1.342 -4.192,-1.342 -1.318,0 -2.383,0.478 -3.189,1.441 -0.807,0.961 -1.209,2.248 -1.209,3.859 0,2.004 0.566,4.078 1.696,6.218 1.132,2.144 2.626,4.111 4.482,5.902 1.855,1.793 3.891,3.229 6.107,4.313 2.213,1.084 4.354,1.625 6.422,1.625 2.035,0 3.587,-0.35 4.654,-1.051 C 7.905,14.624 8.438,13.573 8.438,12.173 8.438,10.998 7.974,9.549 7.046,7.821 7.712,7.772 8.203,7.563 8.516,7.197 8.828,6.831 8.984,6.258 8.984,5.477 8.984,4.205 8.724,2.435 8.202,0.161 7.681,-2.108 7.046,-4.206 6.297,-6.125 5.384,-8.548 4.08,-10.655 2.386,-12.443 c -1.288,-1.352 -2.885,-2.509 -4.791,-3.478 -1.908,-0.969 -3.544,-1.453 -4.914,-1.453 -1.14,0 -2.16,0.456 -3.055,1.366 -0.897,0.91 -1.345,1.937 -1.345,3.074 0,0.764 0.197,1.558 0.586,2.377 0.392,0.824 0.897,1.527 1.517,2.114 1.271,1.283 3.136,2.503 5.595,3.657 0.457,0.228 0.808,0.343 1.052,0.343 0.099,0 0.188,-0.04 0.269,-0.123 0.081,-0.081 0.122,-0.17 0.122,-0.269 0,-0.112 -0.097,-0.333 -0.292,-0.66 -0.489,-0.83 -0.922,-1.893 -1.295,-3.188 -0.374,-1.294 -0.562,-2.412 -0.562,-3.357 0,-1.108 0.171,-1.661 0.515,-1.661 0.179,0 0.404,0.198 0.673,0.597 0.27,0.4 0.511,0.851 0.723,1.357 1.388,3.518 2.28,6.774 2.672,9.771 C -0.096,-1.538 -0.048,-0.879 0,0 m 1.211,5.224 0,-0.098 -0.098,0.098 C 1.017,5.191 0.886,5.175 0.725,5.175 0.417,5.143 0.03,5.126 -0.44,5.126 c -0.827,0 -1.239,0.155 -1.239,0.465 0,0.162 0.105,0.357 0.318,0.587 0.617,0.701 1.15,1.621 1.598,2.76 0.447,1.142 0.696,2.177 0.745,3.106 0,0.227 0.015,0.433 0.049,0.611 0.015,0.065 0.028,0.121 0.036,0.17 0.008,0.049 0.013,0.091 0.013,0.122 0,0.231 -0.155,0.343 -0.464,0.343 -0.637,0 -1.615,-0.684 -2.936,-2.054 C -3.151,10.354 -3.936,9.313 -4.668,8.104 -5.402,6.897 -5.973,5.691 -6.38,4.485 -6.788,3.278 -6.991,2.193 -6.991,1.232 c 0,-0.946 0.234,-1.419 0.707,-1.419 0.455,0 1.602,0.767 3.442,2.302 0.83,0.717 2.181,1.754 4.053,3.109"
             style="fill:#f68712;fill-opacity:1;fill-rule:nonzero;stroke:none"
             id="path104" /></g></g></g></g></svg>