<?xml version="1.0" encoding="UTF-8" standalone="no"?>
<!-- Created with Inkscape (http://www.inkscape.org/) -->
<svg
   xmlns:dc="http://purl.org/dc/elements/1.1/"
   xmlns:cc="http://creativecommons.org/ns#"
   xmlns:rdf="http://www.w3.org/1999/02/22-rdf-syntax-ns#"
   xmlns:svg="http://www.w3.org/2000/svg"
   xmlns="http://www.w3.org/2000/svg"
   xmlns:sodipodi="http://sodipodi.sourceforge.net/DTD/sodipodi-0.dtd"
   xmlns:inkscape="http://www.inkscape.org/namespaces/inkscape"
   width="622.12946"
   height="883.44647"
   id="svg2"
   sodipodi:version="0.32"
   inkscape:version="0.46"
   inkscape:export-filename="/home/bbesson/Desktop/sac3.png"
   inkscape:export-xdpi="3.4531145"
   inkscape:export-ydpi="3.4531145"
   sodipodi:docname="freq_icons.svg"
   inkscape:output_extension="org.inkscape.output.svg.inkscape"
   version="1.0">
  <defs
     id="defs4">
    <inkscape:perspective
       sodipodi:type="inkscape:persp3d"
       inkscape:vp_x="0 : 526.18109 : 1"
       inkscape:vp_y="0 : 1000 : 0"
       inkscape:vp_z="744.09448 : 526.18109 : 1"
       inkscape:persp3d-origin="372.04724 : 350.78739 : 1"
       id="perspective10" />
    <inkscape:perspective
       id="perspective2464"
       inkscape:persp3d-origin="372.04724 : 350.78739 : 1"
       inkscape:vp_z="744.09448 : 526.18109 : 1"
       inkscape:vp_y="0 : 1000 : 0"
       inkscape:vp_x="0 : 526.18109 : 1"
       sodipodi:type="inkscape:persp3d" />
  </defs>
  <sodipodi:namedview
     id="base"
     pagecolor="#ffffff"
     bordercolor="#666666"
     borderopacity="1.0"
     gridtolerance="10000"
     guidetolerance="10"
     objecttolerance="10"
     inkscape:pageopacity="0.0"
     inkscape:pageshadow="2"
     inkscape:zoom="0.7"
     inkscape:cx="568.97912"
     inkscape:cy="354.28022"
     inkscape:document-units="px"
     inkscape:current-layer="layer1"
     showgrid="false"
     inkscape:window-width="1280"
     inkscape:window-height="967"
     inkscape:window-x="0"
     inkscape:window-y="0" />
  <metadata
     id="metadata7">
    <rdf:RDF>
      <cc:Work
         rdf:about="">
        <dc:format>image/svg+xml</dc:format>
        <dc:type
           rdf:resource="http://purl.org/dc/dcmitype/StillImage" />
      </cc:Work>
    </rdf:RDF>
  </metadata>
  <g
     inkscape:label="Layer 1"
     inkscape:groupmode="layer"
     id="layer1"
     transform="translate(-149.9375,-361.70886)">
    <g
       id="g3269"
       style="fill:#c8c8c8;fill-opacity:1;stroke:#000000;stroke-width:8;stroke-miterlimit:4;stroke-dasharray:none;stroke-opacity:1"
       transform="translate(-100,0.8185756)">
      <g
         id="g3181"
         style="fill:#ffffff;fill-opacity:1;stroke:#000000;stroke-opacity:1"
         inkscape:export-filename="/home/bbesson/Desktop/picto/sac0.png"
         inkscape:export-xdpi="3.4531648"
         inkscape:export-ydpi="3.4531648">
        <path
           transform="translate(100,-0.8185756)"
           sodipodi:nodetypes="ccccccccccccccccccccccc"
           id="rect3297"
           d="M 289.71875,461.375 C 291.17154,462.21376 294.25,479.25803 294.25,471.34375 C 294.25,463.42947 300.61696,457.0625 308.53125,457.0625 L 321.46875,457.0625 C 329.38304,457.0625 335.75,463.42946 335.75,471.34375 L 335.75,581.78125 C 335.75002,589.69551 329.38304,596.0625 321.46875,596.0625 L 308.53125,596.0625 L 296.78125,597.625 C 294.56082,596.95304 298.35824,606.81934 300.65625,614.96875 L 346.9375,760.53125 C 343.28939,774.14619 325.18372,778.49619 317.9375,771.25 L 266.34375,639.96875 L 265.34375,639.96875 L 213.78125,771.25 C 206.43854,778.59271 184.78125,773.47455 184.78125,760.53125 L 231.0625,614.96875 L 231.0625,514.96875 L 166.0625,549.25 L 153.9375,528.53125 L 237.5,461.375 C 239.37021,460.29523 251.68358,459.87725 263.90625,459.9375 C 276.12892,459.99775 288.26596,460.53624 289.71875,461.375 z"
           style="fill:#ffffff;fill-opacity:1;fill-rule:nonzero;stroke:#000000;stroke-width:8;stroke-linejoin:round;stroke-miterlimit:4;stroke-dasharray:none;stroke-dashoffset:0;stroke-opacity:1" />
        <path
           sodipodi:type="arc"
           style="opacity:1;fill:#ffffff;fill-opacity:1;fill-rule:nonzero;stroke:#000000;stroke-width:7.53098822;stroke-linejoin:miter;stroke-miterlimit:4;stroke-dasharray:none;stroke-dashoffset:0;stroke-opacity:1"
           id="path2470"
           sodipodi:cx="393.92856"
           sodipodi:cy="434.50504"
           sodipodi:rx="39.642857"
           sodipodi:ry="39.642857"
           d="M 433.57141,434.50504 A 39.642857,39.642857 0 1 1 354.2857,434.50504 A 39.642857,39.642857 0 1 1 433.57141,434.50504 z"
           transform="matrix(1.0622776,0,0,1.0622776,-52.602109,-54.559923)" />
      </g>
    </g>
    <g
       id="g3319"
       inkscape:export-filename="/home/bbesson/Desktop/sac4.png"
       inkscape:export-xdpi="3.4531145"
       inkscape:export-ydpi="3.4531145"
       style="fill:#c8c8c8;fill-opacity:1;stroke:#000000;stroke-width:8;stroke-miterlimit:4;stroke-dasharray:none;stroke-opacity:1"
       transform="translate(103.70982,0.8155311)">
      <rect
         rx="14.285714"
         ry="14.285714"
         y="456.24527"
         x="394.24692"
         height="139.01286"
         width="41.50621"
         id="rect2433"
         style="opacity:1;fill:#c8c8c8;fill-opacity:1;fill-rule:nonzero;stroke:#000000;stroke-width:8;stroke-linejoin:round;stroke-miterlimit:4;stroke-dasharray:none;stroke-dashoffset:0;stroke-opacity:1" />
      <g
         style="fill:#c8c8c8;fill-opacity:1;stroke:#000000;stroke-width:8;stroke-miterlimit:4;stroke-dasharray:none;stroke-opacity:1"
         id="g2435">
        <path
           sodipodi:type="arc"
           style="opacity:1;fill:#c8c8c8;fill-opacity:1;fill-rule:nonzero;stroke:#000000;stroke-width:7.53098822;stroke-linejoin:miter;stroke-miterlimit:4;stroke-dasharray:none;stroke-dashoffset:0;stroke-opacity:1"
           id="path2437"
           sodipodi:cx="393.92856"
           sodipodi:cy="434.50504"
           sodipodi:rx="39.642857"
           sodipodi:ry="39.642857"
           d="M 433.57141,434.50504 A 39.642857,39.642857 0 1 1 354.2857,434.50504 A 39.642857,39.642857 0 1 1 433.57141,434.50504 z"
           transform="matrix(1.0622776,0,0,1.0622776,-52.602109,-54.559923)" />
        <path
           style="fill:#c8c8c8;fill-opacity:1;fill-rule:evenodd;stroke:#000000;stroke-width:8;stroke-linecap:butt;stroke-linejoin:miter;stroke-miterlimit:4;stroke-dasharray:none;stroke-opacity:1"
           d="M 365.34375,639.15625 L 366.34375,639.15625 L 417.9375,770.4375 C 425.18372,777.68372 443.28939,773.33369 446.9375,759.71875 L 400.65625,614.15625 C 398.35824,606.00687 399.56141,599.00038 396.78184,596.8152 C 395.62605,595.89271 389.99251,590.63056 389.14102,586.37562 L 389.71367,460.5625 C 386.80811,458.88497 341.24042,458.40297 337.5,460.5625 L 253.9375,527.71875 L 266.0625,548.4375 L 331.0625,514.15625 L 331.0625,614.15625 L 284.78125,759.71875 C 284.78125,772.66208 306.43854,777.78021 313.78125,770.4375 L 365.34375,639.15625 z"
           id="path3242"
           sodipodi:nodetypes="cccccccccccccccc" />
      </g>
    </g>
    <g
       id="g3912"
       inkscape:export-filename="/home/bbesson/Desktop/sac1.png"
       inkscape:export-xdpi="3.4781361"
       inkscape:export-ydpi="3.4781361"
       style="fill:#7d7d7d;fill-opacity:1;stroke:#000000;stroke-width:8;stroke-miterlimit:4;stroke-dasharray:none;stroke-opacity:1"
       transform="translate(212.41964,0.8155311)">
      <rect
         rx="14.285714"
         ry="14.285714"
         y="456.24527"
         x="394.24692"
         height="139.01286"
         width="41.50621"
         id="rect3914"
         style="opacity:1;fill:#7d7d7d;fill-opacity:1;fill-rule:nonzero;stroke:#000000;stroke-width:8;stroke-linejoin:round;stroke-miterlimit:4;stroke-dasharray:none;stroke-dashoffset:0;stroke-opacity:1" />
      <g
         style="fill:#7d7d7d;fill-opacity:1;stroke:#000000;stroke-width:8;stroke-miterlimit:4;stroke-dasharray:none;stroke-opacity:1"
         id="g3916">
        <path
           sodipodi:type="arc"
           style="opacity:1;fill:#7d7d7d;fill-opacity:1;fill-rule:nonzero;stroke:#000000;stroke-width:7.53098822;stroke-linejoin:miter;stroke-miterlimit:4;stroke-dasharray:none;stroke-dashoffset:0;stroke-opacity:1"
           id="path3918"
           sodipodi:cx="393.92856"
           sodipodi:cy="434.50504"
           sodipodi:rx="39.642857"
           sodipodi:ry="39.642857"
           d="M 433.57141,434.50504 A 39.642857,39.642857 0 1 1 354.2857,434.50504 A 39.642857,39.642857 0 1 1 433.57141,434.50504 z"
           transform="matrix(1.0622776,0,0,1.0622776,-52.602109,-54.559923)" />
        <path
           style="fill:#7d7d7d;fill-opacity:1;fill-rule:evenodd;stroke:#000000;stroke-width:8;stroke-linecap:butt;stroke-linejoin:miter;stroke-miterlimit:4;stroke-dasharray:none;stroke-opacity:1"
           d="M 365.34375,639.15625 L 366.34375,639.15625 L 417.9375,770.4375 C 425.18372,777.68372 443.28939,773.33369 446.9375,759.71875 L 400.65625,614.15625 C 398.35824,606.00687 399.56141,599.00038 396.78184,596.8152 C 395.62605,595.89271 389.99251,590.63056 389.14102,586.37562 L 389.71367,460.5625 C 386.80811,458.88497 341.24042,458.40297 337.5,460.5625 L 253.9375,527.71875 L 266.0625,548.4375 L 331.0625,514.15625 L 331.0625,614.15625 L 284.78125,759.71875 C 284.78125,772.66208 306.43854,777.78021 313.78125,770.4375 L 365.34375,639.15625 z"
           id="path3920"
           sodipodi:nodetypes="cccccccccccccccc" />
      </g>
    </g>
    <g
       id="g3922"
       inkscape:export-filename="/home/bbesson/Desktop/sac1.png"
       inkscape:export-xdpi="3.4781361"
       inkscape:export-ydpi="3.4781361"
       style="fill:#000000;fill-opacity:1;stroke:#000000;stroke-width:8;stroke-miterlimit:4;stroke-dasharray:none;stroke-opacity:1"
       transform="translate(321.12947,0.8155311)">
      <rect
         rx="14.285714"
         ry="14.285714"
         y="456.24527"
         x="394.24692"
         height="139.01286"
         width="41.50621"
         id="rect3924"
         style="opacity:1;fill:#000000;fill-opacity:1;fill-rule:nonzero;stroke:#000000;stroke-width:8;stroke-linejoin:round;stroke-miterlimit:4;stroke-dasharray:none;stroke-dashoffset:0;stroke-opacity:1" />
      <g
         style="fill:#000000;fill-opacity:1;stroke:#000000;stroke-width:8;stroke-miterlimit:4;stroke-dasharray:none;stroke-opacity:1"
         id="g3926">
        <path
           sodipodi:type="arc"
           style="opacity:1;fill:#000000;fill-opacity:1;fill-rule:nonzero;stroke:#000000;stroke-width:7.53098822;stroke-linejoin:miter;stroke-miterlimit:4;stroke-dasharray:none;stroke-dashoffset:0;stroke-opacity:1"
           id="path3928"
           sodipodi:cx="393.92856"
           sodipodi:cy="434.50504"
           sodipodi:rx="39.642857"
           sodipodi:ry="39.642857"
           d="M 433.57141,434.50504 A 39.642857,39.642857 0 1 1 354.2857,434.50504 A 39.642857,39.642857 0 1 1 433.57141,434.50504 z"
           transform="matrix(1.0622776,0,0,1.0622776,-52.602109,-54.559923)" />
        <path
           style="fill:#000000;fill-opacity:1;fill-rule:evenodd;stroke:#000000;stroke-width:8;stroke-linecap:butt;stroke-linejoin:miter;stroke-miterlimit:4;stroke-dasharray:none;stroke-opacity:1"
           d="M 365.34375,639.15625 L 366.34375,639.15625 L 417.9375,770.4375 C 425.18372,777.68372 443.28939,773.33369 446.9375,759.71875 L 400.65625,614.15625 C 398.35824,606.00687 399.56141,599.00038 396.78184,596.8152 C 395.62605,595.89271 389.99251,590.63056 389.14102,586.37562 L 389.71367,460.5625 C 386.80811,458.88497 341.24042,458.40297 337.5,460.5625 L 253.9375,527.71875 L 266.0625,548.4375 L 331.0625,514.15625 L 331.0625,614.15625 L 284.78125,759.71875 C 284.78125,772.66208 306.43854,777.78021 313.78125,770.4375 L 365.34375,639.15625 z"
           id="path3930"
           sodipodi:nodetypes="cccccccccccccccc" />
      </g>
    </g>
    <g
       id="g2450"
       style="fill:#c8c8c8;fill-opacity:1;stroke:#000000;stroke-width:8;stroke-miterlimit:4;stroke-dasharray:none;stroke-opacity:1"
       inkscape:export-filename="/home/bbesson/Desktop/alone4.png"
       inkscape:export-xdpi="3.4531143"
       inkscape:export-ydpi="3.4531143"
       transform="translate(-25.35826,467.24715)">
      <path
         transform="matrix(1.0622776,0,0,1.0622776,-52.602109,-54.559923)"
         d="M 433.57141,434.50504 A 39.642857,39.642857 0 1 1 354.2857,434.50504 A 39.642857,39.642857 0 1 1 433.57141,434.50504 z"
         sodipodi:ry="39.642857"
         sodipodi:rx="39.642857"
         sodipodi:cy="434.50504"
         sodipodi:cx="393.92856"
         id="path2452"
         style="opacity:1;fill:#c8c8c8;fill-opacity:1;fill-rule:nonzero;stroke:#000000;stroke-width:7.53098822;stroke-linejoin:miter;stroke-miterlimit:4;stroke-dasharray:none;stroke-dashoffset:0;stroke-opacity:1"
         sodipodi:type="arc" />
      <path
         sodipodi:nodetypes="ccccccccccccccccc"
         id="path2454"
         d="M 365.34375,639.15625 L 366.34375,639.15625 L 417.9375,770.4375 C 425.18372,777.68372 443.28939,773.33369 446.9375,759.71875 L 400.65625,614.15625 L 400.65625,514.15625 L 465.65625,548.4375 L 477.78125,527.71875 L 394.21875,460.5625 C 391.31319,458.88497 341.24042,458.40297 337.5,460.5625 L 253.9375,527.71875 L 266.0625,548.4375 L 331.0625,514.15625 L 331.0625,614.15625 L 284.78125,759.71875 C 284.78125,772.66208 306.43854,777.78021 313.78125,770.4375 L 365.34375,639.15625 z"
         style="fill:#c8c8c8;fill-opacity:1;fill-rule:evenodd;stroke:#000000;stroke-width:8;stroke-linecap:butt;stroke-linejoin:miter;stroke-miterlimit:4;stroke-dasharray:none;stroke-opacity:1" />
    </g>
    <g
       id="g3906"
       style="fill:#7d7d7d;fill-opacity:1;stroke:#000000;stroke-width:8;stroke-miterlimit:4;stroke-dasharray:none;stroke-opacity:1"
       inkscape:export-filename="/home/bbesson/Desktop/test.png"
       inkscape:export-xdpi="5.3954911"
       inkscape:export-ydpi="5.3954911"
       transform="translate(78.426332,467.24715)">
      <path
         transform="matrix(1.0622776,0,0,1.0622776,-52.602109,-54.559923)"
         d="M 433.57141,434.50504 A 39.642857,39.642857 0 1 1 354.2857,434.50504 A 39.642857,39.642857 0 1 1 433.57141,434.50504 z"
         sodipodi:ry="39.642857"
         sodipodi:rx="39.642857"
         sodipodi:cy="434.50504"
         sodipodi:cx="393.92856"
         id="path3908"
         style="opacity:1;fill:#7d7d7d;fill-opacity:1;fill-rule:nonzero;stroke:#000000;stroke-width:7.53098822;stroke-linejoin:miter;stroke-miterlimit:4;stroke-dasharray:none;stroke-dashoffset:0;stroke-opacity:1"
         sodipodi:type="arc" />
      <path
         sodipodi:nodetypes="ccccccccccccccccc"
         id="path3910"
         d="M 365.34375,639.15625 L 366.34375,639.15625 L 417.9375,770.4375 C 425.18372,777.68372 443.28939,773.33369 446.9375,759.71875 L 400.65625,614.15625 L 400.65625,514.15625 L 465.65625,548.4375 L 477.78125,527.71875 L 394.21875,460.5625 C 391.31319,458.88497 341.24042,458.40297 337.5,460.5625 L 253.9375,527.71875 L 266.0625,548.4375 L 331.0625,514.15625 L 331.0625,614.15625 L 284.78125,759.71875 C 284.78125,772.66208 306.43854,777.78021 313.78125,770.4375 L 365.34375,639.15625 z"
         style="fill:#7d7d7d;fill-opacity:1;fill-rule:evenodd;stroke:#000000;stroke-width:8;stroke-linecap:butt;stroke-linejoin:miter;stroke-miterlimit:4;stroke-dasharray:none;stroke-opacity:1" />
    </g>
    <g
       id="g3900"
       style="fill:#000000;fill-opacity:1;stroke:#000000;stroke-width:8;stroke-miterlimit:4;stroke-dasharray:none;stroke-opacity:1"
       inkscape:export-filename="/home/bbesson/Desktop/test.png"
       inkscape:export-xdpi="3.4531143"
       inkscape:export-ydpi="3.4531143"
       transform="translate(182.21094,467.24715)">
      <path
         transform="matrix(1.0622776,0,0,1.0622776,-52.602109,-54.559923)"
         d="M 433.57141,434.50504 A 39.642857,39.642857 0 1 1 354.2857,434.50504 A 39.642857,39.642857 0 1 1 433.57141,434.50504 z"
         sodipodi:ry="39.642857"
         sodipodi:rx="39.642857"
         sodipodi:cy="434.50504"
         sodipodi:cx="393.92856"
         id="path3902"
         style="opacity:1;fill:#000000;fill-opacity:1;fill-rule:nonzero;stroke:#000000;stroke-width:7.53098822;stroke-linejoin:miter;stroke-miterlimit:4;stroke-dasharray:none;stroke-dashoffset:0;stroke-opacity:1"
         sodipodi:type="arc" />
      <path
         sodipodi:nodetypes="ccccccccccccccccc"
         id="path3904"
         d="M 365.34375,639.15625 L 366.34375,639.15625 L 417.9375,770.4375 C 425.18372,777.68372 443.28939,773.33369 446.9375,759.71875 L 400.65625,614.15625 L 400.65625,514.15625 L 465.65625,548.4375 L 477.78125,527.71875 L 394.21875,460.5625 C 391.31319,458.88497 341.24042,458.40297 337.5,460.5625 L 253.9375,527.71875 L 266.0625,548.4375 L 331.0625,514.15625 L 331.0625,614.15625 L 284.78125,759.71875 C 284.78125,772.66208 306.43854,777.78021 313.78125,770.4375 L 365.34375,639.15625 z"
         style="fill:#000000;fill-opacity:1;fill-rule:evenodd;stroke:#000000;stroke-width:8;stroke-linecap:butt;stroke-linejoin:miter;stroke-miterlimit:4;stroke-dasharray:none;stroke-opacity:1" />
    </g>
  </g>
</svg>
