<?xml version="1.0" encoding="UTF-8" standalone="no"?>
<!-- Created with Inkscape (http://www.inkscape.org/) -->
<svg
   xmlns:dc="http://purl.org/dc/elements/1.1/"
   xmlns:cc="http://creativecommons.org/ns#"
   xmlns:rdf="http://www.w3.org/1999/02/22-rdf-syntax-ns#"
   xmlns:svg="http://www.w3.org/2000/svg"
   xmlns="http://www.w3.org/2000/svg"
   xmlns:sodipodi="http://sodipodi.sourceforge.net/DTD/sodipodi-0.dtd"
   xmlns:inkscape="http://www.inkscape.org/namespaces/inkscape"
   id="svg2440"
   sodipodi:version="0.32"
   inkscape:version="0.46"
   width="216.58272"
   height="172.67986"
   version="1.0"
   sodipodi:docname="tc_icons.svg"
   inkscape:output_extension="org.inkscape.output.svg.inkscape">
  <metadata
     id="metadata2445">
    <rdf:RDF>
      <cc:Work
         rdf:about="">
        <dc:format>image/svg+xml</dc:format>
        <dc:type
           rdf:resource="http://purl.org/dc/dcmitype/StillImage" />
      </cc:Work>
    </rdf:RDF>
  </metadata>
  <defs
     id="defs2443">
    <inkscape:perspective
       sodipodi:type="inkscape:persp3d"
       inkscape:vp_x="0 : 526.18109 : 1"
       inkscape:vp_y="0 : 1000 : 0"
       inkscape:vp_z="744.09448 : 526.18109 : 1"
       inkscape:persp3d-origin="372.04724 : 350.78739 : 1"
       id="perspective2447" />
    <inkscape:perspective
       id="perspective3369"
       inkscape:persp3d-origin="372.04724 : 350.78739 : 1"
       inkscape:vp_z="744.09448 : 526.18109 : 1"
       inkscape:vp_y="0 : 1000 : 0"
       inkscape:vp_x="0 : 526.18109 : 1"
       sodipodi:type="inkscape:persp3d" />
  </defs>
  <sodipodi:namedview
     inkscape:window-height="903"
     inkscape:window-width="1185"
     inkscape:pageshadow="2"
     inkscape:pageopacity="0.0"
     guidetolerance="10.0"
     gridtolerance="10.0"
     objecttolerance="10.0"
     borderopacity="1.0"
     bordercolor="#666666"
     pagecolor="#ffffff"
     id="base"
     showgrid="false"
     inkscape:zoom="1.4505208"
     inkscape:cx="102.59663"
     inkscape:cy="61.76621"
     inkscape:window-x="6"
     inkscape:window-y="49"
     inkscape:current-layer="svg2440" />
  <g
     id="g3263"
     transform="translate(-89.977715,-7.2038667)">
    <path
       sodipodi:nodetypes="ccccccccccccccccccccccc"
       id="path2469"
       d="M 105.29671,18.733667 C 117.80881,18.733667 130.32092,18.733667 142.83302,18.733667 C 145.13624,19.076867 147.22564,18.997973 148.96693,21.32432 C 150.73135,23.281666 151.77751,25.600954 152.10686,27.945757 C 153.07796,44.130708 153.70436,60.229483 154.67546,76.414434 C 154.40199,78.064049 155.03081,78.700053 152.92867,78.914982 C 149.62321,79.00894 154.46903,78.776695 149.95204,78.999901 C 149.82127,81.308868 150.28213,88.620119 149.34268,89.103825 C 148.71856,89.548387 146.10326,89.299001 141.59953,89.261393 C 140.30148,89.221391 139.57264,87.932672 139.89343,86.493303 C 139.75963,84.084853 139.79818,81.590228 139.66438,79.181778 C 128.37098,79.181778 117.07759,79.181778 105.78419,79.181778 C 105.78419,82.187932 105.78419,85.194087 105.78419,88.200241 C 105.46495,89.44159 104.71861,89.085177 102.67652,89.110589 C 100.15371,89.055894 98.635172,89.230385 96.700434,88.896476 C 95.364628,88.379 95.499188,87.000448 95.487766,85.823648 C 95.426267,83.609692 95.364768,81.395735 95.303268,79.181778 C 94.158874,78.919573 93.0451,79.191349 91.783281,78.532897 C 91.114613,78.07281 90.330445,77.628882 90.501529,75.144784 C 91.370882,59.022245 92.240236,42.899706 93.109589,26.777166 C 93.732399,24.077677 94.807924,22.732103 96.174051,21.12399 C 97.478469,20.079647 98.316787,19.699242 99.824605,19.095247 C 101.63215,18.745396 103.48116,18.87064 105.29671,18.733667 z"
       style="fill:none;fill-rule:evenodd;stroke:#000000;stroke-width:1px;stroke-linecap:butt;stroke-linejoin:miter;stroke-opacity:1" />
    <path
       sodipodi:nodetypes="cccccccccc"
       id="path2472"
       d="M 103.75583,31.885099 C 117.10087,32.017139 130.44841,32.0852 143.79188,32.257264 C 146.26589,32.496172 147.7177,34.983309 147.60425,37.299722 C 148.21253,43.078331 148.8208,48.856939 149.42908,54.635548 C 149.50112,56.822114 147.43791,59.741815 144.97785,60.77628 C 142.71912,61.008685 140.43215,60.677325 138.15429,60.812969 C 125.48168,60.764602 112.80906,60.716234 100.13645,60.667866 C 97.185481,59.789675 95.605432,56.456598 96.158759,53.535229 C 96.656021,47.214344 97.046068,40.876826 97.610352,34.566338 C 98.329631,31.892033 101.53143,31.903849 103.75583,31.885099 z"
       style="fill:none;fill-rule:evenodd;stroke:#000000;stroke-width:1px;stroke-linecap:butt;stroke-linejoin:miter;stroke-opacity:1" />
    <path
       sodipodi:nodetypes="ccccccc"
       id="path2474"
       d="M 105.39318,23.181328 C 116.8833,23.123878 128.37343,23.066428 139.86355,23.008978 C 141.51526,23.482136 141.70935,26.080827 140.80755,27.893347 C 140.08136,28.950862 138.41419,28.491875 135.67716,28.609323 C 125.84103,28.605491 115.66019,28.616217 105.82406,28.610413 C 104.30603,28.298988 103.54219,26.962642 103.84509,25.015351 C 104.0136,24.244065 104.31731,23.49043 105.39318,23.181328 z"
       style="fill:none;fill-rule:evenodd;stroke:#000000;stroke-width:1px;stroke-linecap:butt;stroke-linejoin:miter;stroke-opacity:1" />
    <path
       id="path2488"
       d="M 105.39317,69.931778 C 105.39317,72.191311 103.61726,74.025135 101.42908,74.025135 C 99.240898,74.025135 97.464984,72.191311 97.464984,69.931778 C 97.464984,67.672245 99.240898,65.838421 101.42908,65.838421 C 103.61726,65.838421 105.39317,67.672245 105.39317,69.931778 z"
       style="fill:none;fill-opacity:1;stroke:#000000;stroke-width:1;stroke-linecap:round;stroke-miterlimit:4;stroke-dasharray:none;stroke-dashoffset:0;stroke-opacity:1"
       transform="translate(-0.5170557,0.1938956)" />
    <path
       transform="translate(42.915627,0.1938956)"
       d="M 105.39317,69.931778 A 3.9640934,4.0933571 0 1 1 97.464984,69.931778 A 3.9640934,4.0933571 0 1 1 105.39317,69.931778 z"
       sodipodi:ry="4.0933571"
       sodipodi:rx="3.9640934"
       sodipodi:cy="69.931778"
       sodipodi:cx="101.42908"
       id="path3260"
       style="fill:none;fill-opacity:1;stroke:#000000;stroke-width:1;stroke-linecap:round;stroke-miterlimit:4;stroke-dasharray:none;stroke-dashoffset:0;stroke-opacity:1"
       sodipodi:type="arc" />
  </g>
  <g
     id="g3510"
     transform="translate(30.840955,-107.16796)">
    <g
       transform="translate(-1.4624542,93.109587)"
       id="g3295">
      <path
         style="fill:none;fill-rule:evenodd;stroke:#000000;stroke-width:1px;stroke-linecap:butt;stroke-linejoin:miter;stroke-opacity:1"
         d="M 136.98322,40.304867 C 147.78913,40.22362 158.59505,40.142373 169.40096,40.061127 C 171.3773,40.5175 172.52831,41.941853 173.3133,43.716587 C 174.33003,45.644785 174.44053,47.897746 175.05517,49.968257 C 175.45186,52.275971 176.43815,54.613141 176.45819,56.902038 C 176.15319,58.866667 174.87708,61.287611 172.54776,60.901096 C 159.55545,60.901096 146.56313,60.901096 133.57082,60.901096 C 131.48403,60.612619 129.77179,58.683645 129.93716,56.605736 C 130.78277,52.147083 131.62838,47.688429 132.47398,43.229774 C 133.54635,41.495675 134.95811,40.552434 136.98322,40.304867 z"
         id="path3275" />
      <path
         style="fill:none;fill-rule:evenodd;stroke:#000000;stroke-width:1px;stroke-linecap:butt;stroke-linejoin:miter;stroke-opacity:1"
         d="M 134.54579,36.039375 C 137.91756,36.079999 158.83878,36.120623 170.98528,36.161247 C 172.90232,36.398263 173.52755,36.897136 174.61166,37.512368 C 175.78406,39.023251 176.37173,40.164492 176.94192,41.893204 C 178.80129,48.731738 181.75021,59.332745 182.44116,62.159235 C 182.53263,65.079764 182.50193,72.892649 182.39565,78.239675 C 182.04146,79.109812 182.41438,80.117984 181.3804,80.635209 C 180.56637,81.093815 178.87983,80.655639 178.30007,81.049247 C 178.33985,83.595408 178.86711,87.725893 178.17568,88.565858 C 177.16008,89.297085 171.51338,89.175214 170.49779,88.322115 C 169.72593,87.225274 169.80718,83.569138 169.76656,81.009842 C 158.75753,80.969218 147.7485,80.928594 136.73947,80.88797 C 136.73947,83.48789 137.34883,87.915877 136.13012,88.8096 C 134.99265,89.45958 129.34595,89.378333 128.57411,88.68773 C 127.80226,87.590888 128.12725,83.69101 128.08662,81.131714 C 127.02344,81.00287 125.89584,81.217236 124.82495,80.878068 C 124.22668,79.900034 123.15262,79.194882 123.33364,76.833988 C 123.28561,70.077654 123.16655,63.051786 123.499,61.233261 C 124.94507,55.500876 127.40411,47.236056 129.4272,40.061127 C 130.43403,37.662208 133.21336,36.399007 134.54579,36.039375 z"
         id="path3286"
         sodipodi:nodetypes="cccccccccccccccccccc" />
      <path
         transform="translate(31.044903,-1.2309241)"
         d="M 105.39317,69.931778 A 3.9640934,4.0933571 0 1 1 97.464984,69.931778 A 3.9640934,4.0933571 0 1 1 105.39317,69.931778 z"
         sodipodi:ry="4.0933571"
         sodipodi:rx="3.9640934"
         sodipodi:cy="69.931778"
         sodipodi:cx="101.42908"
         id="path3291"
         style="fill:none;fill-opacity:1;stroke:#000000;stroke-width:1;stroke-linecap:round;stroke-miterlimit:4;stroke-dasharray:none;stroke-dashoffset:0;stroke-opacity:1"
         sodipodi:type="arc" />
      <path
         transform="translate(72.481106,-1.4746661)"
         d="M 105.39317,69.931778 A 3.9640934,4.0933571 0 1 1 97.464984,69.931778 A 3.9640934,4.0933571 0 1 1 105.39317,69.931778 z"
         sodipodi:ry="4.0933571"
         sodipodi:rx="3.9640934"
         sodipodi:cy="69.931778"
         sodipodi:cx="101.42908"
         id="path3293"
         style="fill:none;fill-opacity:1;stroke:#000000;stroke-width:1;stroke-linecap:round;stroke-miterlimit:4;stroke-dasharray:none;stroke-dashoffset:0;stroke-opacity:1"
         sodipodi:type="arc" />
    </g>
    <text
       sodipodi:linespacing="125%"
       id="text3301"
       y="126.71154"
       x="126.01481"
       style="font-size:40px;font-style:normal;font-weight:normal;line-height:125%;fill:#000000;fill-opacity:1;stroke:none;stroke-width:1px;stroke-linecap:butt;stroke-linejoin:miter;stroke-opacity:1;font-family:Bitstream Vera Sans"
       xml:space="preserve"><tspan
         style="font-size:20px;font-style:normal;font-variant:normal;font-weight:bold;font-stretch:normal;text-align:start;line-height:125%;writing-mode:lr-tb;text-anchor:start;font-family:Bitstream Vera Sans;-inkscape-font-specification:Bitstream Vera Sans Bold"
         y="126.71154"
         x="126.01481"
         id="tspan3303"
         sodipodi:role="line">TAXI</tspan></text>
  </g>
  <g
     id="g3399"
     transform="matrix(1.0708131,0,0,1.0708131,146.46381,-114.44339)">
    <path
       sodipodi:nodetypes="ccccccccc"
       id="rect3375"
       d="M -49.874329,107.37522 L -23.547577,107.37522 C -14.314299,107.54757 -11.719929,109.28018 -11.547577,119.37522 L -11.547577,149.49371 C -11.547577,160.1058 -13.797243,161.32136 -23.547577,161.49371 L -49.874329,161.49371 C -59.452311,161.49371 -61.701977,158.72699 -61.874329,149.49371 L -61.874329,119.37522 C -61.701977,108.76313 -59.452311,107.54757 -49.874329,107.37522 z"
       style="fill:none;fill-opacity:1;stroke:#000000;stroke-width:1;stroke-linecap:round;stroke-miterlimit:4;stroke-dashoffset:0;stroke-opacity:1" />
    <path
       style="fill:none;fill-opacity:1;stroke:#000000;stroke-width:1;stroke-linecap:round;stroke-miterlimit:4;stroke-dasharray:none;stroke-dashoffset:0;stroke-opacity:1"
       d="M -47.56912,148.41652 C -47.56912,150.67605 -49.34503,152.50987 -51.53321,152.50987 C -53.721392,152.50987 -55.497306,150.67605 -55.497306,148.41652 C -55.497306,146.15698 -53.721392,144.32316 -51.53321,144.32316 C -49.34503,144.32316 -47.56912,146.15698 -47.56912,148.41652 z"
       id="path3380" />
    <path
       style="fill:none;fill-opacity:1;stroke:#000000;stroke-width:1;stroke-linecap:round;stroke-miterlimit:4;stroke-dasharray:none;stroke-dashoffset:0;stroke-opacity:1"
       d="M -17.752245,148.39497 C -17.752245,150.65451 -19.528155,152.48833 -21.716335,152.48833 C -23.904517,152.48833 -25.680431,150.65451 -25.680431,148.39497 C -25.680431,146.13544 -23.904517,144.30162 -21.716335,144.30162 C -19.528155,144.30162 -17.752245,146.13544 -17.752245,148.39497 z"
       id="path3382" />
    <path
       sodipodi:nodetypes="cccccc"
       id="path3388"
       d="M -39.002007,131.57588 C -39.030733,125.28503 -39.095153,118.87971 -39.123879,112.67504 C -44.524237,112.56014 -49.795332,112.66068 -55.195691,112.54578 C -56.294116,112.51808 -57.489864,112.65273 -57.565529,114.614 C -57.531876,120.27782 -57.498222,125.94164 -57.464569,131.60545 C -44.88444,131.57834 -45.158659,131.62389 -39.002007,131.57588 z"
       style="fill:none;fill-rule:evenodd;stroke:#000000;stroke-width:1px;stroke-linecap:butt;stroke-linejoin:miter;stroke-opacity:1" />
    <path
       sodipodi:nodetypes="cccccc"
       id="path3393"
       d="M -34.633144,131.61228 C -34.604418,125.32143 -34.539998,118.91611 -34.511272,112.71144 C -29.110914,112.59654 -23.839819,112.69708 -18.43946,112.58218 C -17.341035,112.55448 -16.145287,112.68913 -16.069622,114.6504 C -16.103275,120.31422 -16.136929,125.97804 -16.170582,131.64185 C -28.750711,131.61474 -28.476492,131.66029 -34.633144,131.61228 z"
       style="fill:none;fill-rule:evenodd;stroke:#000000;stroke-width:1px;stroke-linecap:butt;stroke-linejoin:miter;stroke-opacity:1" />
    <path
       sodipodi:nodetypes="ccccc"
       id="path3395"
       d="M -52.282739,161.5667 L -62.276176,175.21627 L -57.766943,175.0944 L -48.483823,161.58149 L -52.282739,161.5667 z"
       style="fill:none;fill-rule:evenodd;stroke:#000000;stroke-width:1px;stroke-linecap:butt;stroke-linejoin:miter;stroke-opacity:1" />
    <path
       sodipodi:nodetypes="ccccc"
       id="path3397"
       d="M -20.935681,161.563 L -10.942244,175.21257 L -15.451477,175.0907 L -24.734597,161.57779 L -20.935681,161.563 z"
       style="fill:none;fill-rule:evenodd;stroke:#000000;stroke-width:1px;stroke-linecap:butt;stroke-linejoin:miter;stroke-opacity:1" />
  </g>
  <path
     style="fill:#545455;fill-opacity:1;stroke:#545455;stroke-width:1.07081306000000009;stroke-linecap:round;stroke-miterlimit:4;stroke-dashoffset:0;stroke-opacity:1"
     d="M 21.790509,99.519451 C 11.534279,99.704011 9.131319,100.99963 8.946759,112.3632 L 8.946759,144.6132 C 9.131319,154.50032 11.534279,157.45695 21.790509,157.45695 L 50.009259,157.45695 C 60.450039,157.2724 62.853009,155.97677 62.853009,144.6132 L 62.853009,112.3632 C 62.668449,101.5533 59.896369,99.704011 50.009259,99.519451 L 21.790509,99.519451 z M 16.103009,105.0507 C 21.885789,105.17373 27.538989,105.05266 33.321759,105.1757 C 33.352519,111.81974 33.415999,118.68938 33.446759,125.4257 C 26.854139,125.47711 27.136479,125.42791 13.665509,125.45695 C 13.629469,119.39207 13.607799,113.33434 13.571759,107.26945 C 13.652779,105.1693 14.926809,105.02103 16.103009,105.0507 z M 55.478009,105.08195 C 56.654219,105.05229 57.928239,105.20055 58.009259,107.3007 C 57.973229,113.36559 57.920299,119.42332 57.884259,125.4882 C 44.413299,125.45917 44.726879,125.50836 38.134259,125.45695 C 38.165029,118.72064 38.228499,111.88224 38.259259,105.2382 C 44.042029,105.11517 49.695229,105.20499 55.478009,105.08195 z M 52.728009,137.8007 C 55.487999,137.8007 57.728009,140.0407 57.728009,142.8007 C 57.728009,145.56069 55.487999,147.8007 52.728009,147.8007 C 49.968009,147.8007 47.728009,145.5607 47.728009,142.8007 C 47.728009,140.04069 49.968009,137.8007 52.728009,137.8007 z M 20.290509,138.3632 C 23.050499,138.36319 25.290509,140.60319 25.290509,143.3632 C 25.290509,146.1232 23.050499,148.3632 20.290509,148.3632 C 17.530499,148.36319 15.290509,146.12321 15.290509,143.3632 C 15.290509,140.60318 17.530499,138.3632 20.290509,138.3632 z M 19.228009,157.5507 L 8.509259,172.14445 L 13.353009,172.01945 L 23.290509,157.5507 L 19.228009,157.5507 z M 48.728009,157.5507 L 58.665509,172.01945 L 63.478009,172.14445 L 52.790509,157.5507 L 48.728009,157.5507 z"
     id="path3410"
     inkscape:export-filename="/var/www/camptocamp.org/web/static/images/picto/train_big.png"
     inkscape:export-xdpi="19.539782"
     inkscape:export-ydpi="19.539782" />
  <path
     style="fill:#545455;fill-opacity:1;fill-rule:evenodd;stroke:#545455;stroke-width:1px;stroke-linecap:butt;stroke-linejoin:miter;stroke-opacity:1"
     d="M 166.70773,100.06734 C 164.89218,100.20431 163.04652,100.09249 161.23898,100.44234 C 159.73116,101.04633 158.88715,101.42924 157.58273,102.47359 C 156.2166,104.0817 155.14304,105.43035 154.52023,108.12984 C 153.65087,124.25238 152.76457,140.35103 151.89522,156.47359 C 151.72414,158.95769 152.50781,159.41976 153.17648,159.87984 C 154.43829,160.53829 155.56333,160.27388 156.70773,160.53609 C 156.76923,162.75005 156.83372,164.94712 156.89523,167.16109 C 156.90665,168.33789 156.77817,169.73737 158.11398,170.25484 C 160.04871,170.58875 161.55992,170.38765 164.08273,170.44234 C 166.12482,170.41693 166.88848,170.77743 167.20773,169.53609 C 167.20773,166.52994 167.20772,163.54224 167.20773,160.53609 C 178.50113,160.53609 189.78932,160.53609 201.08273,160.53609 C 201.21653,162.94454 201.16767,165.44013 201.30148,167.84859 C 200.98069,169.28796 201.72217,170.55858 203.02023,170.59859 C 207.52396,170.6362 210.11486,170.88692 210.73898,170.44234 C 211.67843,169.95864 211.23321,162.65756 211.36398,160.34859 C 215.88097,160.12539 211.02726,160.34881 214.33273,160.25484 C 216.43487,160.03991 215.80925,159.40447 216.08273,157.75484 C 215.11163,141.56989 214.49133,125.47104 213.52023,109.28609 C 213.19088,106.94128 212.1284,104.61845 210.36398,102.66109 C 208.62269,100.33474 206.54219,100.41053 204.23898,100.06734 C 191.72688,100.06734 179.21982,100.06733 166.70773,100.06734 z M 201.27023,104.34859 C 202.92194,104.82175 203.10953,107.41107 202.20773,109.22359 C 201.48154,110.2811 199.81976,109.82489 197.08273,109.94234 C 187.2466,109.93851 177.07511,109.94815 167.23898,109.94234 C 165.72095,109.63091 164.93608,108.29588 165.23898,106.34859 C 165.40748,105.57731 165.72561,104.84519 166.80148,104.53609 C 178.2916,104.47865 189.78011,104.40604 201.27023,104.34859 z M 165.17648,113.22359 C 178.52152,113.35562 191.86426,113.42653 205.20773,113.59859 C 207.68174,113.83751 209.13368,116.31343 209.02023,118.62984 C 209.62851,124.40845 210.22445,130.19498 210.83273,135.97359 C 210.90477,138.16015 208.85529,141.09538 206.39523,142.12984 C 204.1365,142.36227 201.82934,142.02544 199.55148,142.16109 C 186.87886,142.11271 174.22409,142.0532 161.55148,142.00484 C 158.60051,141.12664 156.99815,137.80121 157.55148,134.87984 C 158.04874,128.55894 158.45594,122.22158 159.02023,115.91109 C 159.73951,113.23679 162.95208,113.24234 165.17648,113.22359 z M 163.36398,145.56734 C 166.12398,145.56734 168.36398,147.80735 168.36398,150.56734 C 168.36397,153.32733 166.12398,155.56734 163.36398,155.56734 C 160.60397,155.56734 158.36398,153.32733 158.36398,150.56734 C 158.36397,147.80735 160.60397,145.56734 163.36398,145.56734 z M 206.80148,145.56734 C 209.56148,145.56733 211.80148,147.80734 211.80148,150.56734 C 211.80148,153.32733 209.56148,155.56734 206.80148,155.56734 C 204.04148,155.56733 201.80148,153.32734 201.80148,150.56734 C 201.80148,147.80733 204.04148,145.56734 206.80148,145.56734 z"
     id="path3433"
     inkscape:export-filename="/home/popeye/Bureau/bus.png"
     inkscape:export-xdpi="160.81393"
     inkscape:export-ydpi="160.81393" />
  <path
     style="fill:#545455;fill-opacity:1;fill-rule:evenodd;stroke:#545455;stroke-width:1px;stroke-linecap:butt;stroke-linejoin:miter;stroke-opacity:1"
     d="M 80.684705,100.98829 L 80.684705,103.83204 L 85.528455,103.83204 L 85.528455,115.58204 L 89.278455,115.58204 L 89.278455,103.83204 L 94.122205,103.83204 L 94.122205,100.98829 L 80.684705,100.98829 z M 98.153455,100.98829 L 92.747205,115.58204 L 96.528455,115.58204 L 97.465955,112.92579 L 103.34096,112.92579 L 104.24721,115.58204 L 108.02846,115.58204 L 102.62221,100.98829 L 98.153455,100.98829 z M 108.68471,100.98829 L 113.55971,108.14454 L 108.49721,115.58204 L 112.43471,115.58204 L 115.80971,110.61329 L 119.21596,115.58204 L 123.15346,115.58204 L 118.09096,108.14454 L 122.93471,100.98829 L 118.99721,100.98829 L 115.80971,105.70704 L 112.62221,100.98829 L 108.68471,100.98829 z M 125.37221,100.98829 L 125.37221,115.58204 L 129.15346,115.58204 L 129.15346,100.98829 L 125.37221,100.98829 z M 100.40346,104.42579 L 102.37221,110.20704 L 98.403455,110.20704 L 100.40346,104.42579 z M 87.653455,118.01954 C 86.321025,118.37917 83.535285,119.65187 82.528455,122.05079 C 80.505365,129.22572 78.037024,137.47467 76.590955,143.20704 C 76.258505,145.02557 76.386674,152.04446 76.434705,158.80079 C 76.253685,161.16168 77.336434,161.88525 77.934705,162.86329 C 79.005595,163.20246 80.121525,162.98445 81.184705,163.11329 C 81.225335,165.67259 80.912857,169.57894 81.684705,170.67579 C 82.456545,171.36639 88.109736,171.45078 89.247205,170.80079 C 90.465915,169.90707 89.840953,165.46322 89.840955,162.86329 C 100.84999,162.90391 111.86317,162.94766 122.87221,162.98829 C 122.91283,165.54759 122.8191,169.20396 123.59096,170.30079 C 124.60655,171.15389 130.26285,171.28202 131.27846,170.55079 C 131.96989,169.71082 131.44324,165.5657 131.40346,163.01954 C 131.98322,162.62593 133.68318,163.0719 134.49721,162.61329 C 135.53119,162.09606 135.14302,161.07717 135.49721,160.20704 C 135.60349,154.86002 135.61993,147.06505 135.52846,144.14454 C 134.83751,141.31804 131.91908,130.70183 130.05971,123.86329 C 129.48952,122.13458 128.88836,120.99917 127.71596,119.48829 C 126.63185,118.87306 126.00799,118.38155 124.09096,118.14454 C 111.94446,118.10391 91.025223,118.06017 87.653455,118.01954 z M 122.49721,122.05079 C 124.47354,122.50716 125.61847,123.9323 126.40346,125.70704 C 127.42018,127.63524 127.53882,129.88653 128.15346,131.95704 C 128.55015,134.26476 129.53967,136.60564 129.55971,138.89454 C 129.2547,140.85916 127.98278,143.2498 125.65346,142.86329 C 112.66115,142.86329 99.677015,142.86329 86.684705,142.86329 C 84.597915,142.57481 82.863085,140.65995 83.028455,138.58204 C 83.874064,134.12338 84.745355,129.6657 85.590955,125.20704 C 86.663325,123.47295 88.065845,122.5171 90.090955,122.26954 C 100.89687,122.18828 111.6913,122.13203 122.49721,122.05079 z M 127.55971,145.58204 C 130.01495,145.58205 131.99721,147.5643 131.99721,150.01954 C 131.99721,152.47479 130.01495,154.48829 127.55971,154.48829 C 125.10446,154.48829 123.09096,152.47478 123.09096,150.01954 C 123.09096,147.5643 125.10446,145.58204 127.55971,145.58204 z M 86.122205,145.83204 C 88.577451,145.83204 90.559705,147.8143 90.559705,150.26954 C 90.559706,152.72479 88.577449,154.70704 86.122205,154.70704 C 83.666963,154.70704 81.653455,152.72478 81.653455,150.26954 C 81.653454,147.8143 83.666961,145.83204 86.122205,145.83204 z"
     id="path3452"
     inkscape:export-filename="/home/popeye/Bureau/ondemand.png"
     inkscape:export-xdpi="161.67108"
     inkscape:export-ydpi="161.67108" />
</svg>
